COMMENT @(#)86	1.1  src/bos/usr/lpp/jls/fonts/Kanji23.bdf, fontKJI, bos411, 9428A410j 2/24/94 10:13:35
COMMENT
COMMENT   COMPONENT_NAME: fontKJI
COMMENT
COMMENT   FUNCTIONS: none
COMMENT
COMMENT   ORIGINS: 27
COMMENT
COMMENT   IBM CONFIDENTIAL -- (IBM Confidential Restricted when
COMMENT   combined with the aggregated modules for this product)
COMMENT                    SOURCE MATERIALS
COMMENT
COMMENT   (C) COPYRIGHT International Business Machines Corp. 1991,1993
COMMENT   All Rights Reserved
COMMENT   US Government Users Restricted Rights - Use, duplication or
COMMENT   disclosure restricted by GSA ADP Schedule Contract with IBM Corp.
COMMENT
STARTFONT 2.1
FONT -IBM_AIX-Mincho-Medium-R-Normal--35-230-100-100-M-340-JISX0208.1983-0
SIZE 230 100 100
FONTBOUNDINGBOX 34 35 0 0
STARTPROPERTIES 27
FONTNAME_REGISTRY "-"
FOUNDRY "IBM_AIX"
FAMILY_NAME "Mincho"
WEIGHT_NAME "Medium"
SLANT "R"
SETWIDTH_NAME "Normal"
ADD_STYLE_NAME ""
PIXEL_SIZE 35
POINT_SIZE 230
RESOLUTION_X 100
RESOLUTION_Y 100
SPACING "M"
AVERAGE_WIDTH 340
CHARSET_REGISTRY "JISX0208.1983"
CHARSET_ENCODING "0"
CAP_HEIGHT 35
CHARSET_COLLECTIONS ""
COPYRIGHT "Copyright 1991 by IBM."
_IBM_AIX_CODESET "AIXstdNLS"
_IBM_AIX_SINGLEBYTE_CODEPAGE_SHIFTS ""
WEIGHT 25820
RESOLUTION 138
X_HEIGHT 34
QUAD_WIDTH 34
FONT_DESCENT 1
FONT_ASCENT 34
DEFAULT_CHAR 8481
ENDPROPERTIES
CHARS 6879
STARTCHAR 2121
ENCODING 8481
SWIDTH	-8531 0
DWIDTH	34 0
BBX 34	35 0 -1
BITMAP
0000000000
0000000000
0000000000
0000000000
0000000000
0000000000
0000000000
0000000000
0000000000
0000000000
0000000000
0000000000
0000000000
0000000000
0000000000
0000000000
0000000000
0000000000
0000000000
0000000000
0000000000
0000000000
0000000000
0000000000
0000000000
0000000000
0000000000
0000000000
0000000000
0000000000
0000000000
0000000000
0000000000
0000000000
0000000000
ENDCHAR
STARTCHAR 2122
ENCODING 8482
SWIDTH	-8531 0
DWIDTH	34 0
BBX 34	35 0 -1
BITMAP
0000000000
0000000000
0000000000
0000000000
0000000000
0000000000
0000000000
0000000000
0000000000
0000000000
0000000000
0000000000
0000000000
0000000000
0000000000
0000000000
0000000000
0000000000
0000000000
0000000000
0000000000
0000000000
0000000000
0000000000
0000000000
3000000000
3c00000000
1e00000000
0f00000000
0780000000
0380000000
03c0000000
01c0000000
0080000000
0000000000
ENDCHAR
STARTCHAR 2123
ENCODING 8483
SWIDTH	-8531 0
DWIDTH	34 0
BBX 34	35 0 -1
BITMAP
0000000000
0000000000
0000000000
0000000000
0000000000
0000000000
0000000000
0000000000
0000000000
0000000000
0000000000
0000000000
0000000000
0000000000
0000000000
0000000000
0000000000
0000000000
0000000000
0000000000
0000000000
0000000000
0000000000
0000000000
0000000000
0f80000000
1fc0000000
38e0000000
3060000000
3060000000
3060000000
38e0000000
1fc0000000
0f80000000
0000000000
ENDCHAR
STARTCHAR 2124
ENCODING 8484
SWIDTH	-8531 0
DWIDTH	34 0
BBX 34	35 0 -1
BITMAP
0000000000
0000000000
0000000000
0000000000
0000000000
0000000000
0000000000
0000000000
0000000000
0000000000
0000000000
0000000000
0000000000
0000000000
0000000000
0000000000
0000000000
0000000000
0000000000
0000000000
0000000000
0000000000
0000000000
0000000000
0000000000
0000000000
0700000000
0f80000000
0f80000000
0f80000000
0780000000
0380000000
0300000000
0600000000
0000000000
ENDCHAR
STARTCHAR 2125
ENCODING 8485
SWIDTH	-8531 0
DWIDTH	34 0
BBX 34	35 0 -1
BITMAP
0000000000
0000000000
0000000000
0000000000
0000000000
0000000000
0000000000
0000000000
0000000000
0000000000
0000000000
0000000000
0000000000
0000000000
0000000000
0000000000
0000000000
0000000000
0000000000
0000000000
0000000000
0000000000
0000000000
0000000000
0000000000
0000000000
0000000000
0700000000
0f80000000
0f80000000
0f80000000
0700000000
0000000000
0000000000
0000000000
ENDCHAR
STARTCHAR 2126
ENCODING 8486
SWIDTH	-8531 0
DWIDTH	34 0
BBX 34	35 0 -1
BITMAP
0000000000
0000000000
0000000000
0000000000
0000000000
0000000000
0000000000
0000000000
0000000000
0000000000
0000000000
0000000000
0000000000
0000000000
0000000000
0001c00000
0003e00000
0003e00000
0003e00000
0001c00000
0000000000
0000000000
0000000000
0000000000
0000000000
0000000000
0000000000
0000000000
0000000000
0000000000
0000000000
0000000000
0000000000
0000000000
0000000000
ENDCHAR
STARTCHAR 2127
ENCODING 8487
SWIDTH	-8531 0
DWIDTH	34 0
BBX 34	35 0 -1
BITMAP
0000000000
0000000000
0000000000
0000000000
0000000000
0000000000
0000000000
0000000000
0000000000
0000e00000
0001f00000
0001f00000
0001f00000
0000e00000
0000000000
0000000000
0000000000
0000000000
0000000000
0000000000
0000000000
0000000000
0000e00000
0001f00000
0001f00000
0001f00000
0000e00000
0000000000
0000000000
0000000000
0000000000
0000000000
0000000000
0000000000
0000000000
ENDCHAR
STARTCHAR 2128
ENCODING 8488
SWIDTH	-8531 0
DWIDTH	34 0
BBX 34	35 0 -1
BITMAP
0000000000
0000000000
0000000000
0000000000
0000000000
0000000000
0000000000
0000000000
0001c00000
0003e00000
0003e00000
0003e00000
0001c00000
0000000000
0000000000
0000000000
0000000000
0000000000
0000000000
0000000000
0001c00000
0003e00000
0003e00000
0003e00000
0001e00000
0000e00000
0000c00000
0001800000
0000000000
0000000000
0000000000
0000000000
0000000000
0000000000
0000000000
ENDCHAR
STARTCHAR 2129
ENCODING 8489
SWIDTH	-8531 0
DWIDTH	34 0
BBX 34	35 0 -1
BITMAP
0000000000
0000000000
0000000000
0007f00000
001ffc0000
003c1e0000
0070070000
0070070000
00f0038000
00f8038000
00f8038000
0070038000
0000070000
00000f0000
00001e0000
00001c0000
0000380000
0000700000
0000600000
0000e00000
0000c00000
0000c00000
0001800000
0001800000
0001800000
0000000000
0000000000
0000000000
0001c00000
0003e00000
0003e00000
0003e00000
0001c00000
0000000000
0000000000
ENDCHAR
STARTCHAR 212a
ENCODING 8490
SWIDTH	-8531 0
DWIDTH	34 0
BBX 34	35 0 -1
BITMAP
0000000000
0000000000
0000000000
0001c00000
0003e00000
0003e00000
0003e00000
0003e00000
0003e00000
0003e00000
0003e00000
0003e00000
0003e00000
0003e00000
0001c00000
0001c00000
0001c00000
0001c00000
0001c00000
0001c00000
0001c00000
0001c00000
0001c00000
0001c00000
0000800000
0000000000
0000000000
0000000000
0001c00000
0003e00000
0003e00000
0003e00000
0001c00000
0000000000
0000000000
ENDCHAR
STARTCHAR 212b
ENCODING 8491
SWIDTH	-8531 0
DWIDTH	34 0
BBX 34	35 0 -1
BITMAP
0000000000
0000000000
0600000000
0700000000
6380000000
71c0000000
39e0000000
1cc0000000
1e80000000
0c00000000
0800000000
0000000000
0000000000
0000000000
0000000000
0000000000
0000000000
0000000000
0000000000
0000000000
0000000000
0000000000
0000000000
0000000000
0000000000
0000000000
0000000000
0000000000
0000000000
0000000000
0000000000
0000000000
0000000000
0000000000
0000000000
ENDCHAR
STARTCHAR 212c
ENCODING 8492
SWIDTH	-8531 0
DWIDTH	34 0
BBX 34	35 0 -1
BITMAP
0000000000
0000000000
1e00000000
3f00000000
7380000000
6180000000
6180000000
7380000000
3f00000000
1e00000000
0000000000
0000000000
0000000000
0000000000
0000000000
0000000000
0000000000
0000000000
0000000000
0000000000
0000000000
0000000000
0000000000
0000000000
0000000000
0000000000
0000000000
0000000000
0000000000
0000000000
0000000000
0000000000
0000000000
0000000000
0000000000
ENDCHAR
STARTCHAR 212d
ENCODING 8493
SWIDTH	-8531 0
DWIDTH	34 0
BBX 34	35 0 -1
BITMAP
0000000000
0000000000
0000380000
0000fc0000
0003fe0000
001ff00000
007f000000
0000000000
0000000000
0000000000
0000000000
0000000000
0000000000
0000000000
0000000000
0000000000
0000000000
0000000000
0000000000
0000000000
0000000000
0000000000
0000000000
0000000000
0000000000
0000000000
0000000000
0000000000
0000000000
0000000000
0000000000
0000000000
0000000000
0000000000
0000000000
ENDCHAR
STARTCHAR 212e
ENCODING 8494
SWIDTH	-8531 0
DWIDTH	34 0
BBX 34	35 0 -1
BITMAP
0000000000
0000000000
0007000000
000fc00000
001ff00000
0003fe0000
00003f8000
0000000000
0000000000
0000000000
0000000000
0000000000
0000000000
0000000000
0000000000
0000000000
0000000000
0000000000
0000000000
0000000000
0000000000
0000000000
0000000000
0000000000
0000000000
0000000000
0000000000
0000000000
0000000000
0000000000
0000000000
0000000000
0000000000
0000000000
0000000000
ENDCHAR
STARTCHAR 212f
ENCODING 8495
SWIDTH	-8531 0
DWIDTH	34 0
BBX 34	35 0 -1
BITMAP
0000000000
0000000000
0000000000
001c0e0000
003e1f0000
003e1f0000
003e1f0000
001c0e0000
0000000000
0000000000
0000000000
0000000000
0000000000
0000000000
0000000000
0000000000
0000000000
0000000000
0000000000
0000000000
0000000000
0000000000
0000000000
0000000000
0000000000
0000000000
0000000000
0000000000
0000000000
0000000000
0000000000
0000000000
0000000000
0000000000
0000000000
ENDCHAR
STARTCHAR 2130
ENCODING 8496
SWIDTH	-8531 0
DWIDTH	34 0
BBX 34	35 0 -1
BITMAP
0000000000
0000000000
0000c00000
0001e00000
0003f00000
0007380000
000e1c0000
001c0e0000
0038070000
0000000000
0000000000
0000000000
0000000000
0000000000
0000000000
0000000000
0000000000
0000000000
0000000000
0000000000
0000000000
0000000000
0000000000
0000000000
0000000000
0000000000
0000000000
0000000000
0000000000
0000000000
0000000000
0000000000
0000000000
0000000000
0000000000
ENDCHAR
STARTCHAR 2131
ENCODING 8497
SWIDTH	-8531 0
DWIDTH	34 0
BBX 34	35 0 -1
BITMAP
0000000000
0000000000
7fffffff80
7fffffff80
0000000000
0000000000
0000000000
0000000000
0000000000
0000000000
0000000000
0000000000
0000000000
0000000000
0000000000
0000000000
0000000000
0000000000
0000000000
0000000000
0000000000
0000000000
0000000000
0000000000
0000000000
0000000000
0000000000
0000000000
0000000000
0000000000
0000000000
0000000000
0000000000
0000000000
0000000000
ENDCHAR
STARTCHAR 2132
ENCODING 8498
SWIDTH	-8531 0
DWIDTH	34 0
BBX 34	35 0 -1
BITMAP
0000000000
0000000000
0000000000
0000000000
0000000000
0000000000
0000000000
0000000000
0000000000
0000000000
0000000000
0000000000
0000000000
0000000000
0000000000
0000000000
0000000000
0000000000
0000000000
0000000000
0000000000
0000000000
0000000000
0000000000
0000000000
0000000000
0000000000
0000000000
0000000000
0000000000
0000000000
0000000000
7fffffff80
7fffffff80
0000000000
ENDCHAR
STARTCHAR 2133
ENCODING 8499
SWIDTH	-8531 0
DWIDTH	34 0
BBX 34	35 0 -1
BITMAP
0000000000
0000000000
0000000000
0000000000
0000000000
0000000000
0000000000
0000000000
0000000000
0000000000
0000000000
0030000000
001c000000
000f000000
0003c00000
0001e00000
0000f00000
0000780000
00003c0000
00003e0000
00001e0000
00001e0000
00000c0000
0000000000
0000000000
0000000000
0000000000
0000000000
0000000000
0000000000
0000000000
0000000000
0000000000
0000000000
0000000000
ENDCHAR
STARTCHAR 2134
ENCODING 8500
SWIDTH	-8531 0
DWIDTH	34 0
BBX 34	35 0 -1
BITMAP
0000000000
0000000000
0000000000
0000000000
0000000000
0000060000
0000078000
000003c000
000001c000
000018c000
00001e0000
00300f0000
001c070000
000f030000
0003c00000
0001e00000
0000f00000
0000780000
00003c0000
00003e0000
00001e0000
00001e0000
00000c0000
0000000000
0000000000
0000000000
0000000000
0000000000
0000000000
0000000000
0000000000
0000000000
0000000000
0000000000
0000000000
ENDCHAR
STARTCHAR 2135
ENCODING 8501
SWIDTH	-8531 0
DWIDTH	34 0
BBX 34	35 0 -1
BITMAP
0000000000
0000000000
0000000000
0000000000
0000000000
0000000000
0000000000
0000000000
0000000000
0000000000
0010000000
0018000000
000c000000
0006000000
0007000000
0003800000
0001c00000
0000e00000
0000f00000
0000780000
00003e0000
00001f0000
00000f8000
00000fc000
00001fc000
0000fe0000
0007f00000
0007000000
0000000000
0000000000
0000000000
0000000000
0000000000
0000000000
0000000000
ENDCHAR
STARTCHAR 2136
ENCODING 8502
SWIDTH	-8531 0
DWIDTH	34 0
BBX 34	35 0 -1
BITMAP
0000000000
0000000000
0000000000
0000000000
0000000000
0000000000
0000000000
0000000000
0000030000
000003c000
001019e000
00181ee000
000c0f6000
0006070000
0007030000
0003800000
0001c00000
0000e00000
0000f00000
0000780000
00003e0000
00001f0000
00000f8000
00000fc000
00001fc000
0000fe0000
0007f00000
0007000000
0000000000
0000000000
0000000000
0000000000
0000000000
0000000000
0000000000
ENDCHAR
STARTCHAR 2137
ENCODING 8503
SWIDTH	-8531 0
DWIDTH	34 0
BBX 34	35 0 -1
BITMAP
0000000000
0000000000
0000000000
0000000000
0000000000
0000000000
0000000000
0000000000
0006060000
0007070000
0007878000
000f0f0000
000f0f0000
000e0e0000
001e1e0000
001c1c0000
001c1c0000
0038380000
0038380000
0070700000
0070700000
0060600000
00e0e00000
00c0c00000
0080800000
0000000000
0000000000
0000000000
0000000000
0000000000
0000000000
0000000000
0000000000
0000000000
0000000000
ENDCHAR
STARTCHAR 2138
ENCODING 8504
SWIDTH	-8531 0
DWIDTH	34 0
BBX 34	35 0 -1
BITMAP
0000000000
0000000000
0000800000
0001f00000
0001e00000
0003e00000
0007f00000
000f380000
000e1c0000
001e1e0000
003c0f0000
0078078000
00f003c000
01e001e000
03c000f800
0780007c00
0f00013f00
1e00039f00
39ffffce00
60ffffc400
0001c00000
0001c00000
0001c00000
0001c00000
0001c00000
0001c00000
0001c00000
0001c00000
0001c00400
0001c00e00
3fffffff00
1fffffff00
0000000000
0000000000
0000000000
ENDCHAR
STARTCHAR 2139
ENCODING 8505
SWIDTH	-8531 0
DWIDTH	34 0
BBX 34	35 0 -1
BITMAP
0000000000
0000000000
0000000000
0000000000
0000000000
0000000000
0003000000
0003800000
0003c00000
0003800000
000387e000
0007fff000
0007f87800
000e007000
000e00e000
001c00c000
001801c000
0030018000
0070030000
00e0070000
01c00e0000
03861c0000
0707b80000
0601f00000
0000700000
0000380000
00001c0000
00000e0000
00000f0000
0000070000
0000020000
0000000000
0000000000
0000000000
0000000000
ENDCHAR
STARTCHAR 213a
ENCODING 8506
SWIDTH	-8531 0
DWIDTH	34 0
BBX 34	35 0 -1
BITMAP
0000000000
0000000000
0000000000
0000000000
0000038000
000003c000
000001e000
000001e000
000000e000
000001c000
000001c000
0000038000
0000070000
001f870000
007fee0000
00e0fc0000
00c03c0000
01c03e0000
01c07f0000
0180e78000
0381c3c000
030381e000
030700f000
070e006000
071c000000
0638000000
0e70000000
0ee0000000
0fc0000000
1f80000000
0e00000000
0400000000
0000000000
0000000000
0000000000
ENDCHAR
STARTCHAR 213b
ENCODING 8507
SWIDTH	-8531 0
DWIDTH	34 0
BBX 34	35 0 -1
BITMAP
0000000000
0000000000
0000000000
0000000000
0000000000
0000000000
0000000000
0007f80000
003fff0000
00f807c000
01c000e000
0380007000
0700003800
0600001800
0600001800
0c00000c00
0c00000c00
0c00000c00
0c00000c00
0c00000c00
0c00000c00
0600001800
0600001800
0700003800
0380007000
01c000e000
00f807c000
003fff0000
0007f80000
0000000000
0000000000
0000000000
0000000000
0000000000
0000000000
ENDCHAR
STARTCHAR 213c
ENCODING 8508
SWIDTH	-8531 0
DWIDTH	34 0
BBX 34	35 0 -1
BITMAP
0000000000
0000000000
0000000000
0000000000
0000000000
0000000000
0000000000
0000000000
0000000000
0000000000
0000000000
0000000000
0000000000
0800000000
0c00000000
0ffffff800
07fffffc00
03ffffe000
0180000000
0000000000
0000000000
0000000000
0000000000
0000000000
0000000000
0000000000
0000000000
0000000000
0000000000
0000000000
0000000000
0000000000
0000000000
0000000000
0000000000
ENDCHAR
STARTCHAR 213d
ENCODING 8509
SWIDTH	-8531 0
DWIDTH	34 0
BBX 34	35 0 -1
BITMAP
0000000000
0000000000
0000000000
0000000000
0000000000
0000000000
0000000000
0000000000
0000000000
0000000000
0000000000
0000000000
0000000000
0000000000
0000000000
0000000000
1ffffffe00
1ffffffe00
0000000000
0000000000
0000000000
0000000000
0000000000
0000000000
0000000000
0000000000
0000000000
0000000000
0000000000
0000000000
0000000000
0000000000
0000000000
0000000000
0000000000
ENDCHAR
STARTCHAR 213e
ENCODING 8510
SWIDTH	-8531 0
DWIDTH	34 0
BBX 34	35 0 -1
BITMAP
0000000000
0000000000
0000000000
0000000000
0000000000
0000000000
0000000000
0000000000
0000000000
0000000000
0000000000
0000000000
0000000000
0000000000
0000000000
0000000000
0000000000
001ffe0000
001ffe0000
0000000000
0000000000
0000000000
0000000000
0000000000
0000000000
0000000000
0000000000
0000000000
0000000000
0000000000
0000000000
0000000000
0000000000
0000000000
0000000000
ENDCHAR
STARTCHAR 213f
ENCODING 8511
SWIDTH	-8531 0
DWIDTH	34 0
BBX 34	35 0 -1
BITMAP
0000000000
0000000000
0000000180
0000000300
0000000600
0000000c00
0000001800
0000003000
0000006000
000000c000
0000018000
0000030000
0000060000
00000c0000
0000180000
0000300000
0000600000
0000c00000
0001800000
0003000000
0006000000
000c000000
0018000000
0030000000
0060000000
00c0000000
0180000000
0300000000
0600000000
0c00000000
1800000000
3000000000
6000000000
4000000000
0000000000
ENDCHAR
STARTCHAR 2140
ENCODING 8512
SWIDTH	-8531 0
DWIDTH	34 0
BBX 34	35 0 -1
BITMAP
0000000000
0000000000
6000000000
3000000000
1800000000
0c00000000
0600000000
0300000000
0180000000
00c0000000
0060000000
0030000000
0018000000
000c000000
0006000000
0003000000
0001800000
0000c00000
0000600000
0000300000
0000180000
00000c0000
0000060000
0000030000
0000018000
000000c000
0000006000
0000003000
0000001800
0000000c00
0000000600
0000000300
0000000180
0000000080
0000000000
ENDCHAR
STARTCHAR 2141
ENCODING 8513
SWIDTH	-8531 0
DWIDTH	34 0
BBX 34	35 0 -1
BITMAP
0000000000
0000000000
0000000000
0000000000
0000000000
0000000000
0000000000
0000000000
0000000000
0000000000
0000000000
0000000000
0000000000
0000000000
00fc000000
03ff000600
0f03c00e00
1c00f03c00
18003ff000
00000fc000
0000000000
0000000000
0000000000
0000000000
0000000000
0000000000
0000000000
0000000000
0000000000
0000000000
0000000000
0000000000
0000000000
0000000000
0000000000
ENDCHAR
STARTCHAR 2142
ENCODING 8514
SWIDTH	-8531 0
DWIDTH	34 0
BBX 34	35 0 -1
BITMAP
0000000000
0000000000
0006180000
0006180000
0006180000
0006180000
0006180000
0006180000
0006180000
0006180000
0006180000
0006180000
0006180000
0006180000
0006180000
0006180000
0006180000
0006180000
0006180000
0006180000
0006180000
0006180000
0006180000
0006180000
0006180000
0006180000
0006180000
0006180000
0006180000
0006180000
0006180000
0006180000
0006180000
0006180000
0000000000
ENDCHAR
STARTCHAR 2143
ENCODING 8515
SWIDTH	-8531 0
DWIDTH	34 0
BBX 34	35 0 -1
BITMAP
0000000000
0000000000
0000c00000
0000c00000
0000c00000
0000c00000
0000c00000
0000c00000
0000c00000
0000c00000
0000c00000
0000c00000
0000c00000
0000c00000
0000c00000
0000c00000
0000c00000
0000c00000
0000c00000
0000c00000
0000c00000
0000c00000
0000c00000
0000c00000
0000c00000
0000c00000
0000c00000
0000c00000
0000c00000
0000c00000
0000c00000
0000c00000
0000c00000
0000c00000
0000000000
ENDCHAR
STARTCHAR 2144
ENCODING 8516
SWIDTH	-8531 0
DWIDTH	34 0
BBX 34	35 0 -1
BITMAP
0000000000
0000000000
0000000000
0000000000
0000000000
0000000000
0000000000
0000000000
0000000000
0000000000
0000000000
0000000000
0000000000
0000000000
0000000000
0380e03800
07c1f07c00
07c1f07c00
07c1f07c00
0380e03800
0000000000
0000000000
0000000000
0000000000
0000000000
0000000000
0000000000
0000000000
0000000000
0000000000
0000000000
0000000000
0000000000
0000000000
0000000000
ENDCHAR
STARTCHAR 2145
ENCODING 8517
SWIDTH	-8531 0
DWIDTH	34 0
BBX 34	35 0 -1
BITMAP
0000000000
0000000000
0000000000
0000000000
0000000000
0000000000
0000000000
0000000000
0000000000
0000000000
0000000000
0000000000
0000000000
0000000000
0000000000
00e001c000
01f003e000
01f003e000
01f003e000
00e001c000
0000000000
0000000000
0000000000
0000000000
0000000000
0000000000
0000000000
0000000000
0000000000
0000000000
0000000000
0000000000
0000000000
0000000000
0000000000
ENDCHAR
STARTCHAR 2146
ENCODING 8518
SWIDTH	-8531 0
DWIDTH	34 0
BBX 34	35 0 -1
BITMAP
0000000000
0000000000
0000003000
0000006000
000000e000
000000f000
000000f800
000000f800
000000f800
0000007000
0000000000
0000000000
0000000000
0000000000
0000000000
0000000000
0000000000
0000000000
0000000000
0000000000
0000000000
0000000000
0000000000
0000000000
0000000000
0000000000
0000000000
0000000000
0000000000
0000000000
0000000000
0000000000
0000000000
0000000000
0000000000
ENDCHAR
STARTCHAR 2147
ENCODING 8519
SWIDTH	-8531 0
DWIDTH	34 0
BBX 34	35 0 -1
BITMAP
0000000000
0000000000
0380000000
07c0000000
07c0000000
07c0000000
03c0000000
01c0000000
0180000000
0300000000
0000000000
0000000000
0000000000
0000000000
0000000000
0000000000
0000000000
0000000000
0000000000
0000000000
0000000000
0000000000
0000000000
0000000000
0000000000
0000000000
0000000000
0000000000
0000000000
0000000000
0000000000
0000000000
0000000000
0000000000
0000000000
ENDCHAR
STARTCHAR 2148
ENCODING 8520
SWIDTH	-8531 0
DWIDTH	34 0
BBX 34	35 0 -1
BITMAP
0000000000
0000000000
0000181800
0000303000
0000707000
0000787800
00007c7c00
00007c7c00
00007c7c00
0000383800
0000000000
0000000000
0000000000
0000000000
0000000000
0000000000
0000000000
0000000000
0000000000
0000000000
0000000000
0000000000
0000000000
0000000000
0000000000
0000000000
0000000000
0000000000
0000000000
0000000000
0000000000
0000000000
0000000000
0000000000
0000000000
ENDCHAR
STARTCHAR 2149
ENCODING 8521
SWIDTH	-8531 0
DWIDTH	34 0
BBX 34	35 0 -1
BITMAP
0000000000
0000000000
0707000000
0f8f800000
0f8f800000
0f8f800000
0787800000
0383800000
0303000000
0606000000
0000000000
0000000000
0000000000
0000000000
0000000000
0000000000
0000000000
0000000000
0000000000
0000000000
0000000000
0000000000
0000000000
0000000000
0000000000
0000000000
0000000000
0000000000
0000000000
0000000000
0000000000
0000000000
0000000000
0000000000
0000000000
ENDCHAR
STARTCHAR 214a
ENCODING 8522
SWIDTH	-8531 0
DWIDTH	34 0
BBX 34	35 0 -1
BITMAP
0000000000
0000000000
0000000400
0000000c00
0000001800
0000003800
0000003000
0000007000
0000006000
000000e000
000000c000
000001c000
000001c000
0000018000
0000018000
0000038000
0000038000
0000038000
0000038000
0000038000
0000038000
0000018000
0000018000
000001c000
000001c000
000000c000
000000e000
0000006000
0000007000
0000003000
0000003800
0000001800
0000000c00
0000000400
0000000000
ENDCHAR
STARTCHAR 214b
ENCODING 8523
SWIDTH	-8531 0
DWIDTH	34 0
BBX 34	35 0 -1
BITMAP
0000000000
0000000000
0800000000
0c00000000
0600000000
0700000000
0300000000
0380000000
0180000000
01c0000000
00c0000000
00e0000000
00e0000000
0060000000
0060000000
0070000000
0070000000
0070000000
0070000000
0070000000
0070000000
0060000000
0060000000
00e0000000
00e0000000
00c0000000
01c0000000
0180000000
0380000000
0300000000
0700000000
0600000000
0c00000000
0800000000
0000000000
ENDCHAR
STARTCHAR 214c
ENCODING 8524
SWIDTH	-8531 0
DWIDTH	34 0
BBX 34	35 0 -1
BITMAP
0000000000
0000000000
0000000600
0000001e00
0000007800
000001e000
0000018000
0000018000
0000018000
0000018000
0000018000
0000018000
0000018000
0000018000
0000018000
0000018000
0000018000
0000018000
0000018000
0000018000
0000018000
0000018000
0000018000
0000018000
0000018000
0000018000
0000018000
0000018000
0000018000
0000018000
000001e000
0000007800
0000001e00
0000000600
0000000000
ENDCHAR
STARTCHAR 214d
ENCODING 8525
SWIDTH	-8531 0
DWIDTH	34 0
BBX 34	35 0 -1
BITMAP
0000000000
0000000000
1800000000
1e00000000
0780000000
01e0000000
0060000000
0060000000
0060000000
0060000000
0060000000
0060000000
0060000000
0060000000
0060000000
0060000000
0060000000
0060000000
0060000000
0060000000
0060000000
0060000000
0060000000
0060000000
0060000000
0060000000
0060000000
0060000000
0060000000
0060000000
01e0000000
0780000000
1e00000000
1800000000
0000000000
ENDCHAR
STARTCHAR 214e
ENCODING 8526
SWIDTH	-8531 0
DWIDTH	34 0
BBX 34	35 0 -1
BITMAP
0000000000
0000000000
000003fc00
000003fc00
0000030000
0000030000
0000030000
0000030000
0000030000
0000030000
0000030000
0000030000
0000030000
0000030000
0000030000
0000030000
0000030000
0000030000
0000030000
0000030000
0000030000
0000030000
0000030000
0000030000
0000030000
0000030000
0000030000
0000030000
0000030000
0000030000
0000030000
0000030000
000003fc00
000003fc00
0000000000
ENDCHAR
STARTCHAR 214f
ENCODING 8527
SWIDTH	-8531 0
DWIDTH	34 0
BBX 34	35 0 -1
BITMAP
0000000000
0000000000
0ff0000000
0ff0000000
0030000000
0030000000
0030000000
0030000000
0030000000
0030000000
0030000000
0030000000
0030000000
0030000000
0030000000
0030000000
0030000000
0030000000
0030000000
0030000000
0030000000
0030000000
0030000000
0030000000
0030000000
0030000000
0030000000
0030000000
0030000000
0030000000
0030000000
0030000000
0ff0000000
0ff0000000
0000000000
ENDCHAR
STARTCHAR 2150
ENCODING 8528
SWIDTH	-8531 0
DWIDTH	34 0
BBX 34	35 0 -1
BITMAP
0000000000
0000000000
0000001e00
0000003e00
0000007000
0000006000
000000e000
000000e000
000000e000
000000e000
0000006000
0000007000
0000007000
0000007000
0000007000
0000006000
0000006000
000003c000
000003c000
0000006000
0000006000
0000007000
0000007000
0000007000
0000007000
0000006000
000000e000
000000e000
000000e000
000000e000
0000006000
0000007000
0000003e00
0000001e00
0000000000
ENDCHAR
STARTCHAR 2151
ENCODING 8529
SWIDTH	-8531 0
DWIDTH	34 0
BBX 34	35 0 -1
BITMAP
0000000000
0000000000
1e00000000
1f00000000
0380000000
0180000000
01c0000000
01c0000000
01c0000000
01c0000000
0180000000
0380000000
0380000000
0380000000
0380000000
0180000000
0180000000
00f0000000
00f0000000
0180000000
0180000000
0380000000
0380000000
0380000000
0380000000
0180000000
01c0000000
01c0000000
01c0000000
01c0000000
0180000000
0380000000
1f00000000
1e00000000
0000000000
ENDCHAR
STARTCHAR 2152
ENCODING 8530
SWIDTH	-8531 0
DWIDTH	34 0
BBX 34	35 0 -1
BITMAP
0000000000
0000000000
0000000400
0000000c00
0000000c00
0000001800
0000001800
0000003000
0000003000
0000006000
0000006000
000000c000
000000c000
0000018000
0000018000
0000030000
0000030000
0000060000
0000060000
0000030000
0000030000
0000018000
0000018000
000000c000
000000c000
0000006000
0000006000
0000003000
0000003000
0000001800
0000001800
0000000c00
0000000c00
0000000400
0000000000
ENDCHAR
STARTCHAR 2153
ENCODING 8531
SWIDTH	-8531 0
DWIDTH	34 0
BBX 34	35 0 -1
BITMAP
0000000000
0000000000
0800000000
0c00000000
0c00000000
0600000000
0600000000
0300000000
0300000000
0180000000
0180000000
00c0000000
00c0000000
0060000000
0060000000
0030000000
0030000000
0018000000
0018000000
0030000000
0030000000
0060000000
0060000000
00c0000000
00c0000000
0180000000
0180000000
0300000000
0300000000
0600000000
0600000000
0c00000000
0c00000000
0800000000
0000000000
ENDCHAR
STARTCHAR 2154
ENCODING 8532
SWIDTH	-8531 0
DWIDTH	34 0
BBX 34	35 0 -1
BITMAP
0000000000
0000000000
0000008400
0000018c00
0000018c00
0000031800
0000031800
0000063000
0000063000
00000c6000
00000c6000
000018c000
000018c000
0000318000
0000318000
0000630000
0000630000
0000c60000
0000c60000
0000630000
0000630000
0000318000
0000318000
000018c000
000018c000
00000c6000
00000c6000
0000063000
0000063000
0000031800
0000031800
0000018c00
0000018c00
0000008400
0000000000
ENDCHAR
STARTCHAR 2155
ENCODING 8533
SWIDTH	-8531 0
DWIDTH	34 0
BBX 34	35 0 -1
BITMAP
0000000000
0000000000
0840000000
0c60000000
0c60000000
0630000000
0630000000
0318000000
0318000000
018c000000
018c000000
00c6000000
00c6000000
0063000000
0063000000
0031800000
0031800000
0018c00000
0018c00000
0031800000
0031800000
0063000000
0063000000
00c6000000
00c6000000
018c000000
018c000000
0318000000
0318000000
0630000000
0630000000
0c60000000
0c60000000
0840000000
0000000000
ENDCHAR
STARTCHAR 2156
ENCODING 8534
SWIDTH	-8531 0
DWIDTH	34 0
BBX 34	35 0 -1
BITMAP
0000000000
0000000000
00000ffc00
00000ffc00
00000c0000
00000c0000
00000c0000
00000c0000
00000c0000
00000c0000
00000c0000
00000c0000
00000c0000
00000c0000
00000c0000
00000c0000
00000c0000
00000c0000
00000c0000
00000c0000
00000c0000
00000c0000
0000000000
0000000000
0000000000
0000000000
0000000000
0000000000
0000000000
0000000000
0000000000
0000000000
0000000000
0000000000
0000000000
ENDCHAR
STARTCHAR 2157
ENCODING 8535
SWIDTH	-8531 0
DWIDTH	34 0
BBX 34	35 0 -1
BITMAP
0000000000
0000000000
0000000000
0000000000
0000000000
0000000000
0000000000
0000000000
0000000000
0000000000
0000000000
0000000000
0000000000
0000000000
000c000000
000c000000
000c000000
000c000000
000c000000
000c000000
000c000000
000c000000
000c000000
000c000000
000c000000
000c000000
000c000000
000c000000
000c000000
000c000000
000c000000
000c000000
0ffc000000
0ffc000000
0000000000
ENDCHAR
STARTCHAR 2158
ENCODING 8536
SWIDTH	-8531 0
DWIDTH	34 0
BBX 34	35 0 -1
BITMAP
0000000000
0000000000
0000fffc00
0000fffc00
0000c00c00
0000c00c00
0000cffc00
0000cffc00
0000cc0000
0000cc0000
0000cc0000
0000cc0000
0000cc0000
0000cc0000
0000cc0000
0000cc0000
0000cc0000
0000cc0000
0000cc0000
0000cc0000
0000cc0000
0000fc0000
0000fc0000
0000000000
0000000000
0000000000
0000000000
0000000000
0000000000
0000000000
0000000000
0000000000
0000000000
0000000000
0000000000
ENDCHAR
STARTCHAR 2159
ENCODING 8537
SWIDTH	-8531 0
DWIDTH	34 0
BBX 34	35 0 -1
BITMAP
0000000000
0000000000
0000000000
0000000000
0000000000
0000000000
0000000000
0000000000
0000000000
0000000000
0000000000
0000000000
0000000000
000fc00000
000fc00000
000cc00000
000cc00000
000cc00000
000cc00000
000cc00000
000cc00000
000cc00000
000cc00000
000cc00000
000cc00000
000cc00000
000cc00000
000cc00000
0ffcc00000
0ffcc00000
0c00c00000
0c00c00000
0fffc00000
0fffc00000
0000000000
ENDCHAR
STARTCHAR 215a
ENCODING 8538
SWIDTH	-8531 0
DWIDTH	34 0
BBX 34	35 0 -1
BITMAP
0000000000
0000000000
00000ffc00
00000ff800
00000ff000
00000fe000
00000fe000
00000fc000
00000fc000
00000f8000
00000f8000
00000f0000
00000f0000
00000f0000
00000e0000
00000e0000
00000e0000
00000e0000
00000e0000
00000e0000
00000e0000
00000e0000
00000f0000
00000f0000
00000f0000
00000f8000
00000f8000
00000fc000
00000fc000
00000fe000
00000fe000
00000ff000
00000ff800
00000ffc00
0000000000
ENDCHAR
STARTCHAR 215b
ENCODING 8539
SWIDTH	-8531 0
DWIDTH	34 0
BBX 34	35 0 -1
BITMAP
0000000000
0000000000
0ffc000000
07fc000000
03fc000000
01fc000000
01fc000000
00fc000000
007c000000
007c000000
003c000000
003c000000
003c000000
001c000000
001c000000
001c000000
001c000000
001c000000
001c000000
001c000000
001c000000
001c000000
003c000000
003c000000
003c000000
007c000000
007c000000
00fc000000
00fc000000
01fc000000
01fc000000
03fc000000
07fc000000
0ffc000000
0000000000
ENDCHAR
STARTCHAR 215c
ENCODING 8540
SWIDTH	-8531 0
DWIDTH	34 0
BBX 34	35 0 -1
BITMAP
0000000000
0000000000
0000000000
0000000000
0000000000
0000000000
0000000000
0000c00000
0000c00000
0000c00000
0000c00000
0000c00000
0000c00000
0000c00000
0000c00000
0000c00000
0000c00000
03fffff000
03fffff000
0000c00000
0000c00000
0000c00000
0000c00000
0000c00000
0000c00000
0000c00000
0000c00000
0000c00000
0000c00000
0000000000
0000000000
0000000000
0000000000
0000000000
0000000000
ENDCHAR
STARTCHAR 215d
ENCODING 8541
SWIDTH	-8531 0
DWIDTH	34 0
BBX 34	35 0 -1
BITMAP
0000000000
0000000000
0000000000
0000000000
0000000000
0000000000
0000000000
0000000000
0000000000
0000000000
0000000000
0000000000
0000000000
0000000000
0000000000
0000000000
0000000000
03fffff000
03fffff000
0000000000
0000000000
0000000000
0000000000
0000000000
0000000000
0000000000
0000000000
0000000000
0000000000
0000000000
0000000000
0000000000
0000000000
0000000000
0000000000
ENDCHAR
STARTCHAR 215e
ENCODING 8542
SWIDTH	-8531 0
DWIDTH	34 0
BBX 34	35 0 -1
BITMAP
0000000000
0000000000
0000000000
0000000000
0000c00000
0000c00000
0000c00000
0000c00000
0000c00000
0000c00000
0000c00000
0000c00000
0000c00000
0000c00000
03fffff000
03fffff000
0000c00000
0000c00000
0000c00000
0000c00000
0000c00000
0000c00000
0000c00000
0000c00000
0000c00000
0000c00000
0000000000
0000000000
0000000000
03fffff000
03fffff000
0000000000
0000000000
0000000000
0000000000
ENDCHAR
STARTCHAR 215f
ENCODING 8543
SWIDTH	-8531 0
DWIDTH	34 0
BBX 34	35 0 -1
BITMAP
0000000000
0000000000
0000000000
0000000000
0000000000
0000000000
0000000000
0100002000
0380007000
01c000e000
00e001c000
0070038000
0038070000
001c0e0000
000e1c0000
0007380000
0003f00000
0001e00000
0001e00000
0003f00000
0007380000
000e1c0000
001c0e0000
0038070000
0070038000
00e001c000
01c000e000
0380007000
0100002000
0000000000
0000000000
0000000000
0000000000
0000000000
0000000000
ENDCHAR
STARTCHAR 2160
ENCODING 8544
SWIDTH	-8531 0
DWIDTH	34 0
BBX 34	35 0 -1
BITMAP
0000000000
0000000000
0000000000
0000000000
0000000000
0000000000
0001c00000
0003e00000
0003e00000
0003e00000
0001c00000
0000000000
0000000000
0000000000
0000000000
0000000000
0ffffff800
0ffffff800
0000000000
0000000000
0000000000
0000000000
0000000000
0001c00000
0003e00000
0003e00000
0003e00000
0001c00000
0000000000
0000000000
0000000000
0000000000
0000000000
0000000000
0000000000
ENDCHAR
STARTCHAR 2161
ENCODING 8545
SWIDTH	-8531 0
DWIDTH	34 0
BBX 34	35 0 -1
BITMAP
0000000000
0000000000
0000000000
0000000000
0000000000
0000000000
0000000000
0000000000
0000000000
0000000000
0000000000
0000000000
0000000000
03fffff000
03fffff000
0000000000
0000000000
0000000000
0000000000
0000000000
03fffff000
03fffff000
0000000000
0000000000
0000000000
0000000000
0000000000
0000000000
0000000000
0000000000
0000000000
0000000000
0000000000
0000000000
0000000000
ENDCHAR
STARTCHAR 2162
ENCODING 8546
SWIDTH	-8531 0
DWIDTH	34 0
BBX 34	35 0 -1
BITMAP
0000000000
0000000000
0000000000
0000000000
0000000000
0000000000
0000000000
0000060000
0000060000
00000c0000
00000c0000
0000180000
0000180000
03fffff000
03fffff000
0000600000
0000600000
0000c00000
0000c00000
0001800000
03fffff000
03fffff000
0003000000
0006000000
0006000000
000c000000
000c000000
0018000000
0018000000
0000000000
0000000000
0000000000
0000000000
0000000000
0000000000
ENDCHAR
STARTCHAR 2163
ENCODING 8547
SWIDTH	-8531 0
DWIDTH	34 0
BBX 34	35 0 -1
BITMAP
0000000000
0000000000
0000000000
0000000000
0000000000
0000000000
000000c000
000003c000
0000070000
00001e0000
0000380000
0000f00000
0001c00000
0007800000
000e000000
003c000000
0070000000
01e0000000
01e0000000
0070000000
003c000000
000e000000
0007800000
0001c00000
0000f00000
0000380000
00001e0000
0000070000
000003c000
000000c000
0000000000
0000000000
0000000000
0000000000
0000000000
ENDCHAR
STARTCHAR 2164
ENCODING 8548
SWIDTH	-8531 0
DWIDTH	34 0
BBX 34	35 0 -1
BITMAP
0000000000
0000000000
0000000000
0000000000
0000000000
0000000000
00c0000000
00f0000000
0038000000
001e000000
0007000000
0003c00000
0000e00000
0000780000
00001c0000
00000f0000
0000038000
000001e000
000001e000
0000038000
00000f0000
00001c0000
0000780000
0000e00000
0003c00000
0007000000
001e000000
0038000000
00f0000000
00c0000000
0000000000
0000000000
0000000000
0000000000
0000000000
ENDCHAR
STARTCHAR 2165
ENCODING 8549
SWIDTH	-8531 0
DWIDTH	34 0
BBX 34	35 0 -1
BITMAP
0000000000
0000000000
0000000000
0000000000
0000000000
0000003800
000001f800
00000fc000
00007e0000
0003f00000
001f800000
00fc000000
07e0000000
07e0000000
00fc000000
001f800000
0003f00000
00007e0000
00000fc000
000001f800
0000003800
0000000000
0000000000
0000000000
07fffff800
07fffff800
0000000000
0000000000
0000000000
07fffff800
07fffff800
0000000000
0000000000
0000000000
0000000000
ENDCHAR
STARTCHAR 2166
ENCODING 8550
SWIDTH	-8531 0
DWIDTH	34 0
BBX 34	35 0 -1
BITMAP
0000000000
0000000000
0000000000
0000000000
0000000000
0700000000
07e0000000
00fc000000
001f800000
0003f00000
00007e0000
00000fc000
000001f800
000001f800
00000fc000
00007e0000
0003f00000
001f800000
00fc000000
07e0000000
0700000000
0000000000
0000000000
0000000000
07fffff800
07fffff800
0000000000
0000000000
0000000000
07fffff800
07fffff800
0000000000
0000000000
0000000000
0000000000
ENDCHAR
STARTCHAR 2167
ENCODING 8551
SWIDTH	-8531 0
DWIDTH	34 0
BBX 34	35 0 -1
BITMAP
0000000000
0000000000
0000000000
0000000000
0000000000
0000000000
0000000000
0000000000
0000000000
0000000000
0000000000
0000000000
00f003c000
03fc0ff000
070e1c3800
0607381800
0c03f00c00
0c01e00c00
0c01e00c00
0c03f00c00
0607381800
070e1c3800
03fc0ff000
00f003c000
0000000000
0000000000
0000000000
0000000000
0000000000
0000000000
0000000000
0000000000
0000000000
0000000000
0000000000
ENDCHAR
STARTCHAR 2168
ENCODING 8552
SWIDTH	-8531 0
DWIDTH	34 0
BBX 34	35 0 -1
BITMAP
0000000000
0000000000
0000000000
0000000000
0000000000
0000000000
0000000000
0001c00000
0003e00000
0003e00000
0003e00000
0001c00000
0000000000
0000000000
0000000000
0000000000
0000000000
0000000000
0000000000
0000000000
0000000000
01c001c000
03e003e000
03e003e000
03e003e000
01c001c000
0000000000
0000000000
0000000000
0000000000
0000000000
0000000000
0000000000
0000000000
0000000000
ENDCHAR
STARTCHAR 2169
ENCODING 8553
SWIDTH	-8531 0
DWIDTH	34 0
BBX 34	35 0 -1
BITMAP
0000000000
0000000000
0000000000
0000000000
0000c00000
0001e00000
0003f00000
0007f80000
000edc0000
001cce0000
0038c70000
0070c38000
00e0c1c000
01c0c0e000
0380c07000
0000c00000
0000c00000
0001e00000
0007f80000
000e1c0000
0018060000
0018060000
0030030000
0030030000
0030030000
0030030000
0018060000
0018060000
000e1c0000
0007f80000
0001e00000
0000000000
0000000000
0000000000
0000000000
ENDCHAR
STARTCHAR 216a
ENCODING 8554
SWIDTH	-8531 0
DWIDTH	34 0
BBX 34	35 0 -1
BITMAP
0000000000
0000000000
0000000000
0000000000
0000000000
0001e00000
0007f80000
000e1c0000
0018060000
0018060000
0030030000
0030030000
0030030000
0030030000
0018060000
0018060000
000e1c0000
0007f80000
0001e00000
0000c00000
0000c00000
0000c00000
01ffffe000
01ffffe000
0000c00000
0000c00000
0000c00000
0000c00000
0000c00000
0000c00000
0000c00000
0000c00000
0000000000
0000000000
0000000000
ENDCHAR
STARTCHAR 216b
ENCODING 8555
SWIDTH	-8531 0
DWIDTH	34 0
BBX 34	35 0 -1
BITMAP
0000000000
0000000000
1f00000000
3f80000000
71c0000000
60c0000000
60c0000000
60c0000000
71c0000000
3f80000000
1f00000000
0000000000
0000000000
0000000000
0000000000
0000000000
0000000000
0000000000
0000000000
0000000000
0000000000
0000000000
0000000000
0000000000
0000000000
0000000000
0000000000
0000000000
0000000000
0000000000
0000000000
0000000000
0000000000
0000000000
0000000000
ENDCHAR
STARTCHAR 216c
ENCODING 8556
SWIDTH	-8531 0
DWIDTH	34 0
BBX 34	35 0 -1
BITMAP
0000000000
0000000000
0100000000
0380000000
03c0000000
0780000000
0700000000
0e00000000
0c00000000
1800000000
1000000000
0000000000
0000000000
0000000000
0000000000
0000000000
0000000000
0000000000
0000000000
0000000000
0000000000
0000000000
0000000000
0000000000
0000000000
0000000000
0000000000
0000000000
0000000000
0000000000
0000000000
0000000000
0000000000
0000000000
0000000000
ENDCHAR
STARTCHAR 216d
ENCODING 8557
SWIDTH	-8531 0
DWIDTH	34 0
BBX 34	35 0 -1
BITMAP
0000000000
0000000000
0208000000
030c000000
079e000000
0f3c000000
0e38000000
1c70000000
1860000000
30c0000000
2080000000
0000000000
0000000000
0000000000
0000000000
0000000000
0000000000
0000000000
0000000000
0000000000
0000000000
0000000000
0000000000
0000000000
0000000000
0000000000
0000000000
0000000000
0000000000
0000000000
0000000000
0000000000
0000000000
0000000000
0000000000
ENDCHAR
STARTCHAR 216e
ENCODING 8558
SWIDTH	-8531 0
DWIDTH	34 0
BBX 34	35 0 -1
BITMAP
0000000000
0000000000
0000000000
1e00000000
3f00000000
7380000000
6180ff1800
6183ffd800
738781f800
3f0e007800
1e1c003800
0038001800
0038001800
0070000800
0070000800
00f0000000
00e0000000
00e0000000
00e0000000
00e0000000
00e0000000
00e0000000
00f0000000
0070000c00
0070000c00
0078001c00
0038001800
001c003800
001f007000
000783e000
0007ff8000
0000fe0000
0000000000
0000000000
0000000000
ENDCHAR
STARTCHAR 216f
ENCODING 8559
SWIDTH	-8531 0
DWIDTH	34 0
BBX 34	35 0 -1
BITMAP
0000000000
0000000000
0000000000
0000000000
0ffc01fc00
0ffc01fc00
00e0007000
00f000e000
007001c000
0038018000
003c030000
001c070000
000e0e0000
000f0c0000
0007180000
0003b80000
03fffff800
03fffff800
0000e00000
0000e00000
0000e00000
0000e00000
03fffff800
03fffff800
0000e00000
0000e00000
0000e00000
0000e00000
0000e00000
0000e00000
0007fc0000
0007fc0000
0000000000
0000000000
0000000000
ENDCHAR
STARTCHAR 2170
ENCODING 8560
SWIDTH	-8531 0
DWIDTH	34 0
BBX 34	35 0 -1
BITMAP
0000000000
0000000000
0000c00000
0000c00000
0000c00000
0007f80000
001ffe0000
003ccf0000
0038c30000
0078c78000
0070c78000
0070c78000
0078c30000
0038c00000
003ec00000
001fc00000
0007f00000
0003f80000
0000fe0000
0000df0000
0000c78000
0000c38000
0060c3c000
00f0c1c000
00f0c1c000
00f0c1c000
0060c3c000
0070c38000
003ccf8000
001fff0000
0007fc0000
0000c00000
0000c00000
0000c00000
0000000000
ENDCHAR
STARTCHAR 2171
ENCODING 8561
SWIDTH	-8531 0
DWIDTH	34 0
BBX 34	35 0 -1
BITMAP
0000000000
0000000000
0000018000
0000018000
0000030000
0000030000
0001ff0000
0007ff8000
000f07c000
001c06e000
00380c7000
00380cf000
00700cf000
0070186000
0070180000
00e0300000
00e0300000
00e0300000
00e0600000
00e0600000
00e0c00000
00e0c06000
00e1806000
006180e000
007180c000
003301c000
003b038000
001e0f0000
000ffe0000
0007f80000
000c000000
000c000000
0018000000
0018000000
0000000000
ENDCHAR
STARTCHAR 2172
ENCODING 8562
SWIDTH	-8531 0
DWIDTH	34 0
BBX 34	35 0 -1
BITMAP
0000000000
0000000000
0000000000
0000000000
0001f80000
0007fe0000
000f0f0000
001c038000
001c03c000
003807c000
003807c000
0038038000
0038000000
0038000000
0038000000
0038000000
07fffe0000
07fffe0000
001c000000
001c000000
001c000000
000e000000
000e000000
01ee000000
07fe001800
071f001800
0c0f803000
0c0fc07000
0c1ef0e000
073c7fe000
07f81fc000
01e00f0000
0000000000
0000000000
0000000000
ENDCHAR
STARTCHAR 2173
ENCODING 8563
SWIDTH	-8531 0
DWIDTH	34 0
BBX 34	35 0 -1
BITMAP
0000000000
0000000000
0000000000
0000000000
0078000600
01fe000e00
03e6001c00
0787003800
0703007000
0e0300e000
0e0301c000
0c07038000
0c07070000
0c0e0e0000
0e1e1c0000
067c380000
07f8700000
01e0e0f000
0001c3fc00
000387cc00
00070f0e00
000e0e0600
001c1c0600
00381c0600
0070180e00
00e0180e00
01c0181c00
03801c3c00
07000cf800
0e000ff000
1c0003c000
1800000000
0000000000
0000000000
0000000000
ENDCHAR
STARTCHAR 2174
ENCODING 8564
SWIDTH	-8531 0
DWIDTH	34 0
BBX 34	35 0 -1
BITMAP
0000000000
0000000000
0000000000
0000000000
0018060000
0018060000
0018060000
0018060000
0018060000
0018060000
0018060000
0018060000
0ffffff800
0ffffff800
00300c0000
00300c0000
00300c0000
00300c0000
00300c0000
00300c0000
00300c0000
00300c0000
0ffffff800
0ffffff800
0060180000
0060180000
0060180000
0060180000
0060180000
0060180000
0060180000
0060180000
0000000000
0000000000
0000000000
ENDCHAR
STARTCHAR 2175
ENCODING 8565
SWIDTH	-8531 0
DWIDTH	34 0
BBX 34	35 0 -1
BITMAP
0000000000
0000000000
0000000000
0000000000
003c000000
00ff000000
01e7800000
01c3800000
0381c00000
0381c00000
0381c00000
0381800000
01c3800000
01e7000000
00ee000000
007c000000
0078000000
00fc000000
03dc000000
070e0fe000
0e0f0fe000
0e07830000
1c03870000
1c01c60800
1c01ec0c00
1c00fc0c00
1c00780c00
0e00781800
0e00fc1800
0783df3800
03ff8ff000
00fe03e000
0000000000
0000000000
0000000000
ENDCHAR
STARTCHAR 2176
ENCODING 8566
SWIDTH	-8531 0
DWIDTH	34 0
BBX 34	35 0 -1
BITMAP
0000000000
0000000000
0000000000
0000000000
0000000000
0000000000
0000000000
0001c00000
0003e00000
0003e00000
0003e00000
00e1c38000
01f1c7c000
01f9cfc000
00f88f8000
007c9f0000
000eb80000
0003e00000
0003e00000
000eb80000
007c9f0000
00f88f8000
01f9cfc000
01f1c7c000
00e1c38000
0003e00000
0003e00000
0003e00000
0001c00000
0000000000
0000000000
0000000000
0000000000
0000000000
0000000000
ENDCHAR
STARTCHAR 2177
ENCODING 8567
SWIDTH	-8531 0
DWIDTH	34 0
BBX 34	35 0 -1
BITMAP
0000000000
0000000000
0000000000
0000000000
0007f00000
001ffc0000
00780f0000
00e0038000
01c001c000
038000e000
0303846000
060fee3000
061c7e3000
0e183e3800
0c300c1800
0c301c1800
0c601c1800
0c601c1800
0c60181800
0c60383800
0c30383000
0c30787000
0e38fce000
061fcfc000
0607070000
0300001000
0380003000
01c000e000
00e001c000
00780f8000
001ffe0000
0007f00000
0000000000
0000000000
0000000000
ENDCHAR
STARTCHAR 2178
ENCODING 8568
SWIDTH	-8531 0
DWIDTH	34 0
BBX 34	35 0 -1
BITMAP
0000000000
0000000000
0000000000
0001e00000
0007f80000
00061c0000
000c060000
000c0e0000
000c1e0000
00061e0000
00060c0000
0003000000
0001c00000
0003f00000
0006180000
00040c0000
000c040000
000c060000
000c060000
0004060000
0006040000
00030c0000
0001f80000
0000700000
0000380000
00000c0000
0006060000
000f060000
000f060000
000e060000
00070c0000
0003fc0000
0000f00000
0000000000
0000000000
ENDCHAR
STARTCHAR 2179
ENCODING 8569
SWIDTH	-8531 0
DWIDTH	34 0
BBX 34	35 0 -1
BITMAP
0000000000
0000000000
0000800000
0001c00000
0001c00000
0001c00000
0003600000
0003600000
0007700000
0006300000
000e380000
000c180000
001c1c0000
00180c0000
7ff80fff80
3ff007ff00
1e00001e00
0700003800
03c000f000
00e001c000
0070038000
0030030000
0070c38000
0061e18000
0063f18000
00e739c000
00ce1cc000
00dc0ec000
01f807e000
01f003e000
01e001e000
03c000f000
0380007000
0300003000
0000000000
ENDCHAR
STARTCHAR 217a
ENCODING 8570
SWIDTH	-8531 0
DWIDTH	34 0
BBX 34	35 0 -1
BITMAP
0000000000
0000000000
0000800000
0001c00000
0001c00000
0001c00000
0003e00000
0003e00000
0007f00000
0007f00000
000ff80000
000ff80000
001ffc0000
001ffc0000
7fffffff80
3fffffff00
1ffffffe00
07fffff800
03fffff000
00ffffc000
007fff8000
003fff0000
007fff8000
007fff8000
007fff8000
00ff3fc000
00fe1fc000
00fc0fc000
01f807e000
01f003e000
01e001e000
03c000f000
0380007000
0300003000
0000000000
ENDCHAR
STARTCHAR 217b
ENCODING 8571
SWIDTH	-8531 0
DWIDTH	34 0
BBX 34	35 0 -1
BITMAP
0000000000
0000000000
0000000000
0000000000
0007f80000
003fff0000
0078078000
01e001e000
0380007000
0300003000
0600001800
0e00001c00
0c00000c00
0c00000c00
1800000600
1800000600
1800000600
1800000600
1800000600
1800000600
1800000600
1800000600
0c00000c00
0c00000c00
0e00001c00
0600001800
0300003000
0380007000
01e001e000
0078078000
003fff0000
0007f80000
0000000000
0000000000
0000000000
ENDCHAR
STARTCHAR 217c
ENCODING 8572
SWIDTH	-8531 0
DWIDTH	34 0
BBX 34	35 0 -1
BITMAP
0000000000
0000000000
0000000000
0000000000
0007f80000
003fff0000
007fff8000
01ffffe000
03fffff000
03fffff000
07fffff800
0ffffffc00
0ffffffc00
0ffffffc00
1ffffffe00
1ffffffe00
1ffffffe00
1ffffffe00
1ffffffe00
1ffffffe00
1ffffffe00
1ffffffe00
0ffffffc00
0ffffffc00
0ffffffc00
07fffff800
03fffff000
03fffff000
01ffffe000
007fff8000
003fff0000
0007f80000
0000000000
0000000000
0000000000
ENDCHAR
STARTCHAR 217d
ENCODING 8573
SWIDTH	-8531 0
DWIDTH	34 0
BBX 34	35 0 -1
BITMAP
0000000000
0000000000
0000000000
0000000000
0007f80000
003fff0000
0078078000
01e001e000
0380007000
0303f03000
060ffc1800
0e3c0f1c00
0c30030c00
0c60018c00
1860018600
18c000c600
18c000c600
18c000c600
18c000c600
18c000c600
18c000c600
1860018600
0c60018c00
0c30030c00
0e3c0f1c00
060ffc1800
0303f03000
0380007000
01e001e000
0078078000
003fff0000
0007f80000
0000000000
0000000000
0000000000
ENDCHAR
STARTCHAR 217e
ENCODING 8574
SWIDTH	-8531 0
DWIDTH	34 0
BBX 34	35 0 -1
BITMAP
0000000000
0000000000
0000000000
0000400000
0000e00000
0001b00000
0003180000
00060c0000
000c060000
0018030000
0030018000
006000c000
00c0006000
0180003000
0300001800
0600000c00
0c00000600
1800000300
3000000180
1800000300
0c00000600
0600000c00
0300001800
0180003000
00c0006000
006000c000
0030018000
0018030000
000c060000
00060c0000
0003180000
0001b00000
0000e00000
0000400000
0000000000
ENDCHAR
STARTCHAR 2221
ENCODING 8737
SWIDTH	-8531 0
DWIDTH	34 0
BBX 34	35 0 -1
BITMAP
0000000000
0000000000
0000000000
0000400000
0000e00000
0001f00000
0003f80000
0007fc0000
000ffe0000
001fff0000
003fff8000
007fffc000
00ffffe000
01fffff000
03fffff800
07fffffc00
0ffffffe00
1fffffff00
3fffffff80
1fffffff00
0ffffffe00
07fffffc00
03fffff800
01fffff000
00ffffe000
007fffc000
003fff8000
001fff0000
000ffe0000
0007fc0000
0003f80000
0001f00000
0000e00000
0000400000
0000000000
ENDCHAR
STARTCHAR 2222
ENCODING 8738
SWIDTH	-8531 0
DWIDTH	34 0
BBX 34	35 0 -1
BITMAP
0000000000
0000000000
0000000000
0000000000
0000000000
0000000000
07fffff800
07fffff800
0600001800
0600001800
0600001800
0600001800
0600001800
0600001800
0600001800
0600001800
0600001800
0600001800
0600001800
0600001800
0600001800
0600001800
0600001800
0600001800
0600001800
0600001800
0600001800
0600001800
07fffff800
07fffff800
0000000000
0000000000
0000000000
0000000000
0000000000
ENDCHAR
STARTCHAR 2223
ENCODING 8739
SWIDTH	-8531 0
DWIDTH	34 0
BBX 34	35 0 -1
BITMAP
0000000000
0000000000
0000000000
0000000000
0000000000
0000000000
07fffff800
07fffff800
07fffff800
07fffff800
07fffff800
07fffff800
07fffff800
07fffff800
07fffff800
07fffff800
07fffff800
07fffff800
07fffff800
07fffff800
07fffff800
07fffff800
07fffff800
07fffff800
07fffff800
07fffff800
07fffff800
07fffff800
07fffff800
07fffff800
0000000000
0000000000
0000000000
0000000000
0000000000
ENDCHAR
STARTCHAR 2224
ENCODING 8740
SWIDTH	-8531 0
DWIDTH	34 0
BBX 34	35 0 -1
BITMAP
0000000000
0000000000
0000000000
0000000000
0000c00000
0000c00000
0001e00000
0001e00000
0003300000
0003300000
0006180000
0006180000
000c0c0000
000c0c0000
0018060000
0018060000
0030030000
0030030000
0060018000
0060018000
00c000c000
00c000c000
0180006000
0180006000
0300003000
0300003000
0600001800
0600001800
0c00000c00
0ffffffc00
1ffffffe00
0000000000
0000000000
0000000000
0000000000
ENDCHAR
STARTCHAR 2225
ENCODING 8741
SWIDTH	-8531 0
DWIDTH	34 0
BBX 34	35 0 -1
BITMAP
0000000000
0000000000
0000000000
0000000000
0000c00000
0000c00000
0001e00000
0001e00000
0003f00000
0003f00000
0007f80000
0007f80000
000ffc0000
000ffc0000
001ffe0000
001ffe0000
003fff0000
003fff0000
007fff8000
007fff8000
00ffffc000
00ffffc000
01ffffe000
01ffffe000
03fffff000
03fffff000
07fffff800
07fffff800
0ffffffc00
0ffffffc00
1ffffffe00
0000000000
0000000000
0000000000
0000000000
ENDCHAR
STARTCHAR 2226
ENCODING 8742
SWIDTH	-8531 0
DWIDTH	34 0
BBX 34	35 0 -1
BITMAP
0000000000
0000000000
0000000000
0000000000
0000000000
1ffffffe00
0ffffffc00
0c00000c00
0600001800
0600001800
0300003000
0300003000
0180006000
0180006000
00c000c000
00c000c000
0060018000
0060018000
0030030000
0030030000
0018060000
0018060000
000c0c0000
000c0c0000
0006180000
0006180000
0003300000
0003300000
0001e00000
0001e00000
0000c00000
0000c00000
0000000000
0000000000
0000000000
ENDCHAR
STARTCHAR 2227
ENCODING 8743
SWIDTH	-8531 0
DWIDTH	34 0
BBX 34	35 0 -1
BITMAP
0000000000
0000000000
0000000000
0000000000
0000000000
1ffffffe00
0ffffffc00
0ffffffc00
07fffff800
07fffff800
03fffff000
03fffff000
01ffffe000
01ffffe000
00ffffc000
00ffffc000
007fff8000
007fff8000
003fff0000
003fff0000
001ffe0000
001ffe0000
000ffc0000
000ffc0000
0007f80000
0007f80000
0003f00000
0003f00000
0001e00000
0001e00000
0000c00000
0000c00000
0000000000
0000000000
0000000000
ENDCHAR
STARTCHAR 2228
ENCODING 8744
SWIDTH	-8531 0
DWIDTH	34 0
BBX 34	35 0 -1
BITMAP
0000000000
0000000000
0000000000
0000000000
0000000000
0400e00800
0e01f01c00
0701f03800
0381f07000
01c0e0e000
00e001c000
0070038000
0038070000
001c0e0000
000e1c0000
0007380000
0703f03800
0f81e07c00
0f81e07c00
0f83f07c00
0707383800
000e1c0000
001c0e0000
0038070000
0070038000
00e001c000
01c0e0e000
0381f07000
0701f03800
0e01f01c00
0400e00800
0000000000
0000000000
0000000000
0000000000
ENDCHAR
STARTCHAR 2229
ENCODING 8745
SWIDTH	-8531 0
DWIDTH	34 0
BBX 34	35 0 -1
BITMAP
0000000000
0000000000
0000000000
0000000000
0ffffffc00
0ffffffc00
0000000000
0000000000
0000000000
0000000000
0000000000
0000000000
0ffffffc00
0ffffffc00
0000c00000
0000c00000
0000c00000
0000c00000
0000c00000
0000c00000
0000c00000
0000c00000
0000c00000
0000c00000
0000c00000
0000c00000
0000c00000
0000c00000
0000c00000
0000c00000
0000c00000
0000c00000
0000000000
0000000000
0000000000
ENDCHAR
STARTCHAR 222a
ENCODING 8746
SWIDTH	-8531 0
DWIDTH	34 0
BBX 34	35 0 -1
BITMAP
0000000000
0000000000
0000000000
0000000000
0000000000
0000000000
0000000000
0000000000
0000000000
0000000000
0000004000
0000006000
0000007000
0000003800
0000001c00
0000000e00
0000000700
7fffffff80
7fffffff80
0000000700
0000000e00
0000001c00
0000003800
0000007000
0000006000
0000004000
0000000000
0000000000
0000000000
0000000000
0000000000
0000000000
0000000000
0000000000
0000000000
ENDCHAR
STARTCHAR 222b
ENCODING 8747
SWIDTH	-8531 0
DWIDTH	34 0
BBX 34	35 0 -1
BITMAP
0000000000
0000000000
0000000000
0000000000
0000000000
0000000000
0000000000
0000000000
0000000000
0000000000
0080000000
0180000000
0380000000
0700000000
0e00000000
1c00000000
3800000000
7fffffff80
7fffffff80
3800000000
1c00000000
0e00000000
0700000000
0380000000
0180000000
0080000000
0000000000
0000000000
0000000000
0000000000
0000000000
0000000000
0000000000
0000000000
0000000000
ENDCHAR
STARTCHAR 222c
ENCODING 8748
SWIDTH	-8531 0
DWIDTH	34 0
BBX 34	35 0 -1
BITMAP
0000000000
0000000000
0000c00000
0001e00000
0003f00000
0007f80000
000edc0000
001cce0000
0038c70000
0070c38000
0000c00000
0000c00000
0000c00000
0000c00000
0000c00000
0000c00000
0000c00000
0000c00000
0000c00000
0000c00000
0000c00000
0000c00000
0000c00000
0000c00000
0000c00000
0000c00000
0000c00000
0000c00000
0000c00000
0000c00000
0000c00000
0000c00000
0000c00000
0000c00000
0000000000
ENDCHAR
STARTCHAR 222d
ENCODING 8749
SWIDTH	-8531 0
DWIDTH	34 0
BBX 34	35 0 -1
BITMAP
0000000000
0000000000
0000c00000
0000c00000
0000c00000
0000c00000
0000c00000
0000c00000
0000c00000
0000c00000
0000c00000
0000c00000
0000c00000
0000c00000
0000c00000
0000c00000
0000c00000
0000c00000
0000c00000
0000c00000
0000c00000
0000c00000
0000c00000
0000c00000
0000c00000
0000c00000
0070c38000
0038c70000
001cce0000
000edc0000
0007f80000
0003f00000
0001e00000
0000c00000
0000000000
ENDCHAR
STARTCHAR 222e
ENCODING 8750
SWIDTH	-8531 0
DWIDTH	34 0
BBX 34	35 0 -1
BITMAP
0000000000
0000000000
0000000000
0000000000
0000000000
0000000000
0000000000
0000000000
0000000000
1ffffffe00
1ffffffe00
1ffffffe00
1ffffffe00
1ffffffe00
1ffffffe00
0000000000
0000000000
0000000000
0000000000
0000000000
1ffffffe00
1ffffffe00
1ffffffe00
1ffffffe00
1ffffffe00
1ffffffe00
0000000000
0000000000
0000000000
0000000000
0000000000
0000000000
0000000000
0000000000
0000000000
ENDCHAR
STARTCHAR 223a
ENCODING 8762
SWIDTH	-8531 0
DWIDTH	34 0
BBX 34	35 0 -1
BITMAP
0000000000
0000000000
0000000000
0000000000
0000000000
0000000000
0000000000
0000000000
001ffff800
007ffff800
01e0000000
0180000000
0300000000
0300000000
0600000000
0600000000
0600000000
07fffff800
07fffff800
0600000000
0600000000
0600000000
0300000000
0300000000
0180000000
01e0000000
007ffff800
001ffff800
0000000000
0000000000
0000000000
0000000000
0000000000
0000000000
0000000000
ENDCHAR
STARTCHAR 223b
ENCODING 8763
SWIDTH	-8531 0
DWIDTH	34 0
BBX 34	35 0 -1
BITMAP
0000000000
0000000000
0000000000
0000000000
0000000000
0000000000
0000000000
0000000000
07fffe0000
07ffff8000
000001e000
0000006000
0000003000
0000003000
0000001800
0000001800
0000001800
07fffff800
07fffff800
0000001800
0000001800
0000001800
0000003000
0000003000
0000006000
000001e000
07ffff8000
07fffe0000
0000000000
0000000000
0000000000
0000000000
0000000000
0000000000
0000000000
ENDCHAR
STARTCHAR 223c
ENCODING 8764
SWIDTH	-8531 0
DWIDTH	34 0
BBX 34	35 0 -1
BITMAP
0000000000
0000000000
0000000000
0000000000
0000000000
0000000000
003ffff800
00fffff800
01c0000000
0380000000
0300000000
0600000000
0600000000
0600000000
0600000000
0600000000
0600000000
0600000000
0300000000
0380000000
01c0000000
00fffff800
003ffff800
0000000000
0000000000
0000000000
0000000000
0000000000
07fffff800
07fffff800
0000000000
0000000000
0000000000
0000000000
0000000000
ENDCHAR
STARTCHAR 223d
ENCODING 8765
SWIDTH	-8531 0
DWIDTH	34 0
BBX 34	35 0 -1
BITMAP
0000000000
0000000000
0000000000
0000000000
0000000000
0000000000
07ffff0000
07ffffc000
000000e000
0000007000
0000003000
0000001800
0000001800
0000001800
0000001800
0000001800
0000001800
0000001800
0000003000
0000007000
000000e000
07ffffc000
07ffff0000
0000000000
0000000000
0000000000
0000000000
0000000000
07fffff800
07fffff800
0000000000
0000000000
0000000000
0000000000
0000000000
ENDCHAR
STARTCHAR 223e
ENCODING 8766
SWIDTH	-8531 0
DWIDTH	34 0
BBX 34	35 0 -1
BITMAP
0000000000
0000000000
0000000000
0000000000
0000000000
0000000000
0000000000
0000000000
0000000000
001ffff800
007ffff800
01e0000000
0180000000
0300000000
0300000000
0600000000
0600000000
0600000000
0600000000
0600000000
0600000000
0300000000
0300000000
0180000000
01e0000000
007ffff800
001ffff800
0000000000
0000000000
0000000000
0000000000
0000000000
0000000000
0000000000
0000000000
ENDCHAR
STARTCHAR 223f
ENCODING 8767
SWIDTH	-8531 0
DWIDTH	34 0
BBX 34	35 0 -1
BITMAP
0000000000
0000000000
0000000000
0000000000
0000000000
0000000000
0000000000
0000000000
0000000000
07fffe0000
07ffff8000
000001e000
0000006000
0000003000
0000003000
0000001800
0000001800
0000001800
0000001800
0000001800
0000001800
0000003000
0000003000
0000006000
000001e000
07ffff8000
07fffe0000
0000000000
0000000000
0000000000
0000000000
0000000000
0000000000
0000000000
0000000000
ENDCHAR
STARTCHAR 2240
ENCODING 8768
SWIDTH	-8531 0
DWIDTH	34 0
BBX 34	35 0 -1
BITMAP
0000000000
0000000000
0000000000
0000000000
0000000000
0000000000
00c000c000
00c000c000
00c000c000
00c000c000
00c000c000
00c000c000
00c000c000
00c000c000
00c000c000
00c000c000
00c000c000
00c000c000
00c000c000
00c000c000
00c000c000
00c000c000
00c000c000
00c000c000
0060018000
0060018000
0030030000
003c0f0000
000ffc0000
0003f00000
0000000000
0000000000
0000000000
0000000000
0000000000
ENDCHAR
STARTCHAR 2241
ENCODING 8769
SWIDTH	-8531 0
DWIDTH	34 0
BBX 34	35 0 -1
BITMAP
0000000000
0000000000
0000000000
0000000000
0000000000
0000000000
0003f00000
000ffc0000
003c0f0000
0030030000
0060018000
0060018000
00c000c000
00c000c000
00c000c000
00c000c000
00c000c000
00c000c000
00c000c000
00c000c000
00c000c000
00c000c000
00c000c000
00c000c000
00c000c000
00c000c000
00c000c000
00c000c000
00c000c000
00c000c000
0000000000
0000000000
0000000000
0000000000
0000000000
ENDCHAR
STARTCHAR 224a
ENCODING 8778
SWIDTH	-8531 0
DWIDTH	34 0
BBX 34	35 0 -1
BITMAP
0000000000
0000000000
0000000000
0000000000
0000c00000
0000c00000
0001e00000
0001e00000
0003300000
0003300000
0006180000
0006180000
000c0c0000
000c0c0000
0018060000
0018060000
0030030000
0030030000
0060018000
0060018000
00c000c000
00c000c000
0180006000
0180006000
0300003000
0300003000
0600001800
0600001800
0c00000c00
0c00000c00
0000000000
0000000000
0000000000
0000000000
0000000000
ENDCHAR
STARTCHAR 224b
ENCODING 8779
SWIDTH	-8531 0
DWIDTH	34 0
BBX 34	35 0 -1
BITMAP
0000000000
0000000000
0000000000
0000000000
0000000000
0000000000
0c00000c00
0c00000c00
0600001800
0600001800
0300003000
0300003000
0180006000
0180006000
00c000c000
00c000c000
0060018000
0060018000
0030030000
0030030000
0018060000
0018060000
000c0c0000
000c0c0000
0006180000
0006180000
0003300000
0003300000
0001e00000
0001e00000
0000c00000
0000c00000
0000000000
0000000000
0000000000
ENDCHAR
STARTCHAR 224c
ENCODING 8780
SWIDTH	-8531 0
DWIDTH	34 0
BBX 34	35 0 -1
BITMAP
0000000000
0000000000
0000000000
0000000000
0000000000
0000000000
0000000000
0000000000
0000000000
0000000000
0000000000
0000000000
0ffffffc00
0ffffffc00
0000000c00
0000000c00
0000000c00
0000000c00
0000000c00
0000000c00
0000000c00
0000000c00
0000000c00
0000000c00
0000000000
0000000000
0000000000
0000000000
0000000000
0000000000
0000000000
0000000000
0000000000
0000000000
0000000000
ENDCHAR
STARTCHAR 224d
ENCODING 8781
SWIDTH	-8531 0
DWIDTH	34 0
BBX 34	35 0 -1
BITMAP
0000000000
0000000000
0000000000
0000000000
0000000000
0000000000
0000000000
0000000000
0000020000
0000030000
0000018000
000000c000
0000006000
1ffffff000
1ffffff800
0000000c00
0000000600
0000000300
0000000180
0000000300
0000000600
0000000c00
1ffffff800
1ffffff000
0000006000
000000c000
0000018000
0000030000
0000020000
0000000000
0000000000
0000000000
0000000000
0000000000
0000000000
ENDCHAR
STARTCHAR 224e
ENCODING 8782
SWIDTH	-8531 0
DWIDTH	34 0
BBX 34	35 0 -1
BITMAP
0000000000
0000000000
0000000000
0000000000
0000000000
0000000000
0000000000
0000000000
0010020000
0030030000
0060018000
00c000c000
0180006000
03fffff000
07fffff800
0c00000c00
1800000600
3000000300
6000000180
3000000300
1800000600
0c00000c00
07fffff800
03fffff000
0180006000
00c000c000
0060018000
0030030000
0010020000
0000000000
0000000000
0000000000
0000000000
0000000000
0000000000
ENDCHAR
STARTCHAR 224f
ENCODING 8783
SWIDTH	-8531 0
DWIDTH	34 0
BBX 34	35 0 -1
BITMAP
0000000000
0000000000
0000000000
0000000000
0000000000
0000000000
0c00000c00
0c00000c00
0600001800
0600001800
0300003000
0300003000
0180006000
0180006000
00ffffc000
00ffffc000
0060018000
0060018000
0030030000
0030030000
0018060000
0018060000
000c0c0000
000c0c0000
0006180000
0006180000
0003300000
0003300000
0001e00000
0001e00000
0000c00000
0000c00000
0000000000
0000000000
0000000000
ENDCHAR
STARTCHAR 2250
ENCODING 8784
SWIDTH	-8531 0
DWIDTH	34 0
BBX 34	35 0 -1
BITMAP
0000000000
0000000000
0000000000
0000000000
0000000000
0000000000
0000000000
03ffffe000
03ffffe000
0000006000
0000006000
0000006000
0000006000
0000006000
0000006000
0000006000
0000006000
03ffffe000
03ffffe000
0000006000
0000006000
0000006000
0000006000
0000006000
0000006000
0000006000
0000006000
03ffffe000
03ffffe000
0000000000
0000000000
0000000000
0000000000
0000000000
0000000000
ENDCHAR
STARTCHAR 225c
ENCODING 8796
SWIDTH	-8531 0
DWIDTH	34 0
BBX 34	35 0 -1
BITMAP
0000000000
0000000000
0000000000
0000000000
0000000000
0000000000
0000001000
0000003800
0000007000
000000e000
000001c000
0000038000
0000070000
00000e0000
00001c0000
0000380000
0000700000
0000e00000
0001c00000
0003800000
0007000000
000e000000
001c000000
0038000000
0070000000
00e0000000
01c0000000
03fffff800
07fffff800
0000000000
0000000000
0000000000
0000000000
0000000000
0000000000
ENDCHAR
STARTCHAR 225d
ENCODING 8797
SWIDTH	-8531 0
DWIDTH	34 0
BBX 34	35 0 -1
BITMAP
0000000000
0000000000
0000000000
0000000000
0000000000
0000000000
0000c00000
0000c00000
0000c00000
0000c00000
0000c00000
0000c00000
0000c00000
0000c00000
0000c00000
0000c00000
0000c00000
0000c00000
0000c00000
0000c00000
0000c00000
0000c00000
0000c00000
0000c00000
0000c00000
0000c00000
0000c00000
07fffff800
07fffff800
0000000000
0000000000
0000000000
0000000000
0000000000
0000000000
ENDCHAR
STARTCHAR 225e
ENCODING 8798
SWIDTH	-8531 0
DWIDTH	34 0
BBX 34	35 0 -1
BITMAP
0000000000
0000000000
000ffc0000
007fff8000
03fffff000
0ff003fc00
3f00003f00
7800000780
6000000180
0000000000
0000000000
0000000000
0000000000
0000000000
0000000000
0000000000
0000000000
0000000000
0000000000
0000000000
0000000000
0000000000
0000000000
0000000000
0000000000
0000000000
0000000000
0000000000
0000000000
0000000000
0000000000
0000000000
0000000000
0000000000
0000000000
ENDCHAR
STARTCHAR 225f
ENCODING 8799
SWIDTH	-8531 0
DWIDTH	34 0
BBX 34	35 0 -1
BITMAP
0000000000
0000000000
0000000000
0000000000
0001f00000
0007fc0000
000ffe0000
001c0e0000
0018070000
0000070000
0000030000
0000030000
0000030000
0000030000
0000030000
0000030000
0007c30000
001ff30000
003c370000
00381f0000
00701e0000
00700e0000
00e00e0000
00e00e0000
00e01c0000
00e01c0000
00e03c0000
00f0380000
0070780000
0078f00000
003fe00000
000f800000
0000000000
0000000000
0000000000
ENDCHAR
STARTCHAR 2260
ENCODING 8800
SWIDTH	-8531 0
DWIDTH	34 0
BBX 34	35 0 -1
BITMAP
0000000000
0000000000
0000000000
0000000000
0000000000
0000000000
0ffffffc00
0ffffffc00
0700001800
0700001800
0380003000
0380003000
01c0006000
01c0006000
00e000c000
00e000c000
0070018000
0070018000
0038030000
0038030000
001c060000
001c060000
000e0c0000
000e0c0000
0007180000
0007180000
0003b00000
0003b00000
0001e00000
0001e00000
0000c00000
0000c00000
0000000000
0000000000
0000000000
ENDCHAR
STARTCHAR 2261
ENCODING 8801
SWIDTH	-8531 0
DWIDTH	34 0
BBX 34	35 0 -1
BITMAP
0000000000
0000000000
0000000000
0000000000
0000000000
0000000000
0000000000
0000000000
0000000000
03fffff000
03fffff000
0000000000
0000000000
0000000000
0000000000
0000000000
0000000000
03fffff000
03fffff000
0000000000
0000000000
0000000000
0000000000
0000000000
0000000000
03fffff000
03fffff000
0000000000
0000000000
0000000000
0000000000
0000000000
0000000000
0000000000
0000000000
ENDCHAR
STARTCHAR 2262
ENCODING 8802
SWIDTH	-8531 0
DWIDTH	34 0
BBX 34	35 0 -1
BITMAP
0000000000
0000000000
0000000000
0000000000
0000000000
001c000000
003e000000
003e000000
003e000000
001c000000
0000000000
0000000000
0000000000
03fffff000
03fffff000
0000000000
0000000000
0000000000
0000000000
0000000000
03fffff000
03fffff000
0000000000
0000000000
0000000000
00000e0000
00001f0000
00001f0000
00001f0000
00000e0000
0000000000
0000000000
0000000000
0000000000
0000000000
ENDCHAR
STARTCHAR 2263
ENCODING 8803
SWIDTH	-8531 0
DWIDTH	34 0
BBX 34	35 0 -1
BITMAP
0000000000
0000000000
0000000000
0000000000
0000000000
0000000000
00000c0300
00003c0f00
0000701c00
0001e07800
000380e000
000f03c000
001c070000
00781e0000
00e0380000
03c0f00000
0701c00000
1e07800000
1e07800000
0701c00000
03c0f00000
00e0380000
00781e0000
001c070000
000f03c000
000380e000
0001e07800
0000701c00
00003c0f00
00000c0300
0000000000
0000000000
0000000000
0000000000
0000000000
ENDCHAR
STARTCHAR 2264
ENCODING 8804
SWIDTH	-8531 0
DWIDTH	34 0
BBX 34	35 0 -1
BITMAP
0000000000
0000000000
0000000000
0000000000
0000000000
0000000000
300c000000
3c0f000000
0e03800000
0781e00000
01c0700000
00f03c0000
00380e0000
001e078000
000701c000
0003c0f000
0000e03800
0000781e00
0000781e00
0000e03800
0003c0f000
000701c000
001e078000
00380e0000
00f03c0000
01c0700000
0781e00000
0e03800000
3c0f000000
300c000000
0000000000
0000000000
0000000000
0000000000
0000000000
ENDCHAR
STARTCHAR 2265
ENCODING 8805
SWIDTH	-8531 0
DWIDTH	34 0
BBX 34	35 0 -1
BITMAP
0000000000
0000000000
00007fff80
00007fff80
0000600000
0000600000
0000c00000
0000c00000
0000c00000
0000c00000
0001800000
0001800000
0001800000
0001800000
0003000000
0003000000
0003000000
0003000000
0006000000
0006000000
0206000000
0706000000
0f0c000000
1f0c000000
398c000000
718c000000
6198000000
40d8000000
00d8000000
00d8000000
0070000000
0070000000
0070000000
0070000000
0000000000
ENDCHAR
STARTCHAR 2266
ENCODING 8806
SWIDTH	-8531 0
DWIDTH	34 0
BBX 34	35 0 -1
BITMAP
0000000000
0000000000
0000000000
0000000000
0000000000
0000000000
0000000000
0000000000
0000000000
0000000000
0000000000
007803c000
01f80ff000
03801c3800
0600300c00
0600300c00
0c00600600
0c00600600
0c00c00600
0c00c00600
0601800c00
0601800c00
0387003800
01fe03f000
007803c000
0000000000
0000000000
0000000000
0000000000
0000000000
0000000000
0000000000
0000000000
0000000000
0000000000
ENDCHAR
STARTCHAR 2267
ENCODING 8807
SWIDTH	-8531 0
DWIDTH	34 0
BBX 34	35 0 -1
BITMAP
0000000000
0000000000
0000000000
0000000000
0000000000
0000000000
0000000000
0000000000
0000000000
0000000000
0000000000
007803c000
01fe0ff000
03871c3800
0601b00c00
0601b00800
0c00e00000
0c00e00000
0c00e00000
0c00e00000
0601b00800
0601b00c00
03871c3800
01fe0ff000
007803c000
0000000000
0000000000
0000000000
0000000000
0000000000
0000000000
0000000000
0000000000
0000000000
0000000000
ENDCHAR
STARTCHAR 2268
ENCODING 8808
SWIDTH	-8531 0
DWIDTH	34 0
BBX 34	35 0 -1
BITMAP
0000000000
0000000000
0000000000
0000000000
0000000000
0000000000
0000000000
0000000000
0000000000
0000000000
00e000e000
01f001f000
01f001f000
01f001f000
00e000e000
0000000000
0000000000
0000000000
0000000000
0000000000
0000000000
0000000000
0000000000
0000000000
0000e00000
0001f00000
0001f00000
0001f00000
0000e00000
0000000000
0000000000
0000000000
0000000000
0000000000
0000000000
ENDCHAR
STARTCHAR 2269
ENCODING 8809
SWIDTH	-8531 0
DWIDTH	34 0
BBX 34	35 0 -1
BITMAP
0000000000
0000000000
00003c0000
00007e0000
00006c0000
0000e00000
0000c00000
0000c00000
0000c00000
0000c00000
0000c00000
0000c00000
0000c00000
0000c00000
0000c00000
0000c00000
0000c00000
0000c00000
0000c00000
0000c00000
0000c00000
0000c00000
0000c00000
0000c00000
0000c00000
0000c00000
0000c00000
0000c00000
0000c00000
0000c00000
0001c00000
000d800000
001f800000
000f000000
0000000000
ENDCHAR
STARTCHAR 226a
ENCODING 8810
SWIDTH	-8531 0
DWIDTH	34 0
BBX 34	35 0 -1
BITMAP
0000000000
0000000000
0003c78000
0007efc000
0006cd8000
000c180000
000c180000
000c180000
000c180000
000c180000
000c180000
000c180000
000c180000
000c180000
000c180000
000c180000
000c180000
000c180000
000c180000
000c180000
000c180000
000c180000
000c180000
000c180000
000c180000
000c180000
000c180000
000c180000
000c180000
000c180000
000c180000
00d9b00000
01fbf00000
00f1e00000
0000000000
ENDCHAR
STARTCHAR 2272
ENCODING 8818
SWIDTH	-8531 0
DWIDTH	34 0
BBX 34	35 0 -1
BITMAP
0000000000
0000000000
0001e00000
0003f00000
0003300000
0003300000
0003f00000
0001e00000
0000000000
0000c00000
0000c00000
0001e00000
0001e00000
0003700000
0003300000
0006380000
0006180000
000c1c0000
000c0c0000
00180e0000
0018060000
0030070000
0030030000
007fff8000
007fff8000
00c001c000
00c000c000
018000e000
0180006000
0300007000
1f8000fe00
1f8000fe00
0000000000
0000000000
0000000000
ENDCHAR
STARTCHAR 2273
ENCODING 8819
SWIDTH	-8531 0
DWIDTH	34 0
BBX 34	35 0 -1
BITMAP
0000000000
0000000000
0000000000
0700180000
0f80180000
18c0300000
18c0300000
3060600000
3060c00000
3060c00000
3061800000
3063000000
3063000000
3066000000
306c000000
18cc000000
18d9c03800
0fb3e07c00
073630c600
006630c600
006c198300
00cc198300
018c198300
018c198300
030c198300
060c198300
060c198300
0c0c198300
180c198300
180630c600
300630c600
3003e07c00
0001c03800
0000000000
0000000000
ENDCHAR
STARTCHAR 2274
ENCODING 8820
SWIDTH	-8531 0
DWIDTH	34 0
BBX 34	35 0 -1
BITMAP
0000000000
0000000000
0000060000
0000060000
0018060000
0018060000
0018063800
001807f800
00181ff800
0019ffc000
001ffe0000
00ffe60000
0ffe060000
0ff8060000
0f18060000
0018060000
0018060000
0018060000
0018060000
0018060000
0018060000
0018063800
001807f800
00181ff800
0019ffc000
001ffe0000
00ffe60000
0ffe060000
0ff8060000
0f18060000
0018060000
0018060000
0018000000
0018000000
0000000000
ENDCHAR
STARTCHAR 2275
ENCODING 8821
SWIDTH	-8531 0
DWIDTH	34 0
BBX 34	35 0 -1
BITMAP
0000000000
0000000000
0060000000
0060000000
0060000000
0060000000
0060000000
0060000000
0060000000
0060000000
0060000000
0060000000
0060000000
0060000000
0060fc0000
0067ff8000
007f07c000
007801e000
006000e000
006000f000
0060007000
0060007000
0060007000
0060007000
006000f000
006000e000
006001e000
006003c000
0060078000
00601f0000
00607c0000
0067f00000
007f800000
0078000000
0000000000
ENDCHAR
STARTCHAR 2276
ENCODING 8822
SWIDTH	-8531 0
DWIDTH	34 0
BBX 34	35 0 -1
BITMAP
0000000000
0000000000
0000c00000
0000e00000
0000e00000
0000f00000
0000f80000
0000dc0000
0000ce0000
0000c70000
0000c38000
0000c1e000
0000c0f000
0000c07800
0000c03800
0000c03c00
0000c01c00
0000c01c00
0000c01c00
0000c03800
0000c03800
0000c07000
0000c0e000
0000c1c000
0000c78000
0000c60000
003ec00000
00ffc00000
01ffc00000
03ffc00000
03ff800000
03ff800000
01ff000000
007c000000
0000000000
ENDCHAR
STARTCHAR 2277
ENCODING 8823
SWIDTH	-8531 0
DWIDTH	34 0
BBX 34	35 0 -1
BITMAP
0000000000
0000000000
0000c00000
0001e00000
0001e00000
0001e00000
0000c00000
0038c70000
007fff8000
007fff8000
0038c70000
0000c00000
0001e00000
0003f00000
0003f00000
0001e00000
0001e00000
0001e00000
0001e00000
0000c00000
0000c00000
0000c00000
0000c00000
0000c00000
0000c00000
0000c00000
0000c00000
0000c00000
0000c00000
0000c00000
0000c00000
0000c00000
0000c00000
0000c00000
0000000000
ENDCHAR
STARTCHAR 2278
ENCODING 8824
SWIDTH	-8531 0
DWIDTH	34 0
BBX 34	35 0 -1
BITMAP
0000000000
0000000000
0000c00000
0001e00000
0001e00000
0001e00000
0000c00000
0038c70000
007fff8000
007fff8000
0038c70000
0000c00000
0001e00000
0003f00000
0003f00000
0001e00000
0000c00000
0000c00000
0000c00000
0000c00000
0001e00000
0003f00000
0003f00000
0001e00000
0000c00000
0038c70000
007fff8000
007fff8000
0038c70000
0000c00000
0001e00000
0001e00000
0001e00000
0000c00000
0000000000
ENDCHAR
STARTCHAR 2279
ENCODING 8825
SWIDTH	-8531 0
DWIDTH	34 0
BBX 34	35 0 -1
BITMAP
0000000000
0000000000
0007ff8000
001fff8000
003fe18000
007fe18000
007fe18000
00ffe18000
00ffe18000
00ffe18000
00ffe18000
007fe18000
007fe18000
003fe18000
001fe18000
0007e18000
0000618000
0000618000
0000618000
0000618000
0000618000
0000618000
0000618000
0000618000
0000618000
0000618000
0000618000
0000618000
0000618000
0000618000
0000618000
0000618000
0000618000
0000618000
0000000000
ENDCHAR
STARTCHAR 227e
ENCODING 8830
SWIDTH	-8531 0
DWIDTH	34 0
BBX 34	35 0 -1
BITMAP
0000000000
0000000000
0003f00000
001ffe0000
007c0f8000
01e001e000
0380007000
0700003800
0e00001c00
0c00000c00
1800000600
1800000600
3000000300
3000000300
3000000300
6000000180
6000000180
6000000180
6000000180
6000000180
6000000180
3000000300
3000000300
3000000300
1800000600
1800000600
0c00000c00
0e00001c00
0700003800
0380007000
01e001e000
007c0f8000
001ffe0000
0003f00000
0000000000
ENDCHAR
STARTCHAR 2330
ENCODING 9008
SWIDTH	-8531 0
DWIDTH	34 0
BBX 34	35 0 -1
BITMAP
0000000000
0000000000
0000000000
0000000000
0007f00000
001ffc0000
003c1e0000
00780f0000
00f0078000
00e0038000
01e003c000
01c001c000
01c001c000
038000e000
038000e000
038000e000
038000e000
038000e000
038000e000
038000e000
038000e000
038000e000
038000e000
01c001c000
01c001c000
01e003c000
00e0038000
00f0078000
00780f0000
003c1e0000
001ffc0000
0007f00000
0000000000
0000000000
0000000000
ENDCHAR
STARTCHAR 2331
ENCODING 9009
SWIDTH	-8531 0
DWIDTH	34 0
BBX 34	35 0 -1
BITMAP
0000000000
0000000000
0000000000
0000000000
0001c00000
0003c00000
000fc00000
003fc00000
0079c00000
0001c00000
0001c00000
0001c00000
0001c00000
0001c00000
0001c00000
0001c00000
0001c00000
0001c00000
0001c00000
0001c00000
0001c00000
0001c00000
0001c00000
0001c00000
0001c00000
0001c00000
0001c00000
0001c00000
0001c00000
0001c00000
001ffc0000
001ffc0000
0000000000
0000000000
0000000000
ENDCHAR
STARTCHAR 2332
ENCODING 9010
SWIDTH	-8531 0
DWIDTH	34 0
BBX 34	35 0 -1
BITMAP
0000000000
0000000000
0000000000
0000000000
0007f80000
001ffe0000
007c0f8000
00f003c000
00e001c000
01e001e000
01f001e000
01f001e000
00f001e000
006003c000
000003c000
0000078000
00000f0000
00003e0000
0000fc0000
0001f80000
0007e00000
000f800000
001f000000
003c002000
0078002000
00f0006000
00e0006000
01c000e000
018000e000
03ffffe000
03ffffe000
03ffffe000
0000000000
0000000000
0000000000
ENDCHAR
STARTCHAR 2333
ENCODING 9011
SWIDTH	-8531 0
DWIDTH	34 0
BBX 34	35 0 -1
BITMAP
0000000000
0000000000
0000000000
0000000000
0007f00000
003ffc0000
007c1f0000
00f0078000
00e0038000
01e003c000
01f001c000
01f001c000
00e003c000
0000038000
0000078000
00001f0000
000ffc0000
000ffc0000
00003f0000
0000078000
000003c000
000001c000
000001e000
01c000e000
03e000e000
03e001e000
03c001e000
01e003c000
01f007c000
00fc1f8000
007fff0000
000ffc0000
0000000000
0000000000
0000000000
ENDCHAR
STARTCHAR 2334
ENCODING 9012
SWIDTH	-8531 0
DWIDTH	34 0
BBX 34	35 0 -1
BITMAP
0000000000
0000000000
0000000000
0000000000
00000e0000
00001e0000
00003e0000
00003e0000
00007e0000
0000ee0000
0001ce0000
00038e0000
00070e0000
00060e0000
000c0e0000
001c0e0000
00380e0000
00700e0000
00e00e0000
01c00e0000
03800e0000
07000e0000
07fffff800
07fffff800
00000e0000
00000e0000
00000e0000
00000e0000
00000e0000
00000e0000
0000ffc000
0000ffc000
0000000000
0000000000
0000000000
ENDCHAR
STARTCHAR 2335
ENCODING 9013
SWIDTH	-8531 0
DWIDTH	34 0
BBX 34	35 0 -1
BITMAP
0000000000
0000000000
0000000000
0000000000
00ffffc000
00ffffc000
00ffff8000
00c0000000
00c0000000
00c0000000
00c0000000
00c0000000
00c0000000
00c0000000
00c3f80000
00dffe0000
00ffff0000
00f80f8000
00e003c000
000001c000
000001e000
000000e000
000000e000
00c000e000
01e000e000
01e001e000
01f001c000
00f003c000
00f8078000
007e1f0000
001ffe0000
0007f80000
0000000000
0000000000
0000000000
ENDCHAR
STARTCHAR 2336
ENCODING 9014
SWIDTH	-8531 0
DWIDTH	34 0
BBX 34	35 0 -1
BITMAP
0000000000
0000000000
0000000000
0000000000
0003f80000
000fff0000
001fff8000
003e0fc000
007807c000
00f0038000
00e0000000
01e0000000
01c0000000
01c0000000
03c0000000
0381fc0000
038fff0000
039fff8000
03be07c000
03f001c000
03e001e000
03c000e000
03c000e000
03c000e000
01c000e000
01e001e000
00e001c000
00f003c000
0078078000
003f1f0000
001ffe0000
0003f00000
0000000000
0000000000
0000000000
ENDCHAR
STARTCHAR 2337
ENCODING 9015
SWIDTH	-8531 0
DWIDTH	34 0
BBX 34	35 0 -1
BITMAP
0000000000
0000000000
0000000000
0000000000
00ffffe000
00ffffe000
00ffffe000
00e000c000
01c001c000
01c0018000
0180038000
0180030000
0100070000
0000060000
00000e0000
00000c0000
00001c0000
0000380000
0000380000
0000700000
0000700000
0000e00000
0000e00000
0001e00000
0001c00000
0003c00000
0003c00000
0007800000
0007800000
0007800000
0007800000
0003000000
0000000000
0000000000
0000000000
ENDCHAR
STARTCHAR 2338
ENCODING 9016
SWIDTH	-8531 0
DWIDTH	34 0
BBX 34	35 0 -1
BITMAP
0000000000
0000000000
0000000000
0000000000
000ff80000
003ffe0000
007c1f0000
00f0078000
00e0038000
01c001c000
01c001c000
01e001c000
00e0038000
00f0078000
007c1f0000
003ffe0000
000ff80000
000ff80000
003ffe0000
00fc3f8000
01f00fc000
01c003c000
03c001e000
038001e000
038000e000
038000e000
03c000e000
01e001c000
01f003c000
00fc0f8000
003ffe0000
000ff80000
0000000000
0000000000
0000000000
ENDCHAR
STARTCHAR 2339
ENCODING 9017
SWIDTH	-8531 0
DWIDTH	34 0
BBX 34	35 0 -1
BITMAP
0000000000
0000000000
0000000000
0000000000
0007f00000
003ffc0000
007c3e0000
00f00f0000
01e0078000
01c0038000
03c003c000
038001c000
038001e000
038001e000
038001e000
03c003e000
01c007e000
01f03ee000
00fffce000
007ff8e000
001fc0e000
000001e000
000001c000
000001c000
000003c000
0000038000
00e0078000
01f00f0000
01f83e0000
00fffc0000
007ff80000
000fe00000
0000000000
0000000000
0000000000
ENDCHAR
STARTCHAR 2341
ENCODING 9025
SWIDTH	-8531 0
DWIDTH	34 0
BBX 34	35 0 -1
BITMAP
0000000000
0000000000
0000000000
0000400000
0000c00000
0000e00000
0001e00000
0001f00000
0001f00000
0003700000
0003380000
0003380000
0006380000
00061c0000
000c1c0000
000c0e0000
00180e0000
00180e0000
0018070000
0030070000
0030070000
007fff8000
007fff8000
00c001c000
00c001c000
00c001c000
018000e000
018000e000
030000e000
0300007000
1fc003fe00
1fc003fe00
0000000000
0000000000
0000000000
ENDCHAR
STARTCHAR 2342
ENCODING 9026
SWIDTH	-8531 0
DWIDTH	34 0
BBX 34	35 0 -1
BITMAP
0000000000
0000000000
0000000000
0000000000
03fffe0000
03ffff8000
007003c000
007001c000
007000e000
007000e000
007000e000
007000e000
007000e000
007001c000
007003c000
00700f8000
007ffe0000
007fff8000
007003e000
007000f000
0070007000
0070003800
0070003800
0070003800
0070003800
0070003800
0070007000
007000f000
007001e000
00700fc000
03ffff0000
03fff80000
0000000000
0000000000
0000000000
ENDCHAR
STARTCHAR 2343
ENCODING 9027
SWIDTH	-8531 0
DWIDTH	34 0
BBX 34	35 0 -1
BITMAP
0000000000
0000000000
0000000000
0000000000
0003f00000
000ffc3000
003e1f3000
007807f000
00e001f000
01c000f000
01c0007000
0380003000
0380003000
0380000000
0700000000
0700000000
0700000000
0700000000
0700000000
0700000000
0700000000
0700000000
0380001800
0380001800
0380003000
01c0007000
01c0006000
00e000c000
007801c000
003e078000
000ffe0000
0003f80000
0000000000
0000000000
0000000000
ENDCHAR
STARTCHAR 2344
ENCODING 9028
SWIDTH	-8531 0
DWIDTH	34 0
BBX 34	35 0 -1
BITMAP
0000000000
0000000000
0000000000
0000000000
07fff00000
07fffe0000
00e00f8000
00e003c000
00e001e000
00e000e000
00e0007000
00e0007000
00e0007000
00e0003800
00e0003800
00e0003800
00e0003800
00e0003800
00e0003800
00e0003800
00e0003800
00e0003800
00e0003800
00e0007000
00e0007000
00e000f000
00e000e000
00e001c000
00e003c000
00e00f8000
07fffe0000
07fff00000
0000000000
0000000000
0000000000
ENDCHAR
STARTCHAR 2345
ENCODING 9029
SWIDTH	-8531 0
DWIDTH	34 0
BBX 34	35 0 -1
BITMAP
0000000000
0000000000
0000000000
0000000000
03ffffc000
03ffffe000
007000e000
0070006000
0070006000
0070006000
0070006000
0070000000
0070000000
0070180000
0070180000
0070380000
007ff80000
007ff80000
0070380000
0070180000
0070180000
0070180000
0070000000
0070000000
0070000000
0070006000
0070006000
0070006000
0070006000
007000e000
03ffffe000
03ffffc000
0000000000
0000000000
0000000000
ENDCHAR
STARTCHAR 2346
ENCODING 9030
SWIDTH	-8531 0
DWIDTH	34 0
BBX 34	35 0 -1
BITMAP
0000000000
0000000000
0000000000
0000000000
03ffffc000
03ffffe000
007000e000
0070006000
0070006000
0070006000
0070006000
0070000000
0070000000
0070180000
0070180000
0070380000
007ff80000
007ff80000
0070380000
0070180000
0070180000
0070180000
0070000000
0070000000
0070000000
0070000000
0070000000
0070000000
0070000000
0070000000
03fe000000
03fe000000
0000000000
0000000000
0000000000
ENDCHAR
STARTCHAR 2347
ENCODING 9031
SWIDTH	-8531 0
DWIDTH	34 0
BBX 34	35 0 -1
BITMAP
0000000000
0000000000
0000000000
0000000000
0007f06000
001ffc6000
007c1fe000
00f007e000
01c000e000
01c0006000
0380006000
0380006000
0380000000
0700000000
0700000000
0700000000
0700000000
0700000000
0700000000
070007fc00
070007fc00
070000e000
070000e000
038000e000
038000e000
038000e000
01c000e000
01e001e000
00f003e000
007c0fe000
001ffe6000
0007f86000
0000000000
0000000000
0000000000
ENDCHAR
STARTCHAR 2348
ENCODING 9032
SWIDTH	-8531 0
DWIDTH	34 0
BBX 34	35 0 -1
BITMAP
0000000000
0000000000
0000000000
0000000000
0ff80ff800
0ff80ff800
01c001c000
01c001c000
01c001c000
01c001c000
01c001c000
01c001c000
01c001c000
01c001c000
01c001c000
01c001c000
01ffffc000
01ffffc000
01c001c000
01c001c000
01c001c000
01c001c000
01c001c000
01c001c000
01c001c000
01c001c000
01c001c000
01c001c000
01c001c000
01c001c000
0ff80ff800
0ff80ff800
0000000000
0000000000
0000000000
ENDCHAR
STARTCHAR 2349
ENCODING 9033
SWIDTH	-8531 0
DWIDTH	34 0
BBX 34	35 0 -1
BITMAP
0000000000
0000000000
0000000000
0000000000
001ffc0000
001ffc0000
0001c00000
0001c00000
0001c00000
0001c00000
0001c00000
0001c00000
0001c00000
0001c00000
0001c00000
0001c00000
0001c00000
0001c00000
0001c00000
0001c00000
0001c00000
0001c00000
0001c00000
0001c00000
0001c00000
0001c00000
0001c00000
0001c00000
0001c00000
0001c00000
001ffc0000
001ffc0000
0000000000
0000000000
0000000000
ENDCHAR
STARTCHAR 234a
ENCODING 9034
SWIDTH	-8531 0
DWIDTH	34 0
BBX 34	35 0 -1
BITMAP
0000000000
0000000000
0000000000
0000000000
00007fe000
00007fe000
0000070000
0000070000
0000070000
0000070000
0000070000
0000070000
0000070000
0000070000
0000070000
0000070000
0000070000
0000070000
0000070000
0000070000
0000070000
0000070000
0000070000
00e0070000
01f0070000
01f0070000
01f0070000
00e00e0000
00e00e0000
00783c0000
003ff80000
000fe00000
0000000000
0000000000
0000000000
ENDCHAR
STARTCHAR 234b
ENCODING 9035
SWIDTH	-8531 0
DWIDTH	34 0
BBX 34	35 0 -1
BITMAP
0000000000
0000000000
0000000000
0000000000
0ff81ff000
0ff81ff000
01c0038000
01c0070000
01c00e0000
01c01c0000
01c0380000
01c0700000
01c0600000
01c0c00000
01c1c00000
01c3800000
01c7c00000
01cfe00000
01dce00000
01f8700000
01f0380000
01e0380000
01c01c0000
01c01e0000
01c00e0000
01c0070000
01c0070000
01c0038000
01c003c000
01c001c000
0ff80ffc00
0ff80ffc00
0000000000
0000000000
0000000000
ENDCHAR
STARTCHAR 234c
ENCODING 9036
SWIDTH	-8531 0
DWIDTH	34 0
BBX 34	35 0 -1
BITMAP
0000000000
0000000000
0000000000
0000000000
03fe000000
03fe000000
0070000000
0070000000
0070000000
0070000000
0070000000
0070000000
0070000000
0070000000
0070000000
0070000000
0070000000
0070000000
0070000000
0070000000
0070000000
0070000000
0070000000
0070000000
0070000000
0070003000
0070003000
0070003000
0070007000
0070007000
03fffff000
03ffffe000
0000000000
0000000000
0000000000
ENDCHAR
STARTCHAR 234d
ENCODING 9037
SWIDTH	-8531 0
DWIDTH	34 0
BBX 34	35 0 -1
BITMAP
0000000000
0000000000
0000000000
0000000000
1f00003e00
1f00003e00
0780007800
0780007800
07c000f800
07c000f800
06e001b800
06e001b800
0670033800
0670033800
0638063800
0638063800
061c0c3800
061c0c3800
060e183800
060e183800
0607303800
0607303800
0603e03800
0603e03800
0601c03800
0601c03800
0600803800
0600003800
0600003800
0600003800
3f8001ff00
3f8001ff00
0000000000
0000000000
0000000000
ENDCHAR
STARTCHAR 234e
ENCODING 9038
SWIDTH	-8531 0
DWIDTH	34 0
BBX 34	35 0 -1
BITMAP
0000000000
0000000000
0000000000
0000000000
07e001fc00
07f001fc00
01f0006000
01b8006000
01bc006000
019c006000
018e006000
018f006000
0187006000
0183806000
0183c06000
0181c06000
0180e06000
0180e06000
0180706000
0180786000
0180386000
01801c6000
01801e6000
01800e6000
0180076000
018007e000
018003e000
018001e000
018001e000
018000e000
07f0006000
07f0006000
0000000000
0000000000
0000000000
ENDCHAR
STARTCHAR 234f
ENCODING 9039
SWIDTH	-8531 0
DWIDTH	34 0
BBX 34	35 0 -1
BITMAP
0000000000
0000000000
0000000000
0000000000
0007f80000
001ffe0000
007c0f8000
0070038000
00e001c000
01c000e000
01c000e000
0380007000
0380007000
0380007000
0700003800
0700003800
0700003800
0700003800
0700003800
0700003800
0700003800
0700003800
0380007000
0380007000
0380007000
01c000e000
01c000e000
00e001c000
00f003c000
007c0f8000
001ffe0000
0007f80000
0000000000
0000000000
0000000000
ENDCHAR
STARTCHAR 2350
ENCODING 9040
SWIDTH	-8531 0
DWIDTH	34 0
BBX 34	35 0 -1
BITMAP
0000000000
0000000000
0000000000
0000000000
03fffc0000
03ffff0000
007007c000
007001e000
007000e000
0070007000
0070007000
0070007000
0070007000
0070007000
007000e000
007000e000
007001c000
00700f8000
007fff0000
007ff80000
0070000000
0070000000
0070000000
0070000000
0070000000
0070000000
0070000000
0070000000
0070000000
0070000000
03fe000000
03fe000000
0000000000
0000000000
0000000000
ENDCHAR
STARTCHAR 2351
ENCODING 9041
SWIDTH	-8531 0
DWIDTH	34 0
BBX 34	35 0 -1
BITMAP
0000000000
0000000000
0000000000
0000000000
0007f80000
001ffe0000
007c0f8000
0070038000
00e001c000
01c000e000
01c000e000
0380007000
0380007000
0380007000
0700003800
0700003800
0700003800
0700003800
0700003800
0700003800
0700003800
0700003800
0380007000
0381e07000
0387f87000
01cf3ce000
01fc0fe000
00f807c300
00f003c700
007c0f9e00
001ffffc00
0007f9f800
0000007000
0000000000
0000000000
ENDCHAR
STARTCHAR 2352
ENCODING 9042
SWIDTH	-8531 0
DWIDTH	34 0
BBX 34	35 0 -1
BITMAP
0000000000
0000000000
0000000000
0000000000
03fffc0000
03ffff0000
0070078000
007003c000
007001c000
007001e000
007000e000
007000e000
007000e000
007001e000
007001c000
007003c000
00701f8000
007ffe0000
007ff80000
00703c0000
00701c0000
00700e0000
00700e0000
0070070000
0070070000
0070038000
0070038000
007001c000
007001e000
007000f000
03fe07fc00
03fe07fc00
0000000000
0000000000
0000000000
ENDCHAR
STARTCHAR 2353
ENCODING 9043
SWIDTH	-8531 0
DWIDTH	34 0
BBX 34	35 0 -1
BITMAP
0000000000
0000000000
0000000000
0000000000
0007fc6000
001fff6000
003c07e000
007801e000
007000e000
00e0006000
00e0006000
00e0000000
00e0000000
0070000000
007c000000
003f000000
000ff00000
0003fe0000
00007f8000
00000fc000
000003e000
000000e000
0000007000
00c0007000
00c0007000
00c0007000
00e000f000
00f000e000
00fc01e000
00ff07c000
00c7ff0000
00c1fc0000
0000000000
0000000000
0000000000
ENDCHAR
STARTCHAR 2354
ENCODING 9044
SWIDTH	-8531 0
DWIDTH	34 0
BBX 34	35 0 -1
BITMAP
0000000000
0000000000
0000000000
0000000000
07fffff000
0ffffff800
0e01c03800
0e01c03800
0c01c01800
0c01c01800
0c01c01800
0001c00000
0001c00000
0001c00000
0001c00000
0001c00000
0001c00000
0001c00000
0001c00000
0001c00000
0001c00000
0001c00000
0001c00000
0001c00000
0001c00000
0001c00000
0001c00000
0001c00000
0001c00000
0001c00000
000ff80000
000ff80000
0000000000
0000000000
0000000000
ENDCHAR
STARTCHAR 2355
ENCODING 9045
SWIDTH	-8531 0
DWIDTH	34 0
BBX 34	35 0 -1
BITMAP
0000000000
0000000000
0000000000
0000000000
0ff803fc00
0ff803fc00
01c0006000
01c0006000
01c0006000
01c0006000
01c0006000
01c0006000
01c0006000
01c0006000
01c0006000
01c0006000
01c0006000
01c0006000
01c0006000
01c0006000
01c0006000
01c0006000
01c0006000
01c0006000
01c0006000
00e000c000
00e000c000
00f0018000
0078038000
003c0f0000
001ffe0000
0007f80000
0000000000
0000000000
0000000000
ENDCHAR
STARTCHAR 2356
ENCODING 9046
SWIDTH	-8531 0
DWIDTH	34 0
BBX 34	35 0 -1
BITMAP
0000000000
0000000000
0000000000
0000000000
0ff803fc00
0ff803fc00
01c0006000
00e0006000
00e000c000
00e000c000
007000c000
0070018000
0070018000
0038030000
0038030000
0038030000
001c060000
001c060000
001c060000
000e0c0000
000e0c0000
000e180000
0007180000
0007180000
0007300000
0003b00000
0003e00000
0003e00000
0001e00000
0001c00000
0001c00000
0000800000
0000000000
0000000000
0000000000
ENDCHAR
STARTCHAR 2357
ENCODING 9047
SWIDTH	-8531 0
DWIDTH	34 0
BBX 34	35 0 -1
BITMAP
0000000000
0000000000
0000000000
0000000000
3fc7fc1f80
3fc7fc1f80
0e00f00600
0e00f00600
0e00f00c00
0701b80c00
0701b80c00
0701b80c00
0701b81800
03831c1800
03831c1800
03831c1800
03831c3000
01c60e3000
01c60e3000
01c60e3000
01c60e3000
00ec076000
00ec076000
00ec076000
00ec076000
00fc03e000
007803c000
007803c000
007003c000
0070018000
0030018000
0030018000
0000000000
0000000000
0000000000
ENDCHAR
STARTCHAR 2358
ENCODING 9048
SWIDTH	-8531 0
DWIDTH	34 0
BBX 34	35 0 -1
BITMAP
0000000000
0000000000
0000000000
0000000000
07f801fc00
07f801fc00
01e0007000
00f000e000
007000c000
0038018000
003c038000
001e070000
000e060000
00070c0000
00079c0000
0003f80000
0001f00000
0000e00000
0001f00000
0001f00000
0003380000
00073c0000
00061e0000
000c0e0000
001c0f0000
0038078000
007003c000
006001c000
00c001e000
01c000f000
07f803fc00
07f803fc00
0000000000
0000000000
0000000000
ENDCHAR
STARTCHAR 2359
ENCODING 9049
SWIDTH	-8531 0
DWIDTH	34 0
BBX 34	35 0 -1
BITMAP
0000000000
0000000000
0000000000
0000000000
0ffc01fc00
0ffc01fc00
00e0007000
00f000e000
007001c000
0038018000
003c030000
001c070000
000e0e0000
000f0c0000
0007180000
0003b80000
0003f00000
0001e00000
0000e00000
0000e00000
0000e00000
0000e00000
0000e00000
0000e00000
0000e00000
0000e00000
0000e00000
0000e00000
0000e00000
0000e00000
0007fc0000
0007fc0000
0000000000
0000000000
0000000000
ENDCHAR
STARTCHAR 235a
ENCODING 9050
SWIDTH	-8531 0
DWIDTH	34 0
BBX 34	35 0 -1
BITMAP
0000000000
0000000000
0000000000
0000000000
01fffff000
03fffff000
038001e000
038001c000
0300038000
0300078000
03000f0000
00000e0000
00001c0000
00003c0000
0000780000
0000700000
0000e00000
0001e00000
0003c00000
0003800000
0007000000
000f000000
001e000000
001c000000
0038000000
0078001800
00f0001800
00e0001800
01c0003800
03c0003800
07fffff800
07fffff000
0000000000
0000000000
0000000000
ENDCHAR
STARTCHAR 2361
ENCODING 9057
SWIDTH	-8531 0
DWIDTH	34 0
BBX 34	35 0 -1
BITMAP
0000000000
0000000000
0000000000
0000000000
0000000000
0000000000
0000000000
0000000000
0000000000
0000000000
0000000000
0000000000
0000000000
0000000000
0007e00000
001ff80000
003c1c0000
00780c0000
00780e0000
00300e0000
00000e0000
0003fe0000
000ffe0000
003c0e0000
00700e0000
00600e0000
00e00e0000
00e00e0000
00e00e1000
00703f3000
007ff7e000
001fc3c000
0000000000
0000000000
0000000000
ENDCHAR
STARTCHAR 2362
ENCODING 9058
SWIDTH	-8531 0
DWIDTH	34 0
BBX 34	35 0 -1
BITMAP
0000000000
0000000000
0000000000
0000000000
03f0000000
03f0000000
0070000000
0070000000
0070000000
0070000000
0070000000
0070000000
0070000000
0070000000
0071f80000
0077fe0000
007e070000
007c038000
007001c000
007001c000
007000e000
007000e000
007000e000
007000e000
007000e000
007000e000
007001c000
007001c000
007c038000
007e070000
0077fe0000
0061f80000
0000000000
0000000000
0000000000
ENDCHAR
STARTCHAR 2363
ENCODING 9059
SWIDTH	-8531 0
DWIDTH	34 0
BBX 34	35 0 -1
BITMAP
0000000000
0000000000
0000000000
0000000000
0000000000
0000000000
0000000000
0000000000
0000000000
0000000000
0000000000
0000000000
0000000000
0000000000
0003f00000
000ffc0000
001e1e0000
0038070000
0070078000
0070078000
00e0030000
00e0000000
00e0000000
00e0000000
00e0000000
00e0000000
0070018000
0070038000
0038070000
001e1e0000
000ffc0000
0003f00000
0000000000
0000000000
0000000000
ENDCHAR
STARTCHAR 2364
ENCODING 9060
SWIDTH	-8531 0
DWIDTH	34 0
BBX 34	35 0 -1
BITMAP
0000000000
0000000000
0000000000
0000000000
00003f0000
00003f0000
0000070000
0000070000
0000070000
0000070000
0000070000
0000070000
0000070000
0000070000
000fc70000
003ff70000
00783f0000
00e01f0000
01c0070000
01c0070000
0380070000
0380070000
0380070000
0380070000
0380070000
0380070000
01c0070000
01c0070000
00e01f0000
00f83f0000
003ff7e000
000fc7e000
0000000000
0000000000
0000000000
ENDCHAR
STARTCHAR 2365
ENCODING 9061
SWIDTH	-8531 0
DWIDTH	34 0
BBX 34	35 0 -1
BITMAP
0000000000
0000000000
0000000000
0000000000
0000000000
0000000000
0000000000
0000000000
0000000000
0000000000
0000000000
0000000000
0000000000
0000000000
0003f00000
000ffc0000
001e1e0000
0038070000
0070038000
0070038000
00e001c000
00ffffc000
00ffffc000
00e0000000
00e0000000
00e0000000
007000c000
007001c000
0038038000
001e0f0000
000ffe0000
0003f80000
0000000000
0000000000
0000000000
ENDCHAR
STARTCHAR 2366
ENCODING 9062
SWIDTH	-8531 0
DWIDTH	34 0
BBX 34	35 0 -1
BITMAP
0000000000
0000000000
0000000000
0000000000
0000f80000
0003fe0000
00038f0000
00070f0000
0007060000
0007000000
0007000000
0007000000
0007000000
0007000000
007ff80000
007ff80000
0007000000
0007000000
0007000000
0007000000
0007000000
0007000000
0007000000
0007000000
0007000000
0007000000
0007000000
0007000000
0007000000
0007000000
003fe00000
003fe00000
0000000000
0000000000
0000000000
ENDCHAR
STARTCHAR 2367
ENCODING 9063
SWIDTH	-8531 0
DWIDTH	34 0
BBX 34	35 0 -1
BITMAP
0000000000
0000000000
0000000000
0000000000
0000000000
0000000000
0000000000
0000000000
0000000000
0000000000
0000000000
0000000000
0000000000
0000000000
0007e78000
001fffc000
003c3c8000
00700e0000
00700e0000
00701e0000
003c3c0000
001ff80000
0007e00000
001e000000
0038000000
003ff80000
001fff0000
0078078000
00e001c000
00e001c000
00e001c000
007c078000
003fff0000
0007f80000
0000000000
ENDCHAR
STARTCHAR 2368
ENCODING 9064
SWIDTH	-8531 0
DWIDTH	34 0
BBX 34	35 0 -1
BITMAP
0000000000
0000000000
0000000000
0000000000
0000000000
03f0000000
03f0000000
0070000000
0070000000
0070000000
0070000000
0070000000
0070000000
0070000000
0070f80000
0077fe0000
007f0f0000
007c038000
0070038000
007001c000
007001c000
007001c000
007001c000
007001c000
007001c000
007001c000
007001c000
007001c000
007001c000
007001c000
03fe0ff800
03fe0ff800
0000000000
0000000000
0000000000
ENDCHAR
STARTCHAR 2369
ENCODING 9065
SWIDTH	-8531 0
DWIDTH	34 0
BBX 34	35 0 -1
BITMAP
0000000000
0000000000
0000000000
0000000000
0001c00000
0003e00000
0003e00000
0003e00000
0001c00000
0000000000
0000000000
0000000000
0000000000
0000000000
000fc00000
000fc00000
0001c00000
0001c00000
0001c00000
0001c00000
0001c00000
0001c00000
0001c00000
0001c00000
0001c00000
0001c00000
0001c00000
0001c00000
0001c00000
0001c00000
000ff80000
000ff80000
0000000000
0000000000
0000000000
ENDCHAR
STARTCHAR 236a
ENCODING 9066
SWIDTH	-8531 0
DWIDTH	34 0
BBX 34	35 0 -1
BITMAP
0000000000
0000000000
0000000000
0000000000
0000380000
00007c0000
00007c0000
00007c0000
0000380000
0000000000
0000000000
0000000000
0000000000
0000000000
0001f80000
0001f80000
0000380000
0000380000
0000380000
0000380000
0000380000
0000380000
0000380000
0000380000
0000380000
0000380000
0000380000
0038380000
007c380000
007c380000
0078700000
003cf00000
001fe00000
0007800000
0000000000
ENDCHAR
STARTCHAR 236b
ENCODING 9067
SWIDTH	-8531 0
DWIDTH	34 0
BBX 34	35 0 -1
BITMAP
0000000000
0000000000
0000000000
0000000000
03f0000000
03f0000000
0070000000
0070000000
0070000000
0070000000
0070000000
0070000000
0070000000
0070000000
00701fe000
00701fe000
0070070000
00700e0000
00701c0000
0070380000
0070700000
0071e00000
0073f00000
0077780000
007e380000
007c1c0000
00701e0000
00700e0000
0070070000
0070078000
03fe0ff000
03fe0ff800
0000000000
0000000000
0000000000
ENDCHAR
STARTCHAR 236c
ENCODING 9068
SWIDTH	-8531 0
DWIDTH	34 0
BBX 34	35 0 -1
BITMAP
0000000000
0000000000
0000000000
0000000000
000fc00000
000fc00000
0001c00000
0001c00000
0001c00000
0001c00000
0001c00000
0001c00000
0001c00000
0001c00000
0001c00000
0001c00000
0001c00000
0001c00000
0001c00000
0001c00000
0001c00000
0001c00000
0001c00000
0001c00000
0001c00000
0001c00000
0001c00000
0001c00000
0001c00000
0001c00000
000ff80000
000ff80000
0000000000
0000000000
0000000000
ENDCHAR
STARTCHAR 236d
ENCODING 9069
SWIDTH	-8531 0
DWIDTH	34 0
BBX 34	35 0 -1
BITMAP
0000000000
0000000000
0000000000
0000000000
0000000000
0000000000
0000000000
0000000000
0000000000
0000000000
0000000000
0000000000
0000000000
0000000000
3f1e07c000
3f7f9ff000
07e3b87800
07c1f03800
0700e01c00
0700e01c00
0700e01c00
0700e01c00
0700e01c00
0700e01c00
0700e01c00
0700e01c00
0700e01c00
0700e01c00
0700e01c00
0700e01c00
3fe3f87f00
3fe3f87f00
0000000000
0000000000
0000000000
ENDCHAR
STARTCHAR 236e
ENCODING 9070
SWIDTH	-8531 0
DWIDTH	34 0
BBX 34	35 0 -1
BITMAP
0000000000
0000000000
0000000000
0000000000
0000000000
0000000000
0000000000
0000000000
0000000000
0000000000
0000000000
0000000000
0000000000
0000000000
03f0f80000
03f7fe0000
007f0f0000
007c070000
0078038000
0070038000
0070038000
0070038000
0070038000
0070038000
0070038000
0070038000
0070038000
0070038000
0070038000
0070038000
03fe1ff000
03fe1ff000
0000000000
0000000000
0000000000
ENDCHAR
STARTCHAR 236f
ENCODING 9071
SWIDTH	-8531 0
DWIDTH	34 0
BBX 34	35 0 -1
BITMAP
0000000000
0000000000
0000000000
0000000000
0000000000
0000000000
0000000000
0000000000
0000000000
0000000000
0000000000
0000000000
0000000000
0000000000
0003f00000
000ffc0000
001e1e0000
0038070000
0070038000
0070038000
00f003c000
00e001c000
00e001c000
00e001c000
00e001c000
00f003c000
0070038000
0070038000
0038070000
001e1e0000
000ffc0000
0003f00000
0000000000
0000000000
0000000000
ENDCHAR
STARTCHAR 2370
ENCODING 9072
SWIDTH	-8531 0
DWIDTH	34 0
BBX 34	35 0 -1
BITMAP
0000000000
0000000000
0000000000
0000000000
0000000000
0000000000
0000000000
0000000000
0000000000
0000000000
0000000000
0000000000
0000000000
0000000000
00fc7c0000
00fdff0000
001f878000
001f03c000
001e01c000
001c01e000
001c00e000
001c00e000
001c00e000
001c01e000
001e01c000
001f03c000
001f878000
001dff0000
001c7c0000
001c000000
001c000000
001c000000
00ff800000
00ff800000
0000000000
ENDCHAR
STARTCHAR 2371
ENCODING 9073
SWIDTH	-8531 0
DWIDTH	34 0
BBX 34	35 0 -1
BITMAP
0000000000
0000000000
0000000000
0000000000
0000000000
0000000000
0000000000
0000000000
0000000000
0000000000
0000000000
0000000000
0000000000
0000000000
0007c30000
001ff70000
003c3f0000
00781f0000
00700f0000
00f0070000
00e0070000
00e0070000
00e0070000
00f0070000
00700f0000
00781f0000
003c3f0000
001ff70000
0007c70000
0000070000
0000070000
0000070000
00003fe000
00003fe000
0000000000
ENDCHAR
STARTCHAR 2372
ENCODING 9074
SWIDTH	-8531 0
DWIDTH	34 0
BBX 34	35 0 -1
BITMAP
0000000000
0000000000
0000000000
0000000000
0000000000
0000000000
0000000000
0000000000
0000000000
0000000000
0000000000
0000000000
0000000000
0000000000
00fc780000
00fdfe0000
001f8f0000
001f0f0000
001e0f0000
001c060000
001c000000
001c000000
001c000000
001c000000
001c000000
001c000000
001c000000
001c000000
001c000000
001c000000
00ff800000
00ff800000
0000000000
0000000000
0000000000
ENDCHAR
STARTCHAR 2373
ENCODING 9075
SWIDTH	-8531 0
DWIDTH	34 0
BBX 34	35 0 -1
BITMAP
0000000000
0000000000
0000000000
0000000000
0000000000
0000000000
0000000000
0000000000
0000000000
0000000000
0000000000
0000000000
0000000000
0000000000
0007e10000
001ff90000
003c1f0000
0070070000
0070030000
0078000000
003f000000
001fe00000
0007f80000
0000fe0000
00001f0000
0000070000
0060038000
0070038000
0078078000
007c0f0000
006ffe0000
0063f80000
0000000000
0000000000
0000000000
ENDCHAR
STARTCHAR 2374
ENCODING 9076
SWIDTH	-8531 0
DWIDTH	34 0
BBX 34	35 0 -1
BITMAP
0000000000
0000000000
0000000000
0000000000
0000000000
0000000000
0000000000
0000000000
0001000000
0003000000
0007000000
0007000000
0007000000
0007000000
007ffc0000
007ffc0000
0007000000
0007000000
0007000000
0007000000
0007000000
0007000000
0007000000
0007000000
0007000000
0007000000
0007000000
0007030000
0003830000
0003c70000
0001fe0000
0000780000
0000000000
0000000000
0000000000
ENDCHAR
STARTCHAR 2375
ENCODING 9077
SWIDTH	-8531 0
DWIDTH	34 0
BBX 34	35 0 -1
BITMAP
0000000000
0000000000
0000000000
0000000000
0000000000
0000000000
0000000000
0000000000
0000000000
0000000000
0000000000
0000000000
0000000000
0000000000
03f00fc000
03f00fc000
007001c000
007001c000
007001c000
007001c000
007001c000
007001c000
007001c000
007001c000
007001c000
007001c000
007001c000
007003c000
003807c000
003c0fc000
001ffdf800
0007f1f800
0000000000
0000000000
0000000000
ENDCHAR
STARTCHAR 2376
ENCODING 9078
SWIDTH	-8531 0
DWIDTH	34 0
BBX 34	35 0 -1
BITMAP
0000000000
0000000000
0000000000
0000000000
0000000000
0000000000
0000000000
0000000000
0000000000
0000000000
0000000000
0000000000
0000000000
0000000000
03fe07f000
03fe07f000
0070018000
0038018000
0038030000
001c030000
001c060000
000e060000
000e0c0000
00070c0000
0007180000
0003980000
0003b00000
0001f00000
0001e00000
0000e00000
0000c00000
0000400000
0000000000
0000000000
0000000000
ENDCHAR
STARTCHAR 2377
ENCODING 9079
SWIDTH	-8531 0
DWIDTH	34 0
BBX 34	35 0 -1
BITMAP
0000000000
0000000000
0000000000
0000000000
0000000000
0000000000
0000000000
0000000000
0000000000
0000000000
0000000000
0000000000
0000000000
0000000000
1fc7f0fc00
1fc7f0fc00
0701c03000
0701e03000
0383e06000
0383706000
0386706000
01c638c000
01c638c000
01cc38c000
00ec1d8000
00f81d8000
00f80f8000
00780f0000
00700f0000
0070070000
0030060000
0020020000
0000000000
0000000000
0000000000
ENDCHAR
STARTCHAR 2378
ENCODING 9080
SWIDTH	-8531 0
DWIDTH	34 0
BBX 34	35 0 -1
BITMAP
0000000000
0000000000
0000000000
0000000000
0000000000
0000000000
0000000000
0000000000
0000000000
0000000000
0000000000
0000000000
0000000000
0000000000
01ff0ff000
01ff0ff000
003c038000
001e070000
000f0e0000
00079c0000
0003f80000
0001f00000
0000f00000
0000f00000
0001f80000
0003bc0000
00071e0000
000e0f0000
001c078000
003803c000
01fe1ff000
01fe1ff000
0000000000
0000000000
0000000000
ENDCHAR
STARTCHAR 2379
ENCODING 9081
SWIDTH	-8531 0
DWIDTH	34 0
BBX 34	35 0 -1
BITMAP
0000000000
0000000000
0000000000
0000000000
0000000000
0000000000
0000000000
0000000000
0000000000
0000000000
0000000000
0000000000
0000000000
0000000000
00ff07f000
00ff07f000
001c018000
001c018000
000e030000
000e030000
0007060000
0007060000
00038c0000
00038c0000
0001d80000
0001f80000
0000f00000
0000f00000
0018600000
003ce00000
003cc00000
003dc00000
001f800000
000f000000
0000000000
ENDCHAR
STARTCHAR 237a
ENCODING 9082
SWIDTH	-8531 0
DWIDTH	34 0
BBX 34	35 0 -1
BITMAP
0000000000
0000000000
0000000000
0000000000
0000000000
0000000000
0000000000
0000000000
0000000000
0000000000
0000000000
0000000000
0000000000
0000000000
007fff8000
007fff8000
00700f0000
00601e0000
00603c0000
0060380000
0000700000
0000f00000
0001e00000
0003c00000
0007800000
000700c000
000e00c000
001e00c000
003c01c000
007801c000
00ffffc000
00ffffc000
0000000000
0000000000
0000000000
ENDCHAR
STARTCHAR 2421
ENCODING 9249
SWIDTH	-8531 0
DWIDTH	34 0
BBX 34	35 0 -1
BITMAP
0000000000
0000000000
0000000000
0000000000
0000000000
0000000000
0000000000
0000000000
0000000000
000e000000
0007800000
0003800000
0003080000
00033c0000
0007fc0000
00ffc00000
007e000000
0006700000
0006380000
0006300000
0007fe0000
000fff8000
001e61c000
003e60c000
0076c0e000
00e7c0e000
00c780e000
018701c000
019f81c000
01fd838000
00f0070000
00c01e0000
0000780000
0000000000
0000000000
ENDCHAR
STARTCHAR 2422
ENCODING 9250
SWIDTH	-8531 0
DWIDTH	34 0
BBX 34	35 0 -1
BITMAP
0000000000
0000000000
0000000000
000e000000
000f000000
0007800000
0007000000
00070c0000
00073f0000
0407ff0000
07fff00000
03fe000000
0186000000
0006180000
00061c0000
00060c0000
0006ff0000
000fffc000
003f9df000
007e387800
00ee303800
01ce701c00
038ee01c00
070fc01c00
060f801c00
0e0f003c00
0e1f003800
0e3f807800
0ff380f000
07e381e000
078107c000
02001f0000
00007c0000
0000000000
0000000000
ENDCHAR
STARTCHAR 2423
ENCODING 9251
SWIDTH	-8531 0
DWIDTH	34 0
BBX 34	35 0 -1
BITMAP
0000000000
0000000000
0000000000
0000000000
0000000000
0000000000
0000000000
0000000000
0000000000
0000000000
0000000000
0000000000
0000000000
0000000000
0180000000
01c0000000
00e0000000
00e01c0000
00c00f0000
00c0038000
00c001c000
00e101c000
00e300e000
00e607e000
00ec00e000
00fc00c000
0078000000
0078000000
0038000000
0018000000
0000000000
0000000000
0000000000
0000000000
0000000000
ENDCHAR
STARTCHAR 2424
ENCODING 9252
SWIDTH	-8531 0
DWIDTH	34 0
BBX 34	35 0 -1
BITMAP
0000000000
0000000000
0000000000
0000000000
0000000000
0000000000
0000000000
0000000000
0000000000
0c00000000
0e00000000
0600000000
0700060000
07001f8000
070003c000
070000e000
0700007000
0700007800
0704003800
070c003c00
070c003c00
071801fc00
0798007c00
03b0001800
03f0000000
01e0000000
01f0000000
00f0000000
0060000000
0000000000
0000000000
0000000000
0000000000
0000000000
0000000000
ENDCHAR
STARTCHAR 2425
ENCODING 9253
SWIDTH	-8531 0
DWIDTH	34 0
BBX 34	35 0 -1
BITMAP
0000000000
0000000000
0000000000
0000000000
0000000000
0000000000
0000000000
0000000000
0000000000
0006000000
0003800000
0001f00000
0000f00000
0000300000
0000000000
0000000000
0000700000
0043fc0000
007f9c0000
003f0e0000
00180e0000
00000e0000
00000e0000
00000e0000
00001c0000
00001c0000
0000380000
0000380000
0000700000
0000e00000
0001c00000
0003800000
0002000000
0000000000
0000000000
ENDCHAR
STARTCHAR 2426
ENCODING 9254
SWIDTH	-8531 0
DWIDTH	34 0
BBX 34	35 0 -1
BITMAP
0000000000
0000000000
000c000000
0007000000
0003f00000
0000fc0000
00007c0000
00001c0000
0000000000
0000000000
0000000000
0000000000
0000fc0000
01c7fe0000
00ff8f0000
007e070000
003c070000
0000070000
0000070000
0000070000
0000070000
0000070000
00000e0000
00000e0000
00000e0000
00001c0000
00003c0000
0000380000
0000700000
0000e00000
0001c00000
0003800000
0006000000
0000000000
0000000000
ENDCHAR
STARTCHAR 2427
ENCODING 9255
SWIDTH	-8531 0
DWIDTH	34 0
BBX 34	35 0 -1
BITMAP
0000000000
0000000000
0000000000
0000000000
0000000000
0000000000
0000000000
0000000000
0000000000
0000000000
0006000000
0007f00000
0003f80000
0000c00000
0001800000
0000000000
0000380000
003ffc0000
003ff80000
000c700000
0000e00000
0001c00000
0001800000
0003e00000
0007f00000
000e300000
000e300000
001c300000
0038308000
00703fc000
00601fc000
0000000000
0000000000
0000000000
0000000000
ENDCHAR
STARTCHAR 2428
ENCODING 9256
SWIDTH	-8531 0
DWIDTH	34 0
BBX 34	35 0 -1
BITMAP
0000000000
0000000000
0000000000
0000000000
0018000000
001f000000
000ff00000
0001fc0000
0007fc0000
0007800000
0000000000
0000000000
00001e0000
0181ff0000
01fffe0000
00ffb80000
0070700000
0000e00000
0001c00000
0003800000
0003e00000
0007f00000
000ff80000
001c380000
0038380000
0070380000
00f0380000
01e0380000
03c0380000
07801c7800
07001ffc00
060007f800
0000000000
0000000000
0000000000
ENDCHAR
STARTCHAR 2429
ENCODING 9257
SWIDTH	-8531 0
DWIDTH	34 0
BBX 34	35 0 -1
BITMAP
0000000000
0000000000
0000000000
0000000000
0000000000
0000000000
0000000000
0000000000
0000000000
0000000000
000e000000
0007800000
0007000000
0003218000
0003f3e000
00cff07000
00ffc07800
003f00f800
0003008000
0003000000
0003000000
00077f0000
0007ffc000
000f81e000
001f00e000
013b00e000
01f300e000
00f300e000
005f03c000
000f3f8000
00071e0000
0002000000
0000000000
0000000000
0000000000
ENDCHAR
STARTCHAR 242a
ENCODING 9258
SWIDTH	-8531 0
DWIDTH	34 0
BBX 34	35 0 -1
BITMAP
0000000000
0000000000
0000000000
0060000000
0078000000
003c000000
003c000000
001803c000
003847f000
0039e0f800
003fe07800
0cffc07c00
0ffe00ec00
07f8008000
0038000000
0038000000
0018000000
00187f8000
001bffe000
001f81f000
003e007000
007c007800
00f8003800
01d8003800
3b98007800
1f18007000
1e1800f000
0f9803e000
01f8ffc000
00f83f0000
0078000000
0030000000
0000000000
0000000000
0000000000
ENDCHAR
STARTCHAR 242b
ENCODING 9259
SWIDTH	-8531 0
DWIDTH	34 0
BBX 34	35 0 -1
BITMAP
0000000000
0000000000
0000000000
0000000000
001c000000
001f000000
0007800000
0007000000
0007000000
000e000000
000e000000
000c018000
000ff0e000
007ff87000
1bfc1c3800
1fdc1c3c00
0f181c1e00
00381c0e00
00381c0f00
00701c7f00
00701c1f00
00e03c0600
00e0380000
01c0380000
01c0380000
0380700000
0790700000
071cf00000
0f0fe00000
1e07c00000
0c07c00000
0003800000
0000000000
0000000000
0000000000
ENDCHAR
STARTCHAR 242c
ENCODING 9260
SWIDTH	-8531 0
DWIDTH	34 0
BBX 34	35 0 -1
BITMAP
0000000000
0000000000
0000000000
0000000c00
001c000f00
001f000780
0007800380
0007003180
0007003c00
000e001e00
000e000e00
000c018600
000ff0e000
007ff87000
1bfc1c3800
1fdc1c3c00
0f181c1e00
00381c0e00
00381c0f00
00701c7f00
00701c1f00
00e03c0600
00e0380000
01c0380000
01c0380000
0380700000
0790700000
071cf00000
0f0fe00000
1e07c00000
0c07c00000
0003800000
0000000000
0000000000
0000000000
ENDCHAR
STARTCHAR 242d
ENCODING 9261
SWIDTH	-8531 0
DWIDTH	34 0
BBX 34	35 0 -1
BITMAP
0000000000
0000000000
0000000000
001c000000
003f000000
0007000000
00078e0000
0003bf0000
0003fc0000
018ff00000
01ffc00000
0078e1c000
000067c000
00007f8000
0101fe0000
01fff80000
00ff1c0000
00000e0000
00000e0000
0000070000
0000078000
001fffc000
00ffffe000
00f003e000
01c000c000
01c0000000
01c0000000
00e0000000
00fe000000
003ffc0000
000ffe0000
0001fc0000
0000000000
0000000000
0000000000
ENDCHAR
STARTCHAR 242e
ENCODING 9262
SWIDTH	-8531 0
DWIDTH	34 0
BBX 34	35 0 -1
BITMAP
0000000000
0000000000
0000000c00
001c000f00
003f000780
0007006380
00078e7980
0003bf3c00
0003fc1c00
018ff00c00
01ffc00000
0078e1c000
000067c000
00007f8000
0101fe0000
01fff80000
00ff1c0000
00000e0000
00000e0000
0000070000
0000078000
001fffc000
00ffffe000
00f003e000
01c000c000
01c0000000
01c0000000
00e0000000
00fe000000
003ffc0000
000ffe0000
0001fc0000
0000000000
0000000000
0000000000
ENDCHAR
STARTCHAR 242f
ENCODING 9263
SWIDTH	-8531 0
DWIDTH	34 0
BBX 34	35 0 -1
BITMAP
0000000000
0000000000
0000000000
0000c00000
0000e00000
0000700000
0000780000
0000780000
0000f00000
0001e00000
0003c00000
0003800000
0007000000
000e000000
001c000000
0038000000
0078000000
0070000000
0070000000
0038000000
003c000000
001e000000
000f000000
0007800000
0003c00000
0001c00000
0001e00000
0000f00000
0000f00000
0000780000
0000780000
0000380000
0000100000
0000000000
0000000000
ENDCHAR
STARTCHAR 2430
ENCODING 9264
SWIDTH	-8531 0
DWIDTH	34 0
BBX 34	35 0 -1
BITMAP
0000000000
0000000000
0000000000
0000c00000
0000e00000
0000700000
0000780000
0000780000
0000f06000
0001e07000
0003c03800
0003831c00
0007039800
000e01c000
001c00e000
003800c000
0078000000
0070000000
0070000000
0038000000
003c000000
001e000000
000f000000
0007800000
0003c00000
0001c00000
0001e00000
0000f00000
0000f00000
0000780000
0000780000
0000380000
0000100000
0000000000
0000000000
ENDCHAR
STARTCHAR 2431
ENCODING 9265
SWIDTH	-8531 0
DWIDTH	34 0
BBX 34	35 0 -1
BITMAP
0000000000
0000000000
0000000000
0000000000
00001e0000
03003f8000
038007c000
01c0038000
01c0038000
01c0038000
01c0038000
01c0039c00
01c003fe00
0187fffe00
0383ff8000
0380f38000
0300038000
0300038000
0300038000
0308038000
0318038000
0318038000
03b0038000
03b0038000
03f0038000
03e0070000
03e0070000
01e0070000
01c00e0000
00c00e0000
00001c0000
0000380000
0000600000
0000000000
0000000000
ENDCHAR
STARTCHAR 2432
ENCODING 9266
SWIDTH	-8531 0
DWIDTH	34 0
BBX 34	35 0 -1
BITMAP
0000000000
0000000000
0000000c00
0000000f00
00000e0780
03001f8380
038007b000
01c003bc00
01c0039e00
01c0038e00
01c0038000
01c0039800
01c003fe00
0187fffe00
0383ff8000
0380f38000
0300038000
0300038000
0300038000
0308038000
0318038000
0318038000
03b0038000
03b0038000
03f0038000
03e0070000
03e0070000
01e0070000
01c00e0000
00c00e0000
00001c0000
0000380000
0000600000
0000000000
0000000000
ENDCHAR
STARTCHAR 2433
ENCODING 9267
SWIDTH	-8531 0
DWIDTH	34 0
BBX 34	35 0 -1
BITMAP
0000000000
0000000000
0000000000
0000000000
0000000000
0000000000
0080000000
00f0000000
007ffe0000
001fff8000
00003fc000
0000fb8000
0001e00000
0007800000
000e000000
0000000000
0000000000
0000000000
0000000000
0000000000
0000000000
0000000000
0100000000
0100000000
0300000000
0380000000
01c0000000
01f803e000
00fffff000
003fffe000
0007ff0000
0000000000
0000000000
0000000000
0000000000
ENDCHAR
STARTCHAR 2434
ENCODING 9268
SWIDTH	-8531 0
DWIDTH	34 0
BBX 34	35 0 -1
BITMAP
0000000000
0000000000
0000000c00
0000000f00
0000000780
0000006380
0080007980
00f0003c00
007ffe1c00
001fff8c00
00003fc000
0000fb8000
0001e00000
0007800000
000e000000
0000000000
0000000000
0000000000
0000000000
0000000000
0000000000
0000000000
0100000000
0100000000
0300000000
0380000000
01c0000000
01f803e000
00fffff000
003fffe000
0007ff0000
0000000000
0000000000
0000000000
0000000000
ENDCHAR
STARTCHAR 2435
ENCODING 9269
SWIDTH	-8531 0
DWIDTH	34 0
BBX 34	35 0 -1
BITMAP
0000000000
0000000000
0000000000
0000000000
000f000000
001e000000
001c030000
001e01e000
000f07e000
00079fc000
0003ff0000
0c0ffc0000
0fffe00000
07fef00000
03f8780000
00003c0000
00001e0000
00000e0000
0000070000
0000038000
0003ffc000
001fffe000
007fffe000
00f003e000
01c000c000
01c0000000
01c0000000
01e0000000
00f0000000
007e000000
003ffc0000
000ffe0000
0001fe0000
0000000000
0000000000
ENDCHAR
STARTCHAR 2436
ENCODING 9270
SWIDTH	-8531 0
DWIDTH	34 0
BBX 34	35 0 -1
BITMAP
0000000000
0000000000
0000000e00
0000000780
000f000380
001e003980
001c031c00
001e01ce00
000f07ce00
00079fc400
0003ff0000
0c0ffc0000
0fffe00000
07fef00000
03f8780000
00003c0000
00001e0000
00000e0000
0000070000
0000038000
0003ffc000
001fffe000
007fffe000
00f003e000
01c000c000
01c0000000
01c0000000
01e0000000
00f0000000
007e000000
003ffc0000
000ffe0000
0001fe0000
0000000000
0000000000
ENDCHAR
STARTCHAR 2437
ENCODING 9271
SWIDTH	-8531 0
DWIDTH	34 0
BBX 34	35 0 -1
BITMAP
0000000000
0000000000
0000000000
0000000000
01c0000000
00e0000000
0070000000
0078000000
0078000000
0070000000
0070000000
0070000000
0070000000
0070000000
0070000000
0070000000
0070000000
0070000000
00e0000000
00e0000000
00e0000000
00e0000000
00e0000000
00e0001000
00e0003000
00e000e000
00e001c000
00e0078000
00703f0000
007ffe0000
003ff80000
000fc00000
0000000000
0000000000
0000000000
ENDCHAR
STARTCHAR 2438
ENCODING 9272
SWIDTH	-8531 0
DWIDTH	34 0
BBX 34	35 0 -1
BITMAP
0000000000
0000000000
0000000000
0000000000
01c0000000
00e0000000
0070000000
0078000000
0078000000
0070180000
00700c0000
00718e0000
0070c70000
0070e70000
0070720000
0070700000
0070200000
0070000000
00e0000000
00e0000000
00e0000000
00e0000000
00e0000000
00e0001000
00e0003000
00e000e000
00e001c000
00e0078000
00703f0000
007ffe0000
003ff80000
000fc00000
0000000000
0000000000
0000000000
ENDCHAR
STARTCHAR 2439
ENCODING 9273
SWIDTH	-8531 0
DWIDTH	34 0
BBX 34	35 0 -1
BITMAP
0000000000
0000000000
0000000000
0001e00000
0000f80000
00003c0000
0000380000
0000380000
0000303800
0007fffe00
18ffffff00
1ff8300e00
0f80300000
0600300000
0003f00000
0007f80000
0006780000
000c380000
000c380000
000c380000
0006380000
0007b80000
0003f80000
0001f80000
0000780000
0000700000
0000700000
0000e00000
0000e00000
0001c00000
0001800000
0003000000
0006000000
0000000000
0000000000
ENDCHAR
STARTCHAR 243a
ENCODING 9274
SWIDTH	-8531 0
DWIDTH	34 0
BBX 34	35 0 -1
BITMAP
0000000000
0000000000
0000000c00
0001e0cf00
0000f8e780
00003c7380
0000387980
0000383000
0000300400
0007fffe00
19ffffff00
1ff8301e00
0f80300000
0400300000
0003f00000
0007f80000
0006780000
000c380000
000c380000
000c380000
0006380000
0007b80000
0003f80000
0001f80000
0000780000
0000700000
0000700000
0000e00000
0000e00000
0001c00000
0001800000
0003000000
0006000000
0000000000
0000000000
ENDCHAR
STARTCHAR 243b
ENCODING 9275
SWIDTH	-8531 0
DWIDTH	34 0
BBX 34	35 0 -1
BITMAP
0000000000
0000000000
0000000000
0000000000
00001c0000
00001f0000
00e0078000
00f8078000
003c070000
003c070000
0038070000
0038070000
0038071e00
2038ffff00
38ffffff00
1fff070200
1f38070000
0c38070000
00380e0000
00380e0000
0038ce0000
00387c0000
00383c0000
0038180000
0038000000
0038000000
001c000000
001f800000
000fffe000
0003fff000
00007fe000
0000000000
0000000000
0000000000
0000000000
ENDCHAR
STARTCHAR 243c
ENCODING 9276
SWIDTH	-8531 0
DWIDTH	34 0
BBX 34	35 0 -1
BITMAP
0000000000
0000000000
0000000c00
0000000f00
00001c0780
00001f0380
00e007b180
00f807bc00
003c071e00
003c070e00
0038070600
0038070000
0038071e00
2038ffff00
38ffffff00
1fff070200
1f38070000
0c38070000
00380e0000
00380e0000
0038ce0000
00387c0000
00383c0000
0038180000
0038000000
0038000000
001c000000
001f800000
000fffe000
0003fff000
00007fe000
0000000000
0000000000
0000000000
0000000000
ENDCHAR
STARTCHAR 243d
ENCODING 9277
SWIDTH	-8531 0
DWIDTH	34 0
BBX 34	35 0 -1
BITMAP
0000000000
0000000000
0000000000
0000100000
0000780000
00c3fc0000
007f9e0000
003f1f0000
003c3e0000
0018780000
0000e00000
0001c00000
0003802000
000701f800
000c0ffc00
001c7ff800
0039ff8000
0077bc0000
01fe700000
07f8e00000
0fe1c00000
0f81c00000
0e03800000
0003800000
0003800000
0003800000
0003800000
0003c00000
0001e00000
0001fc0000
0000ff0000
00007f8000
00001f0000
0000000000
0000000000
ENDCHAR
STARTCHAR 243e
ENCODING 9278
SWIDTH	-8531 0
DWIDTH	34 0
BBX 34	35 0 -1
BITMAP
0000000000
0000000000
0000000000
0000100c00
0000780f00
00c3fc0780
007f9e6380
003f1f7980
003c3e3c00
0018781c00
0000e00c00
0001c00000
0003802000
000701f800
000c0ffc00
001c7ff800
0039ff8000
0077bc0000
01fe700000
07f8e00000
0fe1c00000
0f81c00000
0e03800000
0003800000
0003800000
0003800000
0003800000
0003c00000
0001e00000
0001fc0000
0000ff0000
00007f8000
00001f0000
0000000000
0000000000
ENDCHAR
STARTCHAR 243f
ENCODING 9279
SWIDTH	-8531 0
DWIDTH	34 0
BBX 34	35 0 -1
BITMAP
0000000000
0000000000
0000000000
0000000000
0070000000
003c000000
001e000000
001c000000
001c700000
0019f00000
001fe00000
08ff800000
0ffe0fe000
0ff83ff800
073803fc00
0070007c00
007001fc00
007003c000
0070070000
00e0000000
00e0000000
00e0000000
01c0000000
01c0800000
01c1800000
03c1800000
0381c00000
0781e00000
0780f81c00
0f00fffe00
0f003ffe00
0e000ff800
0000000000
0000000000
0000000000
ENDCHAR
STARTCHAR 2440
ENCODING 9280
SWIDTH	-8531 0
DWIDTH	34 0
BBX 34	35 0 -1
BITMAP
0000000000
0000000000
0000001800
0000001e00
0070000f00
003c00c700
001e00f300
001c007800
001c703800
0019f01800
001fe00000
08ff800000
0ffe0fe000
0ff83ff800
073803fc00
0070007c00
007001fc00
007003c000
0070070000
00e0000000
00e0000000
00e0000000
01c0000000
01c0800000
01c1800000
03c1800000
0381c00000
0781e00000
0780f81c00
0f00fffe00
0f003ffe00
0e000ff800
0000000000
0000000000
0000000000
ENDCHAR
STARTCHAR 2441
ENCODING 9281
SWIDTH	-8531 0
DWIDTH	34 0
BBX 34	35 0 -1
BITMAP
0000000000
0000000000
0000000000
0000000000
0018000000
003e000000
000f000000
000e000000
000e060000
020e1f0000
060eff0000
07fff80000
01ff800000
001c000000
001c000000
001c000000
001c000000
0038000000
0038000000
00387f8000
003bffe000
003f80e000
007e007000
0078007000
0070007000
0070007000
002000e000
000001e000
000007c000
00001f8000
0000fe0000
0003f80000
0000000000
0000000000
0000000000
ENDCHAR
STARTCHAR 2442
ENCODING 9282
SWIDTH	-8531 0
DWIDTH	34 0
BBX 34	35 0 -1
BITMAP
0000000000
0000000000
0000001800
0000001e00
0018000f00
003e00c700
000f00f300
000e007800
000e063800
020e1f1800
060eff0000
07fff80000
01ff800000
001c000000
001c000000
001c000000
001c000000
0038000000
0038000000
00387f8000
003bffe000
003f80e000
007e007000
0078007000
0070007000
0070007000
002000e000
000001e000
000007c000
00001f8000
0000fe0000
0003f80000
0000000000
0000000000
0000000000
ENDCHAR
STARTCHAR 2443
ENCODING 9283
SWIDTH	-8531 0
DWIDTH	34 0
BBX 34	35 0 -1
BITMAP
0000000000
0000000000
0000000000
0000000000
0000000000
0000000000
0000000000
0000000000
0000000000
0000000000
0000000000
0000000000
0000000000
0000000000
0000000000
0000000000
0001fe0000
000fff8000
023fc1c000
03fc01e000
01e000e000
00c000e000
000000e000
000001e000
000001c000
000003c000
0000078000
00001f0000
0000fc0000
0007e00000
0000000000
0000000000
0000000000
0000000000
0000000000
ENDCHAR
STARTCHAR 2444
ENCODING 9284
SWIDTH	-8531 0
DWIDTH	34 0
BBX 34	35 0 -1
BITMAP
0000000000
0000000000
0000000000
0000000000
0000000000
0000000000
0000000000
0000000000
0000000000
0000000000
0000000000
00007f0000
0003ffc000
001fffe000
007f80f000
19fc003800
1fe0003800
0f80001c00
0300001c00
0000001c00
0000001c00
0000003c00
0000003800
0000007800
000000f000
000001e000
000007c000
00003f0000
0001fc0000
0007e00000
0000000000
0000000000
0000000000
0000000000
0000000000
ENDCHAR
STARTCHAR 2445
ENCODING 9285
SWIDTH	-8531 0
DWIDTH	34 0
BBX 34	35 0 -1
BITMAP
0000000000
0000000000
0000000000
0000000000
0000000c00
0000000f00
000000c780
000000f380
0000007980
0000003800
0000001800
00007f0000
0003ffc000
001fffe000
007f80f000
19fc003800
1fe0003800
0f80001c00
0300001c00
0000001c00
0000001c00
0000003c00
0000003800
0000007800
000000f000
000001e000
000007c000
00003f0000
0001fc0000
0007e00000
0000000000
0000000000
0000000000
0000000000
0000000000
ENDCHAR
STARTCHAR 2446
ENCODING 9286
SWIDTH	-8531 0
DWIDTH	34 0
BBX 34	35 0 -1
BITMAP
0000000000
0000000000
0000000000
0000000000
000000f000
000007fc00
00007ffc00
0003ffe000
183fc78000
1ffe0f0000
0ff81c0000
07c0380000
0380700000
0000e00000
0001c00000
0001c00000
0003800000
0003800000
0007000000
0007000000
0007000000
0007000000
0007000000
0007000000
0007800000
0003c00000
0003e00000
0001f80000
0000ff0000
00007f8000
00001f8000
0000000000
0000000000
0000000000
0000000000
ENDCHAR
STARTCHAR 2447
ENCODING 9287
SWIDTH	-8531 0
DWIDTH	34 0
BBX 34	35 0 -1
BITMAP
0000000000
0000000000
0000000000
0000000000
000000f000
000007fc00
00007ffc00
0003ffe000
183fc78000
1ffe0f0c00
0ff81c0f00
07c0380780
0380706380
0000e07980
0001c03c00
0001c01c00
0003800c00
0003800000
0007000000
0007000000
0007000000
0007000000
0007000000
0007000000
0007800000
0003c00000
0003e00000
0001f80000
0000ff0000
00007f8000
00001f8000
0000000000
0000000000
0000000000
0000000000
ENDCHAR
STARTCHAR 2448
ENCODING 9288
SWIDTH	-8531 0
DWIDTH	34 0
BBX 34	35 0 -1
BITMAP
0000000000
0000000000
0000000000
0000000000
0038000000
003e000000
000e000000
000e000000
000e000000
000e000000
000e000000
000e018000
000707c000
00071fc000
00077f8000
0003fc0000
0003e00000
000f800000
001e000000
003c000000
0070000000
00e0000000
00e0000000
01c0000000
01c0000000
01c0000000
01e0000000
00f8038000
00ffffc000
003fffc000
0007ff8000
0000000000
0000000000
0000000000
0000000000
ENDCHAR
STARTCHAR 2449
ENCODING 9289
SWIDTH	-8531 0
DWIDTH	34 0
BBX 34	35 0 -1
BITMAP
0000000000
0000000000
0000001800
0000001e00
0038000f00
003e00c700
000e00f300
000e007800
000e003800
000e001800
000e000000
000e018000
000707c000
00071fc000
00077f8000
0003fc0000
0003e00000
000f800000
001e000000
003c000000
0070000000
00e0000000
00e0000000
01c0000000
01c0000000
01c0000000
01e0000000
00f8038000
00ffffc000
003fffc000
0007ff8000
0000000000
0000000000
0000000000
0000000000
ENDCHAR
STARTCHAR 244a
ENCODING 9290
SWIDTH	-8531 0
DWIDTH	34 0
BBX 34	35 0 -1
BITMAP
0000000000
0000000000
0000000000
003c000000
001f000000
0007000000
000e000000
000e300000
000df80000
181ff00000
1fff83c000
0ffc00f000
0038007800
0038007c00
007001fe00
0070079e00
00e00e0000
01e00c0000
03c01c0000
03801c0000
07801c0000
0f001c0000
06001c0000
00001c0000
0003fe0000
000fff8000
001e1fe000
00381ff000
00381cf000
001c3c3000
001ff80000
0003e00000
0000000000
0000000000
0000000000
ENDCHAR
STARTCHAR 244b
ENCODING 9291
SWIDTH	-8531 0
DWIDTH	34 0
BBX 34	35 0 -1
BITMAP
0000000000
0000000000
0000000000
0000000000
0000000000
0300000000
0380000000
018003c000
01c01ff000
01c0fff800
03c1e1f800
038003c000
0380070000
03800c0000
0300000000
0700000000
0710000000
0710000000
0710000000
0730000000
0631000000
0631000000
0663000000
0763000000
07e3800000
07c1e01800
03c1fffc00
03807ffe00
03c01ffc00
01c0000000
0180000000
0000000000
0000000000
0000000000
0000000000
ENDCHAR
STARTCHAR 244c
ENCODING 9292
SWIDTH	-8531 0
DWIDTH	34 0
BBX 34	35 0 -1
BITMAP
0000000000
0000000000
0000000000
0000000000
0001800000
0001e00000
0000f00000
0000e00000
0c00e00000
0e01c00000
0601fe0000
0707ffc000
031f81e000
0379807000
03e3803800
01c3803800
0387001c00
07c7001c00
07c6001c00
0eee001c00
0eee001c00
1c7c001c00
1c78001c00
1c380fdc00
187c3ff800
18fc71f800
19de607c00
0f8e70fe00
0f003fcf00
06001f0600
0000000000
0000000000
0000000000
0000000000
0000000000
ENDCHAR
STARTCHAR 244d
ENCODING 9293
SWIDTH	-8531 0
DWIDTH	34 0
BBX 34	35 0 -1
BITMAP
0000000000
0000000000
0000000000
00e0000000
0078000000
001c000000
0038000000
0038000000
0038000000
0030000000
003c0f8000
00fc3fe000
33f8f8f000
3ff1c03000
1e73803800
0c77003800
007e003800
00fc003800
00f8003800
01f0003800
01f0003800
03f0003800
03b0003800
07300ff800
0e303ff000
0e3030f800
1f30607c00
3db060fe00
38f871ef00
30f83fc700
00700f0200
0060000000
0000000000
0000000000
0000000000
ENDCHAR
STARTCHAR 244e
ENCODING 9294
SWIDTH	-8531 0
DWIDTH	34 0
BBX 34	35 0 -1
BITMAP
0000000000
0000000000
0000000000
0000000000
0000000000
0000000000
0000000000
0003f80000
000fff0000
003ecfc000
00f8c1e000
01e0e0f000
03c0e07000
0781c03800
0701c03800
0e03801c00
0e03801c00
1c07001c00
1807001c00
180e001c00
1c1e001c00
1c1c003c00
1c38003800
0e78007800
0ff0007000
07e000f000
07c001e000
030003c000
00000f8000
00001e0000
0000380000
0000000000
0000000000
0000000000
0000000000
ENDCHAR
STARTCHAR 244f
ENCODING 9295
SWIDTH	-8531 0
DWIDTH	34 0
BBX 34	35 0 -1
BITMAP
0000000000
0000000000
0000000000
0000000000
06001e0000
07000f0000
0380078000
03c0038000
0380070000
0380070800
0700073c00
070707fc00
0703fff800
0700ffc000
0700070000
0e00070000
0e00070000
0e00070000
0e10070000
0e30030000
0e30038000
0c60038000
0c60038000
0cc0038000
0cc07f8000
0d83fff000
0f8383fc00
0f8603fe00
0f07039e00
0703c70400
0701ff0000
07007c0000
0200000000
0000000000
0000000000
ENDCHAR
STARTCHAR 2450
ENCODING 9296
SWIDTH	-8531 0
DWIDTH	34 0
BBX 34	35 0 -1
BITMAP
0000000000
0000000000
0000000c00
0000000f00
06001e0780
07000f3380
038007b980
03c0039c00
0380071e00
0380070e00
0700073000
070707fc00
0703fffc00
0700ffe000
0700070000
0e00070000
0e00070000
0e00070000
0e10070000
0e30030000
0e30038000
0c60038000
0c60038000
0cc0038000
0cc07f8000
0d83fff000
0f8383fc00
0f8603fe00
0f07039e00
0703c70400
0701ff0000
07007c0000
0200000000
0000000000
0000000000
ENDCHAR
STARTCHAR 2451
ENCODING 9297
SWIDTH	-8531 0
DWIDTH	34 0
BBX 34	35 0 -1
BITMAP
0000000000
0000000000
0000000e00
0000001f00
06001e3180
07000f3180
038007b180
03c0039f00
0380038e00
0380070000
0700073800
070707fe00
0703fffc00
0700ffc000
0700070000
0e00070000
0e00070000
0e10070000
0e10070000
0e30030000
0e30038000
0c60038000
0c60038000
0cc0038000
0cc07f8000
0d83fff000
0f8383fc00
0f8603fe00
0f07039e00
0703c70400
0701ff0000
07007c0000
0200000000
0000000000
0000000000
ENDCHAR
STARTCHAR 2452
ENCODING 9298
SWIDTH	-8531 0
DWIDTH	34 0
BBX 34	35 0 -1
BITMAP
0000000000
0000000000
0000000000
0000000000
0000000000
0000030000
000c078000
001e078000
007f078000
0ffe038000
0ffc03c000
07b803c000
003803e000
007003e000
0070037000
00e0037000
00e0077800
01c0073c00
01c0073e00
01c00e1e00
03800e0e00
03800e0000
03801e0000
03801c0000
03803c0000
0380780000
01c0780000
01e1f00000
00ffe00000
007fc00000
001f000000
0000000000
0000000000
0000000000
0000000000
ENDCHAR
STARTCHAR 2453
ENCODING 9299
SWIDTH	-8531 0
DWIDTH	34 0
BBX 34	35 0 -1
BITMAP
0000000000
0000000000
0000001800
0000001e00
0000000f00
0000030700
000c078300
001e07b000
007f07bc00
0ffe039e00
0ffc03ce00
07b803c600
003803e000
007003e000
0070037000
00e0037000
00e0077800
01c0073c00
01c0073e00
01c00e1e00
03800e0e00
03800e0000
03801e0000
03801c0000
03803c0000
0380780000
01c0780000
01e1f00000
00ffe00000
007fc00000
001f000000
0000000000
0000000000
0000000000
0000000000
ENDCHAR
STARTCHAR 2454
ENCODING 9300
SWIDTH	-8531 0
DWIDTH	34 0
BBX 34	35 0 -1
BITMAP
0000000000
0000000000
0000001e00
0000003f00
0000007380
0000036180
000c076180
001e077380
007f07bf00
0ffe039e00
0ffc03c000
07b803c000
003803e000
007003e000
0070037000
00e0037000
00e0077800
01c0073c00
01c0073e00
01c00e1e00
03800e0e00
03800e0000
03801e0000
03801c0000
03803c0000
0380780000
01c0780000
01e1f00000
00ffe00000
007fc00000
001f000000
0000000000
0000000000
0000000000
0000000000
ENDCHAR
STARTCHAR 2455
ENCODING 9301
SWIDTH	-8531 0
DWIDTH	34 0
BBX 34	35 0 -1
BITMAP
0000000000
0000000000
0000000000
0006000000
0007000000
0003c00000
0001f80000
00007c0000
00003c0000
0000780000
0001e00000
0003800000
0003000000
0007000000
0007000000
0003000000
0003800000
0001c00000
0000e00000
00007f0000
0003ffe000
000fb8f800
003c183c00
10701c1e00
19e01c0e00
1b801c0f00
1f001c3f00
0f383cff00
0e1ff80600
0607f80000
0001e00000
0000000000
0000000000
0000000000
0000000000
ENDCHAR
STARTCHAR 2456
ENCODING 9302
SWIDTH	-8531 0
DWIDTH	34 0
BBX 34	35 0 -1
BITMAP
0000000000
0000000000
0000000000
0006000000
0007000000
0003c00c00
0001f80f00
00007c0780
00003c0380
0000783180
0001e03c00
0003801e00
0003000e00
0007000600
0007000000
0003000000
0003800000
0001c00000
0000e00000
00007f0000
0003ffe000
000fb8f800
003c183c00
10701c1e00
19e01c0e00
1b801c0f00
1f001c3f00
0f383cff00
0e1ff80600
0607f80000
0001e00000
0000000000
0000000000
0000000000
0000000000
ENDCHAR
STARTCHAR 2457
ENCODING 9303
SWIDTH	-8531 0
DWIDTH	34 0
BBX 34	35 0 -1
BITMAP
0000000000
0000000000
0000000000
0006000000
0007000000
0003c00000
0001f81e00
00007c3f00
00003c7380
0000786180
0001e06180
0003807380
0003003f00
0007001e00
0007000000
0003000000
0003800000
0001c00000
0000e00000
00007f0000
0003ffe000
000fb8f800
003c183c00
10701c1e00
19e01c0e00
1b801c0f00
1f001c3f00
0f383cff00
0e1ff80600
0607f80000
0001e00000
0000000000
0000000000
0000000000
0000000000
ENDCHAR
STARTCHAR 2458
ENCODING 9304
SWIDTH	-8531 0
DWIDTH	34 0
BBX 34	35 0 -1
BITMAP
0000000000
0000000000
0000000000
0000000000
0000000000
0000000000
0000000000
0000000000
0000000000
0000000000
0000000000
0006000000
001f800000
003fc00000
0079e00000
01e0f00000
03c0780000
37803c0000
3f001e0000
1e000f8000
0c0007c000
000003f000
000000fc00
0000007e00
0000003e00
0000000e00
0000000000
0000000000
0000000000
0000000000
0000000000
0000000000
0000000000
0000000000
0000000000
ENDCHAR
STARTCHAR 2459
ENCODING 9305
SWIDTH	-8531 0
DWIDTH	34 0
BBX 34	35 0 -1
BITMAP
0000000000
0000000000
0000000000
0000000000
0000000000
0000000000
0000006000
0000007800
0000003c00
0000031c00
000003cc00
000601e000
001f80e000
003fc06000
0079e00000
01e0f00000
03c0780000
37803c0000
3f001e0000
1e000f8000
0c0007c000
000003f000
000000fc00
0000007e00
0000003e00
0000000e00
0000000000
0000000000
0000000000
0000000000
0000000000
0000000000
0000000000
0000000000
0000000000
ENDCHAR
STARTCHAR 245a
ENCODING 9306
SWIDTH	-8531 0
DWIDTH	34 0
BBX 34	35 0 -1
BITMAP
0000000000
0000000000
0000000000
0000000000
0000000000
0000000000
000000f000
000001f800
0000039c00
0000030c00
0000030c00
0006039c00
001f81f800
003fc0f000
0079e00000
01e0f00000
03c0780000
37803c0000
3f001e0000
1e000f8000
0c0007c000
000003f000
000000fc00
0000007e00
0000003e00
0000000e00
0000000000
0000000000
0000000000
0000000000
0000000000
0000000000
0000000000
0000000000
0000000000
ENDCHAR
STARTCHAR 245b
ENCODING 9307
SWIDTH	-8531 0
DWIDTH	34 0
BBX 34	35 0 -1
BITMAP
0000000000
0000000000
0000000000
0000000000
060000f800
03030ffc00
0381fff000
0380ff0000
0380038000
0380018000
070001c400
070001de00
070001fc00
07020ff800
0603ffe000
0e21ff8000
0e20018000
0c20018000
0c60018000
0c60018000
0c60018000
0c6001c000
0cc001c000
0ec001c000
0fc07ff000
0f81fffc00
0f8381ff00
078301cf00
0783c3c200
0701ff8000
07007f0000
0300000000
0000000000
0000000000
0000000000
ENDCHAR
STARTCHAR 245c
ENCODING 9308
SWIDTH	-8531 0
DWIDTH	34 0
BBX 34	35 0 -1
BITMAP
0000000000
0000000000
0000000f00
0000000780
060000f180
03030ffe00
0381fff700
0380ff0380
0380038100
0380018000
070001c400
070001de00
070001fc00
07020ff800
0603ffe000
0e21ff8000
0e20018000
0c20018000
0c60018000
0c60018000
0c60018000
0c6001c000
0cc001c000
0ec001c000
0fc07ff000
0f81fffc00
0f8381ff00
078301cf00
0783c3c200
0701ff8000
07007f0000
0300000000
0000000000
0000000000
0000000000
ENDCHAR
STARTCHAR 245d
ENCODING 9309
SWIDTH	-8531 0
DWIDTH	34 0
BBX 34	35 0 -1
BITMAP
0000000000
0000000000
0000000e00
0000001f00
060000b180
03030ff180
0381fff180
0380ff1f00
0380038e00
0380018000
070001c000
070001de00
070001fe00
07020ff800
0603ffe000
0e21ff8000
0e20018000
0c20018000
0c60018000
0c60018000
0c60018000
0c6001c000
0cc001c000
0ec001c000
0fc07ff000
0f81fffc00
0f8381ff00
078301cf00
0783c3c200
0701ff8000
07007f0000
0300000000
0000000000
0000000000
0000000000
ENDCHAR
STARTCHAR 245e
ENCODING 9310
SWIDTH	-8531 0
DWIDTH	34 0
BBX 34	35 0 -1
BITMAP
0000000000
0000000000
0000000000
0001c00000
0000e00000
0000700000
0000700000
0000e0e000
0200e3f000
03e1fff000
01ffff0000
007fe00000
0000600000
0000608000
000060c000
018063e000
00ffffe000
007fff8000
001ffc0000
0000600000
0000600000
0000600000
0000700000
0000700000
003ff00000
00fffe0000
01c07fc000
018077f000
01c0f1f000
00e3e07000
007fc00000
003f000000
0000000000
0000000000
0000000000
ENDCHAR
STARTCHAR 245f
ENCODING 9311
SWIDTH	-8531 0
DWIDTH	34 0
BBX 34	35 0 -1
BITMAP
0000000000
0000000000
0000000000
0000000000
0000000000
0000300000
0083f80000
00dffc0000
00ff7c0000
007c700000
0030f00000
0000e00000
0001c00000
0001c0c000
000380e000
0003807000
0007007000
0007007000
007fe0e000
01fffee000
039c1fe000
071807f000
063801fc00
0c7003fe00
0c60039f00
0ee0070f00
0fc00f0000
07800e0000
03001c0000
0000380000
0000700000
0000c00000
0000000000
0000000000
0000000000
ENDCHAR
STARTCHAR 2460
ENCODING 9312
SWIDTH	-8531 0
DWIDTH	34 0
BBX 34	35 0 -1
BITMAP
0000000000
0000000000
0000000000
0000000000
00e0000000
00f8000000
0038000000
0038000000
0031c00000
183fc00000
1fff808000
07f801e000
0030007800
0070003c00
0060003c00
03f0007c00
07f000d800
0e38000000
0c38000000
0c38000000
0c70030000
0e70030000
07f0030000
03e0030000
01e0038000
00e0038000
01c003c000
01c003c000
01c00fc000
00ffff8000
007ffe0000
001ff00000
0000000000
0000000000
0000000000
ENDCHAR
STARTCHAR 2461
ENCODING 9313
SWIDTH	-8531 0
DWIDTH	34 0
BBX 34	35 0 -1
BITMAP
0000000000
0000000000
0000000000
0000000000
0000c00000
0000f00000
0200780000
0300380000
0300700000
0380700000
0180700000
0183ff0000
01dfffc000
00fce1f000
00f0e07800
01e1c03c00
03e1c01c00
03e1c01e00
0773800e00
063b800e00
0e3f000e00
0c1f000e00
0c1f001c00
0c3f801c00
0e7f803800
07f3807800
07e000f000
03c001e000
018007c000
00001f0000
0000380000
0000000000
0000000000
0000000000
0000000000
ENDCHAR
STARTCHAR 2462
ENCODING 9314
SWIDTH	-8531 0
DWIDTH	34 0
BBX 34	35 0 -1
BITMAP
0000000000
0000000000
0000000000
0007000000
0003800000
0001c00000
0001e00000
0001e00000
00c1c00000
00f3800000
007f800000
001f800000
000fc00000
0007c00000
0007000000
0046000000
01c6020000
038e030000
01fc030000
00ffc18000
003ff1c000
000cf0c000
000c60e000
001c00e000
001c00e000
001c00e000
001c00e000
001c01e000
000e03c000
000f07c000
0007ff8000
0003ff0000
0000fc0000
0000000000
0000000000
ENDCHAR
STARTCHAR 2463
ENCODING 9315
SWIDTH	-8531 0
DWIDTH	34 0
BBX 34	35 0 -1
BITMAP
0000000000
0000000000
0000000000
0000000000
0000000000
0000000000
0000000000
0000000000
0000000000
0000c00000
0000700000
0038380000
0071f80000
0070300000
0038078000
00387fe000
001df8e000
001fc07000
063e007000
07ff007000
03e700e000
01839fe000
0003878000
0001c00000
0001c00000
0000e00000
0000e00000
0000f00000
0000700000
0000700000
0000600000
0000000000
0000000000
0000000000
0000000000
ENDCHAR
STARTCHAR 2464
ENCODING 9316
SWIDTH	-8531 0
DWIDTH	34 0
BBX 34	35 0 -1
BITMAP
0000000000
0000000000
0000000000
0000000000
0003c00000
0001f80000
00003c0000
00c01c0000
01f1fc0000
01c0780000
01e003f800
00e03ffe00
0071fc0e00
003ff00700
003f800700
007e000700
39fc000e00
1fee001e00
0f8e007c00
03071ff800
000707e000
0003800000
0003800000
0001c00000
0001c00000
0001e00000
0000e00000
0000f00000
0000f00000
0000700000
0000700000
0000200000
0000000000
0000000000
0000000000
ENDCHAR
STARTCHAR 2465
ENCODING 9317
SWIDTH	-8531 0
DWIDTH	34 0
BBX 34	35 0 -1
BITMAP
0000000000
0000000000
0000000000
0000000000
0000000000
0000000000
0000000000
0000000000
0000000000
0000000000
0000e00000
0000f00000
00c0380000
00e0180000
00607f0000
0061ffc000
00c3dbe000
00c718e000
00c6187000
00cc187000
00cc187000
00d8187000
00d8187000
00f118e000
007199e000
0078ffc000
00387f8000
00303e0000
0000700000
0000700000
0000e00000
0001800000
0000000000
0000000000
0000000000
ENDCHAR
STARTCHAR 2466
ENCODING 9318
SWIDTH	-8531 0
DWIDTH	34 0
BBX 34	35 0 -1
BITMAP
0000000000
0000000000
0000000000
0000000000
0000e00000
0000780000
0c00380000
0e003c0000
0700ff8000
0703ffe000
07071cf000
070e1c7800
061c1c3c00
06181c1c00
06301c1e00
0e301c0e00
0c601c0e00
0c601c0e00
0c601c0e00
0cc01c0e00
0ec41c1e00
06c61c1c00
07c71c3c00
07c39c7800
03c3fff000
03e0ffe000
01c03f0000
0080380000
0000380000
0000700000
0000700000
0000e00000
0001800000
0000000000
0000000000
ENDCHAR
STARTCHAR 2467
ENCODING 9319
SWIDTH	-8531 0
DWIDTH	34 0
BBX 34	35 0 -1
BITMAP
0000000000
0000000000
0000000000
0000000000
0000000000
0000000000
0000000000
0000000000
0000000000
0000000000
0001000000
0001c00000
0001e00000
0000f00000
0000e00000
0000e00000
0000c70000
0000ff8000
0000ff0000
0000c00000
0000c00000
0000c00000
0000c00000
0000c00000
0000c00000
001ff00000
007ffc0000
00f0ff0000
00e0ef8000
0071e38000
007fc00000
001f800000
0000000000
0000000000
0000000000
ENDCHAR
STARTCHAR 2468
ENCODING 9320
SWIDTH	-8531 0
DWIDTH	34 0
BBX 34	35 0 -1
BITMAP
0000000000
0000000000
0000000000
0007000000
0003c00000
0001e00000
0001e00000
0001e00000
0001e00000
0001c04000
0001c1e000
0001c7f000
0001ffe000
0001ff0000
0001c00000
0001c00000
0001c00000
0001c00000
0001c00000
0001c00000
0001c00000
0000e00000
0000e00000
0000e00000
007ff80000
01ffff0000
0383ffc000
0380efe000
0380e3f000
01e3e0e000
00ffc00000
003f800000
0000000000
0000000000
0000000000
ENDCHAR
STARTCHAR 2469
ENCODING 9321
SWIDTH	-8531 0
DWIDTH	34 0
BBX 34	35 0 -1
BITMAP
0000000000
0000000000
0000000000
0018000000
000c000000
0007000000
0003c00000
0001e00000
0000f00000
0001f00000
0007f00000
001e000000
0038000000
0030000000
0030000000
0070000000
0070000000
0070000000
00707f0000
0071ffc000
00e7c1e000
00ff00e000
00fc007000
00f8007000
01f0007000
00e000f000
004000e000
000001e000
000003c000
00000f8000
00007e0000
0001f80000
0000000000
0000000000
0000000000
ENDCHAR
STARTCHAR 246a
ENCODING 9322
SWIDTH	-8531 0
DWIDTH	34 0
BBX 34	35 0 -1
BITMAP
0000000000
0000000000
0000000000
0060000000
0070000000
0038380000
0038fc0000
0039ce0000
00398e0000
0033070000
0033070000
0077070000
0066070000
0066070000
006e070000
007c070000
007c070000
007c070000
0078070000
0078070000
0078070000
003c0e0000
00380e0000
00000e0000
00001c0000
00001c0000
0000380000
0000780000
0000700000
0000e00000
0001c00000
0003800000
0006000000
0000000000
0000000000
ENDCHAR
STARTCHAR 246b
ENCODING 9323
SWIDTH	-8531 0
DWIDTH	34 0
BBX 34	35 0 -1
BITMAP
0000000000
0000000000
0000000000
0000000000
0000000000
0000300000
0040f80000
0077fc0000
003fde0000
001e1e0000
000c3c0000
0000780000
0000700000
0000e00000
0001c00000
0003800000
0007000000
000e7f0000
001dffc000
003fc3e000
007f00e000
00fc00f000
01f8007000
01f0007000
01e0007000
01c3e07000
0007f8e000
000e3de000
000c0fc000
000e1f8000
0007fe0000
0003f80000
0000000000
0000000000
0000000000
ENDCHAR
STARTCHAR 246c
ENCODING 9324
SWIDTH	-8531 0
DWIDTH	34 0
BBX 34	35 0 -1
BITMAP
0000000000
0000000000
0000000000
00e0000000
0078000000
0038000000
0030000000
0030000000
003c0f0000
003c3f8000
007cf1c000
1bf9c1c000
1ffb81c000
0f3701c000
043e01c000
007c01c000
007801c000
00f0038000
00f0038000
01f0038000
03f0038000
0730038000
0f30038000
0e30038000
1e30038000
3c30038000
3938038180
11b801ff00
00f800fe00
0078007800
0078000000
0030000000
0000000000
0000000000
0000000000
ENDCHAR
STARTCHAR 246d
ENCODING 9325
SWIDTH	-8531 0
DWIDTH	34 0
BBX 34	35 0 -1
BITMAP
0000000000
0000000000
0000000000
0000000000
0000100000
0000f80000
0067fc0000
007f9c0000
003e380000
0018700000
0000600000
0000e00000
0001c00000
0003800000
0007000000
000e000000
001c7e0000
003fff8000
007f81e000
00fc00e000
03f0007000
07c0007000
0780007000
0700007000
060000f000
000000e000
000001e000
000003c000
00000f8000
00003e0000
0001fc0000
0007e00000
0000000000
0000000000
0000000000
ENDCHAR
STARTCHAR 246e
ENCODING 9326
SWIDTH	-8531 0
DWIDTH	34 0
BBX 34	35 0 -1
BITMAP
0000000000
0000000000
0000000000
0000000000
0000000000
0000000000
0000000000
0000000000
0000000000
0000000000
0000000000
0018000000
001e000000
000e000000
000c000000
000f000000
013e1e0000
01fc7f8000
01edffc000
008f81c000
001e01e000
003c00e000
007c00e000
006c00e000
00ec01c000
01cc01c000
03cc038000
03ec070000
033c1e0000
001c380000
0008000000
0000000000
0000000000
0000000000
0000000000
ENDCHAR
STARTCHAR 246f
ENCODING 9327
SWIDTH	-8531 0
DWIDTH	34 0
BBX 34	35 0 -1
BITMAP
0000000000
0000000000
0000000000
0030000000
0018000000
001c000000
000e000000
001c000000
0018000000
001c000000
003e000000
007f000000
1dfe0fc000
0fdc7ff000
0718f0f800
033bc03800
003f003c00
007e001c00
007c001c00
00f8001c00
00f8001c00
01d8001c00
03d8003c00
0398003800
070c007800
0f8c00f000
1ecc01e000
1c7c07c000
1c7c0f0000
183c1c0000
001c000000
0018000000
0000000000
0000000000
0000000000
ENDCHAR
STARTCHAR 2470
ENCODING 9328
SWIDTH	-8531 0
DWIDTH	34 0
BBX 34	35 0 -1
BITMAP
0000000000
0000000000
0000000000
0000000000
0000000000
0000e00000
0001f00000
00cff80000
00ff380000
007e780000
0030700000
0000e00000
0000c00000
0001c00000
0003800000
00033f8000
0007ffe000
001fc0f000
007e007800
00ee003800
01cc003800
039c003800
0718003800
0638003800
06707c3800
0761ff7000
07e1c7f000
03c301e000
038383c000
0101ff8000
0000fe0000
0000000000
0000000000
0000000000
0000000000
ENDCHAR
STARTCHAR 2471
ENCODING 9329
SWIDTH	-8531 0
DWIDTH	34 0
BBX 34	35 0 -1
BITMAP
0000000000
0000000000
0000000000
0000000000
0000700000
0001f80000
006ff00000
007ee00000
0039c00000
0011800000
0003800000
00077c0000
000ffe0000
001f870000
003e038000
0078038000
00f0038000
01e7e38000
01cff70000
008c7e0000
000c7c0000
000ff00000
0007c00000
000f000000
001e000000
003807c000
00f01ff000
01f8787800
07fcf03c00
1f0fe07e00
1e07c1fe00
0c03801c00
0000000000
0000000000
0000000000
ENDCHAR
STARTCHAR 2472
ENCODING 9330
SWIDTH	-8531 0
DWIDTH	34 0
BBX 34	35 0 -1
BITMAP
0000000000
0000000000
0000000000
000f000000
000f800000
0003800000
00030c0000
00077e0000
0607fe0000
07fff00000
03fe000000
001c000000
001c000000
003800c000
0038007000
0070007800
006fc1f800
00ffe3f800
03f0ef8000
07c0fe0000
0781f80000
0703f00000
0607f00000
000e700000
001c700000
0038700000
0030200000
0070000000
0070000000
0078038000
003fffc000
003fffc000
0007ff0000
0000000000
0000000000
ENDCHAR
STARTCHAR 2473
ENCODING 9331
SWIDTH	-8531 0
DWIDTH	34 0
BBX 34	35 0 -1
BITMAP
0000000000
0000000000
0000000000
0000000000
0001c00000
0000e00000
0000700000
0000f00000
0000f00000
0001e00000
0001c00000
0003800000
0003800000
0007000000
000e000000
000e000000
001c000000
0018000000
0030000000
007f800000
007fc00000
00f0e00000
01c0e00200
01c0e00600
0380e00c00
0780e01c00
0700e03800
0f00707800
1e0070f000
1e007fe000
1c003fc000
0c001f0000
0000000000
0000000000
0000000000
ENDCHAR
STARTCHAR 2521
ENCODING 9505
SWIDTH	-8531 0
DWIDTH	34 0
BBX 34	35 0 -1
BITMAP
0000000000
0000000000
0000000000
0000000000
0000000000
0000000000
0000000000
0000000000
0000000000
0000000000
0000018000
0403ffc000
07fffee000
03fe00f000
01c001f000
000003c000
0003078000
0001de0000
0000f80000
0000e00000
0001c00000
0001c00000
0001c00000
0003800000
0003800000
0007000000
0007000000
000e000000
000c000000
001c000000
0018000000
0030000000
0020000000
0000000000
0000000000
ENDCHAR
STARTCHAR 2522
ENCODING 9506
SWIDTH	-8531 0
DWIDTH	34 0
BBX 34	35 0 -1
BITMAP
0000000000
0000000000
0000000000
0000000000
0000004000
00003fe000
0c0ffff000
0fffc07800
07f0007c00
038000f800
000001e000
0003078000
0001ce0000
0000f80000
0000e00000
0000e00000
0000e00000
0001c00000
0001c00000
0001c00000
0003800000
0003800000
0007000000
0007000000
000e000000
000e000000
001c000000
0018000000
0038000000
0030000000
0060000000
0040000000
0000000000
0000000000
0000000000
ENDCHAR
STARTCHAR 2523
ENCODING 9507
SWIDTH	-8531 0
DWIDTH	34 0
BBX 34	35 0 -1
BITMAP
0000000000
0000000000
0000000000
0000000000
0000000000
0000000000
0000000000
0000000000
0000180000
00000c0000
00000e0000
00001f0000
00003e0000
0000780000
0000f00000
0001e00000
0003c00000
0007800000
000fc00000
001ee00000
0038e00000
00f0e00000
01e0e00000
0380e00000
0200e00000
0000e00000
0000e00000
0000e00000
0001e00000
0001e00000
0000e00000
0000e00000
0000400000
0000000000
0000000000
ENDCHAR
STARTCHAR 2524
ENCODING 9508
SWIDTH	-8531 0
DWIDTH	34 0
BBX 34	35 0 -1
BITMAP
0000000000
0000000000
0000000000
0000060000
0000038000
000003c000
000007c000
00000f0000
00000e0000
00001c0000
00003c0000
0000780000
0000f00000
0001e00000
0003e00000
0007f00000
000f700000
001e700000
0078700000
00f0700000
01c0700000
0780700000
0e00700000
0000700000
0000700000
0000700000
0000700000
0000700000
0000f00000
0000f00000
0000700000
0000700000
0000200000
0000000000
0000000000
ENDCHAR
STARTCHAR 2525
ENCODING 9509
SWIDTH	-8531 0
DWIDTH	34 0
BBX 34	35 0 -1
BITMAP
0000000000
0000000000
0000000000
0000000000
0000000000
0000000000
0000000000
0000000000
0000000000
0002000000
0007800000
0001e00000
0001c00000
0001c10000
0383ff8000
01ffffc000
00ff81e000
00c001e000
00e003c000
00e0038000
00e0078000
00e0070000
00e00f0000
00e00e0000
00401c0000
00003c0000
0000780000
0000700000
0000e00000
0001c00000
0003800000
0007000000
000c000000
0000000000
0000000000
ENDCHAR
STARTCHAR 2526
ENCODING 9510
SWIDTH	-8531 0
DWIDTH	34 0
BBX 34	35 0 -1
BITMAP
0000000000
0000000000
0000000000
0000000000
0003800000
0003e00000
0001e00000
0001c00000
0001c06000
0e03fff000
07fffff800
03fe007800
0380007000
0380007000
038000f000
038000e000
01c001e000
01c001c000
01c003c000
01c0038000
0180078000
0000070000
00000e0000
00001e0000
00003c0000
0000380000
0000700000
0000e00000
0001c00000
0003800000
0007000000
000c000000
0000000000
0000000000
0000000000
ENDCHAR
STARTCHAR 2527
ENCODING 9511
SWIDTH	-8531 0
DWIDTH	34 0
BBX 34	35 0 -1
BITMAP
0000000000
0000000000
0000000000
0000000000
0000000000
0000000000
0000000000
0000000000
0000000000
0000000000
0000000000
0000000000
0000000000
0000000000
0000070000
00807f8000
01ffffc000
007fc00000
0031800000
0000c00000
0000e00000
0000e00000
0000e00000
0001c00000
0001c00000
0001806000
0607fff000
07fffff800
03fc001800
01c0000000
0000000000
0000000000
0000000000
0000000000
0000000000
ENDCHAR
STARTCHAR 2528
ENCODING 9512
SWIDTH	-8531 0
DWIDTH	34 0
BBX 34	35 0 -1
BITMAP
0000000000
0000000000
0000000000
0000000000
0000000000
0000000000
0000000000
0000000000
0000020000
0000078000
0300ffc000
03ffffc000
01ffc00000
0043000000
0001c00000
0000e00000
0000e00000
0000e00000
0000e00000
0000e00000
0001c00000
0001c00000
0001c00000
1001801800
1c0ffffc00
0ffffffe00
07f0007e00
0380000000
0000000000
0000000000
0000000000
0000000000
0000000000
0000000000
0000000000
ENDCHAR
STARTCHAR 2529
ENCODING 9513
SWIDTH	-8531 0
DWIDTH	34 0
BBX 34	35 0 -1
BITMAP
0000000000
0000000000
0000000000
0000000000
0000000000
0000000000
0000000000
0000000000
0000000000
0001c00000
0000e00000
0000780000
0000780000
0000700000
000071c000
0307ffe000
01fffff000
00f9f07000
0043f00000
0003f00000
0007700000
000f700000
001e700000
003c700000
0078700000
00e0700000
01c0700000
0300700000
0607700000
0003f00000
0000f00000
0000600000
0000000000
0000000000
0000000000
ENDCHAR
STARTCHAR 252a
ENCODING 9514
SWIDTH	-8531 0
DWIDTH	34 0
BBX 34	35 0 -1
BITMAP
0000000000
0000000000
0000000000
0000000000
0001c00000
0000f00000
0000780000
0000780000
0000700000
0000701000
000070f800
0c03fffc00
0ffffffc00
07fcf00000
0381f00000
0001f00000
0003f00000
0007f00000
000f700000
000e700000
001c700000
0038700000
0070700000
00e0700000
03c0700000
0700700000
0e00700000
1800700000
000ff00000
0001f00000
0000700000
0000600000
0000000000
0000000000
0000000000
ENDCHAR
STARTCHAR 252b
ENCODING 9515
SWIDTH	-8531 0
DWIDTH	34 0
BBX 34	35 0 -1
BITMAP
0000000000
0000000000
0000000000
0000000000
0001800000
0001e00000
0000f00000
0000f00000
0000e00000
0000e00000
0000e00000
0001c06000
0301fff000
03fffff800
01ffc07800
00e3807000
0003807000
0007007000
000700e000
000e00e000
000e00e000
001c00e000
003801c000
003001c000
007001c000
00e0038000
01c0038000
0380c70000
07007f0000
0c003e0000
00001c0000
0000180000
0000000000
0000000000
0000000000
ENDCHAR
STARTCHAR 252c
ENCODING 9516
SWIDTH	-8531 0
DWIDTH	34 0
BBX 34	35 0 -1
BITMAP
0000000000
0000000000
0000000000
0000000000
0003000c00
0003c00f00
0001e00780
0001e06380
0001c07980
0001c03c00
0001c01c00
000380cc00
0603ffe000
07fffff000
03ff80f000
01c700e000
000700e000
000e00e000
000e01c000
001c01c000
001c01c000
003801c000
0070038000
0060038000
00e0038000
01c0070000
0380070000
07018e0000
0e00fe0000
18007c0000
0000380000
0000300000
0000000000
0000000000
0000000000
ENDCHAR
STARTCHAR 252d
ENCODING 9517
SWIDTH	-8531 0
DWIDTH	34 0
BBX 34	35 0 -1
BITMAP
0000000000
0000000000
0000000000
003c000000
001f000000
0007000000
0007000000
0003818000
000387c000
00039fc000
0001fe0000
0003f00000
041fc00000
07fec00000
03f0e01c00
0180e07e00
000071fc00
000077e000
00007f0000
0001f80000
0007f80000
083f380000
0ff81c0000
03e01c0000
01801c0000
00000e0000
00000e0000
0000070000
0000070000
0000078000
0000078000
0000030000
0000000000
0000000000
0000000000
ENDCHAR
STARTCHAR 252e
ENCODING 9518
SWIDTH	-8531 0
DWIDTH	34 0
BBX 34	35 0 -1
BITMAP
0000000000
0000000000
0000000c00
003c000f00
001f00c780
000700f380
0007007980
0003813800
0003879800
00039f8000
0001fe0000
0003f00000
041fc00000
07fec00000
03f0e01c00
0180e07e00
000071fc00
000077e000
00007f0000
0001f80000
0007f80000
083f380000
0ff81c0000
03e01c0000
01801c0000
00000e0000
00000e0000
0000070000
0000070000
0000078000
0000078000
0000030000
0000000000
0000000000
0000000000
ENDCHAR
STARTCHAR 252f
ENCODING 9519
SWIDTH	-8531 0
DWIDTH	34 0
BBX 34	35 0 -1
BITMAP
0000000000
0000000000
0000000000
0002000000
0007000000
0003800000
0003c00000
000380c000
0007ffe000
0007fff000
000f01f000
001e01c000
001c03c000
0038038000
0070078000
00e0070000
01c00e0000
03801e0000
06001c0000
0c00380000
0000780000
0000f00000
0000e00000
0001c00000
0003800000
0007000000
000e000000
003c000000
0078000000
00e0000000
01c0000000
0300000000
0000000000
0000000000
0000000000
ENDCHAR
STARTCHAR 2530
ENCODING 9520
SWIDTH	-8531 0
DWIDTH	34 0
BBX 34	35 0 -1
BITMAP
0000000000
0000000000
0000000c00
0002000f00
0007000780
0003803380
0003c03980
0003809c00
0007ffde00
0007ffee00
000f01f000
001e01e000
001c03c000
0038038000
0070078000
00e0070000
01c00e0000
03801e0000
06001c0000
0c00380000
0000780000
0000f00000
0000e00000
0001c00000
0003800000
0007000000
000e000000
003c000000
0078000000
00e0000000
01c0000000
0300000000
0000000000
0000000000
0000000000
ENDCHAR
STARTCHAR 2531
ENCODING 9521
SWIDTH	-8531 0
DWIDTH	34 0
BBX 34	35 0 -1
BITMAP
0000000000
0000000000
0000000000
0000000000
0000000000
0070000000
0038000000
001c000000
001e000000
003c000000
0038001800
0078007c00
00f00ffe00
00fffffe00
01dffc0000
0380700000
0700380000
0e00380000
1c00380000
3000380000
0000700000
0000700000
0000e00000
0000e00000
0001c00000
0003800000
0003800000
0007000000
000e000000
001c000000
0038000000
0070000000
00c0000000
0000000000
0000000000
ENDCHAR
STARTCHAR 2532
ENCODING 9522
SWIDTH	-8531 0
DWIDTH	34 0
BBX 34	35 0 -1
BITMAP
0000000000
0000000000
0000000c00
0000000f00
0000000780
0070006380
0038007980
001c003c00
001e001c00
003c000c00
0038002000
0078007800
00f00ffc00
00fffffc00
01dffc0000
0380700000
0700380000
0e00380000
1c00380000
3000380000
0000700000
0000700000
0000e00000
0000e00000
0001c00000
0003800000
0003800000
0007000000
000e000000
001c000000
0038000000
0070000000
00c0000000
0000000000
0000000000
ENDCHAR
STARTCHAR 2533
ENCODING 9523
SWIDTH	-8531 0
DWIDTH	34 0
BBX 34	35 0 -1
BITMAP
0000000000
0000000000
0000000000
0000000000
0000000000
0000000000
0000000000
0000000000
0000018000
0601ffc000
07ffffe000
03ff81f000
018001e000
000001e000
000001c000
000001c000
000001c000
0000038000
0000038000
0000038000
0000038000
0000070000
0000070000
0000078000
060fffc000
07ffffc000
03f0000000
0180000000
0000000000
0000000000
0000000000
0000000000
0000000000
0000000000
0000000000
ENDCHAR
STARTCHAR 2534
ENCODING 9524
SWIDTH	-8531 0
DWIDTH	34 0
BBX 34	35 0 -1
BITMAP
0000000000
0000000000
0000000c00
0000000f00
0000000780
0000006380
0000007980
0000003c00
0000019c00
0601ffcc00
07ffffe000
03ff81f000
018001e000
000001e000
000001c000
000001c000
000001c000
0000038000
0000038000
0000038000
0000038000
0000070000
0000070000
0000078000
060fffc000
07ffffc000
03f0000000
0180000000
0000000000
0000000000
0000000000
0000000000
0000000000
0000000000
0000000000
ENDCHAR
STARTCHAR 2535
ENCODING 9525
SWIDTH	-8531 0
DWIDTH	34 0
BBX 34	35 0 -1
BITMAP
0000000000
0000000000
0000000000
0000000000
00001c0000
00000f0000
0070078000
003c070000
001e070000
001c070000
001c070800
001c071c00
181ffffe00
1fffffff00
0ffc070200
061c070000
001c070000
001c070000
001c0e0000
001c0e0000
003c0e0000
003c0e0000
00181c0000
00181c0000
00001c0000
0000380000
0000380000
0000700000
0000700000
0000e00000
0000c00000
0001800000
0003000000
0000000000
0000000000
ENDCHAR
STARTCHAR 2536
ENCODING 9526
SWIDTH	-8531 0
DWIDTH	34 0
BBX 34	35 0 -1
BITMAP
0000000000
0000000000
0000000c00
0000000f00
00001c0780
00000f3380
007007b980
003c071c00
001e071e00
001c070e00
001c070000
001c071c00
181ffffe00
1fffffff00
0ffc070200
061c070000
001c070000
001c070000
001c0e0000
001c0e0000
003c0e0000
003c0e0000
00181c0000
00181c0000
00001c0000
0000380000
0000380000
0000700000
0000700000
0000e00000
0000c00000
0001800000
0003000000
0000000000
0000000000
ENDCHAR
STARTCHAR 2537
ENCODING 9527
SWIDTH	-8531 0
DWIDTH	34 0
BBX 34	35 0 -1
BITMAP
0000000000
0000000000
0000000000
0000000000
00c0000000
0070000000
003c000000
001f000000
000f800000
0003800000
0001000000
0000000000
0000000200
0e00000600
07c0000c00
03f0001800
00f8003800
0030007000
000000e000
000001c000
0000038000
00000f0000
00001e0000
00003c0000
0000780000
0001f00000
0603e00000
03cf800000
01ff000000
00fe000000
0038000000
0018000000
0000000000
0000000000
0000000000
ENDCHAR
STARTCHAR 2538
ENCODING 9528
SWIDTH	-8531 0
DWIDTH	34 0
BBX 34	35 0 -1
BITMAP
0000000000
0000000000
0000000c00
0000000f00
00c0000780
0070006380
003c007980
001f003c00
000f801c00
0003800c00
0001000000
0000000000
0000000200
0e00000600
07c0000c00
03f0001800
00f8003800
0030007000
000000e000
000001c000
0000038000
00000f0000
00001e0000
00003c0000
0000780000
0001f00000
0603e00000
03cf800000
01ff000000
00fe000000
0038000000
0018000000
0000000000
0000000000
0000000000
ENDCHAR
STARTCHAR 2539
ENCODING 9529
SWIDTH	-8531 0
DWIDTH	34 0
BBX 34	35 0 -1
BITMAP
0000000000
0000000000
0000000000
0000000000
0000000000
0000000000
0000030000
00003f8000
0383ffc000
01ffe3c000
00fe078000
0070070000
00200f0000
00001e0000
00001c0000
0000380000
0000780000
0000700000
0000e00000
0001c00000
0003e00000
0007f80000
000f1e0000
001e0f0000
003c078000
00f803e000
01e001f000
03c000f800
0700007c00
0c00003c00
1800001800
0000000000
0000000000
0000000000
0000000000
ENDCHAR
STARTCHAR 253a
ENCODING 9530
SWIDTH	-8531 0
DWIDTH	34 0
BBX 34	35 0 -1
BITMAP
0000000000
0000000000
0000000c00
0000000f00
0000000780
0000006380
0000027980
00003f3c00
0383ff9c00
01ffe3cc00
00fe078000
0070070000
00200f0000
00001e0000
00001c0000
0000380000
0000780000
0000700000
0000e00000
0001c00000
0003e00000
0007f80000
000f1e0000
001e0f0000
003c078000
00f803e000
01e001f000
03c000f800
0700007c00
0c00003c00
1800001800
0000000000
0000000000
0000000000
0000000000
ENDCHAR
STARTCHAR 253b
ENCODING 9531
SWIDTH	-8531 0
DWIDTH	34 0
BBX 34	35 0 -1
BITMAP
0000000000
0000000000
0000000000
0000000000
0030000000
003c000000
001e000000
001e000000
001c000000
001c000000
001c000000
001c00c000
001c07e000
001c7ff000
001ff87800
007f80f800
1ffc01e000
0f9c03c000
061c070000
001c0e0000
001c180000
001c000000
001c000000
001c000000
001c000000
001e000000
000e003000
000ffff800
0007fff800
0001fff000
0000000000
0000000000
0000000000
0000000000
0000000000
ENDCHAR
STARTCHAR 253c
ENCODING 9532
SWIDTH	-8531 0
DWIDTH	34 0
BBX 34	35 0 -1
BITMAP
0000000000
0000000000
0000000000
0000000c00
0030000f00
003c000780
001e006380
001e007980
001c003c00
001c001c00
001c000c00
001c00c000
001c07e000
001c7ff000
001ff87800
007f80f800
1ffc01e000
0f9c03c000
061c070000
001c0e0000
001c180000
001c000000
001c000000
001c000000
001c000000
001e000000
000e003000
000ffff800
0007fff800
0001fff000
0000000000
0000000000
0000000000
0000000000
0000000000
ENDCHAR
STARTCHAR 253d
ENCODING 9533
SWIDTH	-8531 0
DWIDTH	34 0
BBX 34	35 0 -1
BITMAP
0000000000
0000000000
0000000000
0000000000
0000020000
0000038000
040001e000
060000f000
030000f000
038000e000
01c000e000
01c001c000
00e001c000
00e001c000
0070038000
0070038000
0020070000
0000070000
00000e0000
00001e0000
00001c0000
0000380000
0000700000
0000f00000
0000e00000
0001c00000
0003800000
0007000000
000e000000
001c000000
0038000000
0060000000
0000000000
0000000000
0000000000
ENDCHAR
STARTCHAR 253e
ENCODING 9534
SWIDTH	-8531 0
DWIDTH	34 0
BBX 34	35 0 -1
BITMAP
0000000000
0000000000
0000000c00
0000000f00
0000000780
0000063380
0400033980
0600019c00
030001ce00
038000ee00
01c001e000
01c001c000
00e001c000
00e003c000
0070038000
0070038000
0020070000
0000070000
00000e0000
00001e0000
00003c0000
0000380000
0000700000
0000f00000
0000e00000
0001c00000
0003800000
0007000000
000e000000
001c000000
0038000000
0060000000
0000000000
0000000000
0000000000
ENDCHAR
STARTCHAR 253f
ENCODING 9535
SWIDTH	-8531 0
DWIDTH	34 0
BBX 34	35 0 -1
BITMAP
0000000000
0000000000
0000000000
0000000000
000c000000
000e000000
0007018000
0007ffc000
0007ffe000
000f01e000
000e01c000
001c03c000
0038038000
0078078000
00fc070000
01ee0f0000
03878e0000
0703de0000
0c01fc0000
0000f80000
0000700000
0000f00000
0001e00000
0003c00000
0007800000
000f000000
001e000000
0038000000
00f0000000
01e0000000
0380000000
0600000000
0c00000000
0000000000
0000000000
ENDCHAR
STARTCHAR 2540
ENCODING 9536
SWIDTH	-8531 0
DWIDTH	34 0
BBX 34	35 0 -1
BITMAP
0000000000
0000000000
0000000c00
0000000f00
000c000780
000e003380
0007013980
0007ff9c00
0007ffce00
000f01ee00
000e01e400
001c03c000
0038038000
0078078000
00fc070000
01ee0f0000
03878e0000
0703de0000
0c01fc0000
0000f80000
0000700000
0000f00000
0001e00000
0003c00000
0007800000
000f000000
001e000000
0038000000
00f0000000
01e0000000
0380000000
0600000000
0c00000000
0000000000
0000000000
ENDCHAR
STARTCHAR 2541
ENCODING 9537
SWIDTH	-8531 0
DWIDTH	34 0
BBX 34	35 0 -1
BITMAP
0000000000
0000000000
0000000000
0000100000
00001c0000
00000e0000
00003f0000
0000ff0000
0007f00000
003fc00000
01fdc00000
01c0e00000
0000e00000
0000e00000
0000e07000
180ffffc00
1ffffffe00
0ff8e00c00
0600e00000
0000e00000
0000e00000
0001c00000
0001c00000
0001c00000
0003800000
0003800000
0007000000
0007000000
000e000000
001c000000
0018000000
0030000000
0020000000
0000000000
0000000000
ENDCHAR
STARTCHAR 2542
ENCODING 9538
SWIDTH	-8531 0
DWIDTH	34 0
BBX 34	35 0 -1
BITMAP
0000000000
0000000000
0000000000
0000100000
00001c0c00
00000e0f00
00003f0780
0000ff6380
0007f07980
003fc03c00
01fdc01c00
01c0e00c00
0000e00000
0000e00000
0000e07000
180ffffc00
1ffffffe00
0ff8e00c00
0600e00000
0000e00000
0000e00000
0001c00000
0001c00000
0001c00000
0003800000
0003800000
0007000000
0007000000
000e000000
001c000000
0018000000
0030000000
0020000000
0000000000
0000000000
ENDCHAR
STARTCHAR 2543
ENCODING 9539
SWIDTH	-8531 0
DWIDTH	34 0
BBX 34	35 0 -1
BITMAP
0000000000
0000000000
0000000000
0000000000
0000000000
0000000000
0000000000
0000000000
0000000000
0000000000
0000000000
0002008000
000300c000
010180e000
0181c0f000
00c1c1e000
00e0c1c000
00e0c3c000
0060038000
0060070000
00000f0000
00000e0000
00001c0000
00003c0000
0000780000
0000700000
0000e00000
0001c00000
0003800000
0006000000
000c000000
0008000000
0000000000
0000000000
0000000000
ENDCHAR
STARTCHAR 2544
ENCODING 9540
SWIDTH	-8531 0
DWIDTH	34 0
BBX 34	35 0 -1
BITMAP
0000000000
0000000000
0000000000
0000000000
0000000000
0008000000
000c000000
000601c000
080700e000
0c07007000
0603807800
0703807c00
070380f800
038100e000
038001e000
010001c000
0000038000
0000078000
00000f0000
00000e0000
00001c0000
00003c0000
0000780000
0000700000
0000e00000
0001c00000
0003800000
0007000000
000e000000
001c000000
0030000000
0020000000
0000000000
0000000000
0000000000
ENDCHAR
STARTCHAR 2545
ENCODING 9541
SWIDTH	-8531 0
DWIDTH	34 0
BBX 34	35 0 -1
BITMAP
0000000000
0000000000
0000000e00
0000000700
0000006380
0008003b80
000c003980
0006019c00
080700dc00
0c0700e000
060380f000
070380e000
070381e000
038101c000
038003c000
0100038000
0000078000
0000070000
00000f0000
00000e0000
00001c0000
00003c0000
0000780000
0000700000
0000e00000
0001c00000
0003800000
0007000000
000e000000
001c000000
0030000000
0020000000
0000000000
0000000000
0000000000
ENDCHAR
STARTCHAR 2546
ENCODING 9542
SWIDTH	-8531 0
DWIDTH	34 0
BBX 34	35 0 -1
BITMAP
0000000000
0000000000
0000000000
0000000000
0000038000
01c0ffc000
00ffffc000
007fc00000
0000000000
0000000000
0000000000
0000003000
0c03fff800
0ffffffc00
07ffc1f800
0300e00000
0000700000
0000700000
0000700000
0000700000
0000e00000
0000e00000
0000e00000
0001c00000
0001c00000
0003800000
0003800000
0007000000
0007000000
000e000000
000c000000
0018000000
0030000000
0000000000
0000000000
ENDCHAR
STARTCHAR 2547
ENCODING 9543
SWIDTH	-8531 0
DWIDTH	34 0
BBX 34	35 0 -1
BITMAP
0000000000
0000000000
0000000c00
0000000f00
0000038780
01c0ffc380
00ffffc180
007fc01800
0000001e00
0000000f00
0000000700
0000003300
0c03fff800
0ffffff800
07ffc1f800
0300e00000
0000700000
0000700000
0000700000
0000700000
0000e00000
0000e00000
0000e00000
0001c00000
0001c00000
0003800000
0003800000
0007000000
0007000000
000e000000
000c000000
0018000000
0030000000
0000000000
0000000000
ENDCHAR
STARTCHAR 2548
ENCODING 9544
SWIDTH	-8531 0
DWIDTH	34 0
BBX 34	35 0 -1
BITMAP
0000000000
0000000000
0000000000
0018000000
001e000000
000f000000
000f000000
000f000000
000e000000
000e000000
000e000000
000e000000
000e000000
000e000000
000f800000
000ff00000
000e7c0000
000e1f0000
000e0f8000
000e03c000
000e01c000
000e008000
000e000000
000e000000
000e000000
000e000000
000e000000
000e000000
001e000000
001e000000
001e000000
000e000000
000c000000
0000000000
0000000000
ENDCHAR
STARTCHAR 2549
ENCODING 9545
SWIDTH	-8531 0
DWIDTH	34 0
BBX 34	35 0 -1
BITMAP
0000000000
0000000000
0000000000
0018000000
001e00c000
000f00f000
000f007800
000f063800
000e079800
000e03c000
000e01c000
000e00c000
000e000000
000e000000
000f800000
000ff00000
000e7c0000
000e1f0000
000e0f8000
000e03c000
000e01c000
000e008000
000e000000
000e000000
000e000000
000e000000
000e000000
000e000000
001e000000
001e000000
001e000000
000e000000
000c000000
0000000000
0000000000
ENDCHAR
STARTCHAR 254a
ENCODING 9546
SWIDTH	-8531 0
DWIDTH	34 0
BBX 34	35 0 -1
BITMAP
0000000000
0000000000
0000000000
0001800000
0001c00000
0000e00000
0000f00000
0000e00000
0000e00000
0000e00000
0000e00000
0000e03800
180ffffc00
1ffffffe00
0ff0e00600
0700e00000
0000e00000
0000e00000
0000e00000
0000e00000
0001c00000
0001c00000
0001c00000
0003800000
0003800000
0007000000
0007000000
000e000000
000e000000
001c000000
0018000000
0030000000
0020000000
0000000000
0000000000
ENDCHAR
STARTCHAR 254b
ENCODING 9547
SWIDTH	-8531 0
DWIDTH	34 0
BBX 34	35 0 -1
BITMAP
0000000000
0000000000
0000000000
0000000000
0000000000
0000000000
0000000000
0000000000
0000000000
0000000000
0000078000
0307ffc000
03ffffc000
01fff80000
0060000000
0000000000
0000000000
0000000000
0000000000
0000000000
0000000000
0000003000
0000fff800
181ffffc00
1ffffffe00
0ffc000e00
0780000000
0300000000
0000000000
0000000000
0000000000
0000000000
0000000000
0000000000
0000000000
ENDCHAR
STARTCHAR 254c
ENCODING 9548
SWIDTH	-8531 0
DWIDTH	34 0
BBX 34	35 0 -1
BITMAP
0000000000
0000000000
0000000000
0000000000
0000000000
0000008000
000001c000
00c0ffe000
00fffff000
007fc1f000
003001c000
000001c000
000003c000
0000038000
0060078000
0038070000
001e0f0000
00078e0000
0003dc0000
0000fc0000
0000780000
0000fc0000
0001fe0000
0001cf0000
0003878000
000703c000
000e03c000
001c01c000
0078000000
00f0000000
01c0000000
0380000000
0600000000
0000000000
0000000000
ENDCHAR
STARTCHAR 254d
ENCODING 9549
SWIDTH	-8531 0
DWIDTH	34 0
BBX 34	35 0 -1
BITMAP
0000000000
0000000000
0000000000
000c000000
0007800000
0003f00000
0000f80000
0000300000
0000020000
00001f0000
0207ff8000
03ffef8000
01f81e0000
00c03c0000
0000780000
0002f00000
0003e00000
0007c00000
000fd80000
001fce0000
0079c78000
00f1c3e000
03c1c1f000
0781c0f800
0e01c07c00
1801c03800
0001c00000
0003c00000
0003c00000
0001c00000
0001e00000
0001c00000
0000800000
0000000000
0000000000
ENDCHAR
STARTCHAR 254e
ENCODING 9550
SWIDTH	-8531 0
DWIDTH	34 0
BBX 34	35 0 -1
BITMAP
0000000000
0000000000
0000000000
0000000000
0000000000
0000060000
0000030000
0000038000
000001c000
000001e000
000003e000
0000038000
0000078000
0000070000
00000e0000
00001e0000
00003c0000
0000380000
0000700000
0000f00000
0001e00000
0003c00000
0007800000
000f000000
001e000000
003c000000
0078000000
00e0000000
01c0000000
0380000000
0600000000
0c00000000
0800000000
0000000000
0000000000
ENDCHAR
STARTCHAR 254f
ENCODING 9551
SWIDTH	-8531 0
DWIDTH	34 0
BBX 34	35 0 -1
BITMAP
0000000000
0000000000
0000000000
0000000000
0000000000
0000000000
0000000000
0000000000
0000000000
0000000000
0000000000
0000180000
00380c0000
001c0e0000
000e070000
001e038000
001c03c000
003c01e000
007800f000
0070007800
00f0007c00
01e0003c00
01c0001e00
0380000f00
0700000f00
0e00000700
1c00000200
3000000000
0000000000
0000000000
0000000000
0000000000
0000000000
0000000000
0000000000
ENDCHAR
STARTCHAR 2550
ENCODING 9552
SWIDTH	-8531 0
DWIDTH	34 0
BBX 34	35 0 -1
BITMAP
0000000000
0000000000
0000000000
0000000000
0000000000
0000001800
0000001e00
0000000f00
000000c700
000000f300
0000007800
0000183800
00380c1800
001c0e0000
000e070000
001e038000
001c03c000
003c01e000
007800f000
0070007800
00f0007c00
01e0003c00
01c0001e00
0380000f00
0700000f00
0e00000700
1c00000200
3000000000
0000000000
0000000000
0000000000
0000000000
0000000000
0000000000
0000000000
ENDCHAR
STARTCHAR 2551
ENCODING 9553
SWIDTH	-8531 0
DWIDTH	34 0
BBX 34	35 0 -1
BITMAP
0000000000
0000000000
0000000000
0000000000
0000000000
0000000000
0000001e00
0000003f00
0000007380
0000006180
0000006180
0000187380
00380c3f00
001c0e1e00
000e070000
001e038000
001c03c000
003c01e000
007800f000
0070007800
00f0007c00
01e0003c00
01c0001e00
0380000f00
0700000f00
0e00000700
1c00000200
3000000000
0000000000
0000000000
0000000000
0000000000
0000000000
0000000000
0000000000
ENDCHAR
STARTCHAR 2552
ENCODING 9554
SWIDTH	-8531 0
DWIDTH	34 0
BBX 34	35 0 -1
BITMAP
0000000000
0000000000
0000000000
0000000000
0000000000
0300000000
01c0000000
00f0000000
00f0000000
00e0000000
00e0000000
00e0000000
00e0000000
00e0070000
00e01f8000
00e1ff8000
00fffc0000
00ffc00000
00e0000000
00e0000000
00e0000000
00e0000000
00e0000000
00e0000000
00e0000000
00e0000000
0070000000
007801c000
007fffe000
003fffe000
000ffe0000
0000000000
0000000000
0000000000
0000000000
ENDCHAR
STARTCHAR 2553
ENCODING 9555
SWIDTH	-8531 0
DWIDTH	34 0
BBX 34	35 0 -1
BITMAP
0000000000
0000000000
0000000000
0000000000
0000003000
0300003c00
01c0001e00
00f0018e00
00f001e600
00e000f000
00e0007000
00e0003000
00e0000000
00e0070000
00e01f8000
00e1ff8000
00fffc0000
00ffc00000
00e0000000
00e0000000
00e0000000
00e0000000
00e0000000
00e0000000
00e0000000
00e0000000
0070000000
007801c000
007fffe000
003fffe000
000ffe0000
0000000000
0000000000
0000000000
0000000000
ENDCHAR
STARTCHAR 2554
ENCODING 9556
SWIDTH	-8531 0
DWIDTH	34 0
BBX 34	35 0 -1
BITMAP
0000000000
0000000000
0000000000
0000000000
0000003c00
0300007e00
01c000e700
00f000c300
00f000c300
00e000e700
00e0007e00
00e0003c00
00e0000000
00e0070000
00e01f8000
00e1ff8000
00fffc0000
00ffc00000
00e0000000
00e0000000
00e0000000
00e0000000
00e0000000
00e0000000
00e0000000
00e0000000
0070000000
007801c000
007fffe000
003fffe000
000ffe0000
0000000000
0000000000
0000000000
0000000000
ENDCHAR
STARTCHAR 2555
ENCODING 9557
SWIDTH	-8531 0
DWIDTH	34 0
BBX 34	35 0 -1
BITMAP
0000000000
0000000000
0000000000
0000000000
0000000000
0000000000
0000006000
0e01fff000
07fffff800
03ff807800
01c0007000
000000f000
000000e000
000000e000
000001c000
000001c000
0000038000
0000038000
0000070000
00000f0000
00000e0000
00001c0000
00003c0000
0000780000
0000700000
0000e00000
0001c00000
0003800000
0007000000
000e000000
0018000000
0030000000
0000000000
0000000000
0000000000
ENDCHAR
STARTCHAR 2556
ENCODING 9558
SWIDTH	-8531 0
DWIDTH	34 0
BBX 34	35 0 -1
BITMAP
0000000000
0000000000
0000000e00
0000000780
0000003380
0000003980
0000019c00
0e01ffce00
07ffffee00
03ff80f000
01c0007800
000000f000
000000e000
000000e000
000001c000
000001c000
0000038000
0000038000
0000070000
00000f0000
00000e0000
00001c0000
00003c0000
0000780000
0000700000
0000e00000
0001c00000
0003800000
0007000000
000e000000
0018000000
0030000000
0000000000
0000000000
0000000000
ENDCHAR
STARTCHAR 2557
ENCODING 9559
SWIDTH	-8531 0
DWIDTH	34 0
BBX 34	35 0 -1
BITMAP
0000000000
0000000000
0000001e00
0000003f00
0000007380
0000006180
0000066180
1c03ff7380
0fffffbf00
07ff03de00
038001e000
000001e000
000001c000
000001c000
0000038000
0000038000
0000070000
0000070000
00000e0000
00001e0000
00001c0000
0000380000
0000780000
0000f00000
0000e00000
0001c00000
0003800000
0007000000
000e000000
001c000000
0030000000
0060000000
0000000000
0000000000
0000000000
ENDCHAR
STARTCHAR 2558
ENCODING 9560
SWIDTH	-8531 0
DWIDTH	34 0
BBX 34	35 0 -1
BITMAP
0000000000
0000000000
0000000000
0000000000
0000000000
0000000000
0000000000
0000000000
0000000000
0000000000
0003000000
000f800000
001fe00000
0038f00000
00f0780000
11e03c0000
3fc01e0000
1f000f8000
0f0007c000
020001f000
000000f800
0000007e00
0000003f00
0000000f00
0000000700
0000000000
0000000000
0000000000
0000000000
0000000000
0000000000
0000000000
0000000000
0000000000
0000000000
ENDCHAR
STARTCHAR 2559
ENCODING 9561
SWIDTH	-8531 0
DWIDTH	34 0
BBX 34	35 0 -1
BITMAP
0000000000
0000000000
0000000000
0000000000
0000000000
0000006000
0000007800
0000003c00
0000031c00
000003cc00
000301e000
000f80e000
001fe06000
0038f00000
00f0780000
11e03c0000
3fc01e0000
1f000f8000
0f0007c000
020001f000
000000f800
0000007e00
0000003f00
0000000f00
0000000700
0000000000
0000000000
0000000000
0000000000
0000000000
0000000000
0000000000
0000000000
0000000000
0000000000
ENDCHAR
STARTCHAR 255a
ENCODING 9562
SWIDTH	-8531 0
DWIDTH	34 0
BBX 34	35 0 -1
BITMAP
0000000000
0000000000
0000000000
0000000000
0000000000
000000f000
000001f800
0000039c00
0000030c00
0000030c00
0003039c00
000f81f800
001fe0f000
0038f00000
00f0780000
11e03c0000
3fc01e0000
1f000f8000
0f0007c000
020001f000
000000f800
0000007e00
0000003f00
0000000f00
0000000700
0000000000
0000000000
0000000000
0000000000
0000000000
0000000000
0000000000
0000000000
0000000000
0000000000
ENDCHAR
STARTCHAR 255b
ENCODING 9563
SWIDTH	-8531 0
DWIDTH	34 0
BBX 34	35 0 -1
BITMAP
0000000000
0000000000
0000000000
0000000000
0007000000
0003c00000
0001e00000
0001e00000
0001c00000
0001c00000
0001c00000
0001c0f000
1c03fff800
0ffffffc00
07ffc01800
0381c00000
0001c00000
0001c00000
0101c20000
01c1c38000
01c1c1c000
01c1c0e000
0381c07000
0381c07800
0701c03c00
0701c01e00
0e01c01e00
0c39c00e00
181fc00c00
1007c00000
0003c00000
0001800000
0000000000
0000000000
0000000000
ENDCHAR
STARTCHAR 255c
ENCODING 9564
SWIDTH	-8531 0
DWIDTH	34 0
BBX 34	35 0 -1
BITMAP
0000000000
0000000000
0000001800
0000001e00
0003818f00
0003c1e700
0001e0f300
0001e07000
0001e03000
0001c00000
0001c00000
0001c07000
0c03fff800
0ffffffc00
07ffc01c00
0381c00000
0001c00000
0001c00000
0001c70000
01c1c38000
01e1c1c000
01e1c1e000
03c1c0f000
0381c07000
0701c07800
0601c03c00
0c01c03c00
1819c01c00
101fc00000
0007c00000
0001c00000
0001800000
0000000000
0000000000
0000000000
ENDCHAR
STARTCHAR 255d
ENCODING 9565
SWIDTH	-8531 0
DWIDTH	34 0
BBX 34	35 0 -1
BITMAP
0000000000
0000000000
0000001e00
0000003f00
0007007380
0003c06180
0001e06180
0001e07380
0001c03f00
0001c01e00
0001c00000
0001c0f000
1c03fff800
0ffffffc00
07ffc01800
0381c00000
0001c00000
0001c00000
0101c20000
01c1c38000
01c1c1c000
01c1c0e000
0381c07000
0381c07800
0701c03c00
0701c01e00
0e01c01e00
0c39c00e00
181fc00c00
1007c00000
0003c00000
0001800000
0000000000
0000000000
0000000000
ENDCHAR
STARTCHAR 255e
ENCODING 9566
SWIDTH	-8531 0
DWIDTH	34 0
BBX 34	35 0 -1
BITMAP
0000000000
0000000000
0000000000
0000000000
0000000000
0000000000
0000000000
0000000000
0000001800
00001ffc00
3003fffe00
38fff00f00
1fff001f00
0ff0003e00
0600007800
000000f000
000001e000
000003c000
0000070000
00380e0000
001e3c0000
0007f00000
0003e00000
0001e00000
0000f00000
0000780000
00003c0000
00003c0000
00001c0000
0000080000
0000000000
0000000000
0000000000
0000000000
0000000000
ENDCHAR
STARTCHAR 255f
ENCODING 9567
SWIDTH	-8531 0
DWIDTH	34 0
BBX 34	35 0 -1
BITMAP
0000000000
0000000000
0000000000
0000000000
0060000000
0038000000
001f000000
0007f00000
0003fe0000
00007f0000
00000f0000
0000030000
0000000000
0060000000
0038000000
001f000000
000ff00000
0003fc0000
00007e0000
00000e0000
0000040000
0000000000
00c0000000
0078000000
003e000000
001fc00000
0007f80000
0001fe0000
00003f0000
00000f8000
0000038000
0000010000
0000000000
0000000000
0000000000
ENDCHAR
STARTCHAR 2560
ENCODING 9568
SWIDTH	-8531 0
DWIDTH	34 0
BBX 34	35 0 -1
BITMAP
0000000000
0000000000
0000000000
0000000000
0000000000
0001000000
0001c00000
0000e00000
0000f00000
0000f00000
0001e00000
0001c00000
0001c00000
0003800000
0003800000
0007000000
0007000000
000e000000
000e000000
001c060000
001c030000
0038018000
003001c000
007000e000
0060007000
00c007f800
0dfffff800
0ffff83c00
07fe001c00
03e0001c00
0180000c00
0000000000
0000000000
0000000000
0000000000
ENDCHAR
STARTCHAR 2561
ENCODING 9569
SWIDTH	-8531 0
DWIDTH	34 0
BBX 34	35 0 -1
BITMAP
0000000000
0000000000
0000000000
0000000000
0000060000
0000030000
0000038000
000001c000
000001e000
000003e000
0000038000
0000078000
0030070000
001c0e0000
000e1e0000
00079c0000
0003f80000
0000f00000
0000f80000
0000fc0000
0001fe0000
0003cf0000
00078f8000
000f078000
001e038000
003c000000
0078000000
00f0000000
01c0000000
0380000000
0600000000
0c00000000
0000000000
0000000000
0000000000
ENDCHAR
STARTCHAR 2562
ENCODING 9570
SWIDTH	-8531 0
DWIDTH	34 0
BBX 34	35 0 -1
BITMAP
0000000000
0000000000
0000000000
0000000000
0000000000
0000000000
0000038000
00000fe000
038fffe000
01fffc0000
00f6000000
0003000000
0003c00000
0003c00000
0003800000
0003807000
000383fc00
1803fffe00
1c7ffc0c00
0fff800000
07c3800000
0203800000
0003800000
0003800000
0003800000
0003800000
0003800000
0003c03000
0001fffc00
0000fffc00
00003ff800
0000000000
0000000000
0000000000
0000000000
ENDCHAR
STARTCHAR 2563
ENCODING 9571
SWIDTH	-8531 0
DWIDTH	34 0
BBX 34	35 0 -1
BITMAP
0000000000
0000000000
0000000000
0000000000
0000000000
0000000000
0000000000
0000000000
0000000000
0000000000
0038000000
003e000000
000f000000
000600c000
000703e000
00073ff000
0003fc7800
000fe07800
0e3f80e000
07fb83c000
03e3870000
0181cc0000
0001c00000
0001c00000
0000e00000
0000e00000
0000e00000
0000e00000
0000700000
0000700000
0000700000
0000200000
0000000000
0000000000
0000000000
ENDCHAR
STARTCHAR 2564
ENCODING 9572
SWIDTH	-8531 0
DWIDTH	34 0
BBX 34	35 0 -1
BITMAP
0000000000
0000000000
0000000000
0000000000
0000000000
00f8000000
007e000000
001e000000
001c000000
000e003000
000e01f800
00071ffc00
0007ff1e00
0007f81e00
003fc03e00
30ff007800
1fe380e000
0f8381c000
0603838000
0001c60000
0001c00000
0001c00000
0000e00000
0000e00000
0000e00000
0000f00000
0000700000
0000700000
0000780000
0000380000
0000380000
0000380000
0000300000
0000000000
0000000000
ENDCHAR
STARTCHAR 2565
ENCODING 9573
SWIDTH	-8531 0
DWIDTH	34 0
BBX 34	35 0 -1
BITMAP
0000000000
0000000000
0000000000
0000000000
0000000000
0000000000
0000000000
0000000000
0000000000
0000000000
0000000000
0000000000
0000000000
0000000000
00000c0000
0061fe0000
007fff0000
003fcf0000
00180e0000
00000e0000
00001c0000
00001c0000
00001c0000
0000180000
0000380000
0000306000
071ffff000
07fffff800
03f8001800
00c0000000
0000000000
0000000000
0000000000
0000000000
0000000000
ENDCHAR
STARTCHAR 2566
ENCODING 9574
SWIDTH	-8531 0
DWIDTH	34 0
BBX 34	35 0 -1
BITMAP
0000000000
0000000000
0000000000
0000000000
0000000000
0000000000
0000000000
0000000000
00000c0000
0301fe0000
03ffff0000
01ff8f8000
00e00f0000
00000e0000
00000e0000
00001c0000
00001c0000
00001c0000
0000380000
0000380000
0000380000
0000700000
0000703000
303ffffc00
3ffffffe00
1ff8001e00
0f00000000
0400000000
0000000000
0000000000
0000000000
0000000000
0000000000
0000000000
0000000000
ENDCHAR
STARTCHAR 2567
ENCODING 9575
SWIDTH	-8531 0
DWIDTH	34 0
BBX 34	35 0 -1
BITMAP
0000000000
0000000000
0000000000
0000000000
0000000000
0000000000
0000000000
0000000000
0000000000
0000000000
0000000000
0000000000
00000e0000
0061ff0000
007fff8000
003f878000
0018070000
0000070000
0000070000
0000070000
0061ff0000
007fff0000
003f070000
00100e0000
00000e0000
00000e0000
00000c0000
00607f0000
007fff8000
003f800000
0010000000
0000000000
0000000000
0000000000
0000000000
ENDCHAR
STARTCHAR 2568
ENCODING 9576
SWIDTH	-8531 0
DWIDTH	34 0
BBX 34	35 0 -1
BITMAP
0000000000
0000000000
0000000000
0000000000
0000000000
0000000000
0000008000
020001c000
0300ffe000
03fffff000
01ff81f000
00f801e000
000001e000
000001e000
000001c000
000001c000
010001c000
0181ffc000
01ffffc000
00fe03c000
0060038000
0000038000
0000038000
0000070000
0000070000
0200060000
03003f8000
03ffffc000
01ffffc000
00f0000000
0000000000
0000000000
0000000000
0000000000
0000000000
ENDCHAR
STARTCHAR 2569
ENCODING 9577
SWIDTH	-8531 0
DWIDTH	34 0
BBX 34	35 0 -1
BITMAP
0000000000
0000000000
0000000000
0000000000
01000c0000
01c1ff0000
00ffff0000
007f000000
0000000000
0000000000
0000000000
040001c000
0601ffe000
07fffff000
03fe01f000
01e001c000
000003c000
0000038000
0000078000
0000070000
00000f0000
00001e0000
00001c0000
00003c0000
0000780000
0000f00000
0001e00000
0003c00000
0007800000
000e000000
003c000000
0070000000
00c0000000
0000000000
0000000000
ENDCHAR
STARTCHAR 256a
ENCODING 9578
SWIDTH	-8531 0
DWIDTH	34 0
BBX 34	35 0 -1
BITMAP
0000000000
0000000000
0000000000
00000c0000
00600e0000
0070070000
0038078000
003c078000
003c070000
0038070000
0038070000
0038070000
0038070000
0038070000
0038070000
0038070000
0038070000
0038070000
00780f0000
00780e0000
00380e0000
00101e0000
00001c0000
00001c0000
0000380000
0000380000
0000700000
0000700000
0000e00000
0001c00000
0001800000
0003000000
0006000000
0000000000
0000000000
ENDCHAR
STARTCHAR 256b
ENCODING 9579
SWIDTH	-8531 0
DWIDTH	34 0
BBX 34	35 0 -1
BITMAP
0000000000
0000000000
0000000000
0000000000
0000000000
0001800000
0001c00000
0000e00000
0180f00000
01c0f00000
00e0e00000
00f0e00000
00f0e00000
00e0e00000
00e0e00000
00e0e00100
00e0e00300
00e0e00600
00e0e00e00
01c0e00c00
01c0e01c00
01c0e03800
01c0e07000
0380e0e000
0380e3c000
0700e78000
0601ff0000
0e01fe0000
1c00f80000
1800700000
3000300000
2000000000
0000000000
0000000000
0000000000
ENDCHAR
STARTCHAR 256c
ENCODING 9580
SWIDTH	-8531 0
DWIDTH	34 0
BBX 34	35 0 -1
BITMAP
0000000000
0000000000
0000000000
0000000000
0000000000
0380000000
01e0000000
00f0000000
00f0000000
00e0000000
00e0000000
00e0000000
00e0000600
00e0000c00
00e0001800
00e0003800
00e0007000
00e000e000
00e001c000
00e0038000
00e0070000
00e00e0000
00e01c0000
00e0780000
00e0f00000
00e3e00000
01ffc00000
01ff800000
00fe000000
0078000000
0030000000
0000000000
0000000000
0000000000
0000000000
ENDCHAR
STARTCHAR 256d
ENCODING 9581
SWIDTH	-8531 0
DWIDTH	34 0
BBX 34	35 0 -1
BITMAP
0000000000
0000000000
0000000000
0000000000
0000000000
0000000000
0000000000
0000000000
0700006000
03c0fff000
03fffff800
01ffc0f800
01c0007000
01c0007000
01c0007000
01c000e000
00e000e000
00e000e000
00e000e000
00e001c000
00e001c000
00e001c000
00e0018000
00e0018000
00ffffc000
00ffffc000
01e007c000
00e0000000
0040000000
0000000000
0000000000
0000000000
0000000000
0000000000
0000000000
ENDCHAR
STARTCHAR 256e
ENCODING 9582
SWIDTH	-8531 0
DWIDTH	34 0
BBX 34	35 0 -1
BITMAP
0000000000
0000000000
0000000000
0000000000
0000000000
0000000000
0000000000
0000000000
0000000000
0000000000
0000000000
0000000000
0180030000
01c3ff8000
00ffffc000
00fc03e000
00e0038000
00e0078000
0060070000
00700f0000
00700e0000
00701c0000
00201c0000
0000380000
0000700000
0000700000
0000e00000
0001c00000
0003800000
0003000000
0006000000
000c000000
0000000000
0000000000
0000000000
ENDCHAR
STARTCHAR 256f
ENCODING 9583
SWIDTH	-8531 0
DWIDTH	34 0
BBX 34	35 0 -1
BITMAP
0000000000
0000000000
0000000000
0000000000
0000000000
0000006000
0603fff000
07fffff800
03ff007800
0380007000
038000f000
038000e000
01c000e000
01c001c000
01c001c000
03c0038000
01c0038000
01c0070000
0080070000
00000e0000
00001c0000
00001c0000
0000380000
0000700000
0000f00000
0000e00000
0001c00000
0003800000
0007000000
000e000000
0018000000
0010000000
0000000000
0000000000
0000000000
ENDCHAR
STARTCHAR 2570
ENCODING 9584
SWIDTH	-8531 0
DWIDTH	34 0
BBX 34	35 0 -1
BITMAP
0000000000
0000000000
0000000000
0000000000
0000c00000
0000f00000
0000780000
0000780000
0000700000
0000700000
0000718000
0301ffe000
03fffff000
01fe706000
0000700000
00e0700000
00f0700000
0078700000
0070700000
0070700000
0070707000
187ffffc00
1ffffffe00
0fe0700c00
0600700000
0000700000
0000700000
0000700000
0000700000
0000f00000
0000f00000
0000700000
0000600000
0000000000
0000000000
ENDCHAR
STARTCHAR 2571
ENCODING 9585
SWIDTH	-8531 0
DWIDTH	34 0
BBX 34	35 0 -1
BITMAP
0000000000
0000000000
0000000000
0000000000
0000000000
0000000000
0000000000
0000000000
0000000000
0000000000
000000c000
0600ffe000
07fffff000
03ff01e000
00c003c000
0000078000
00020e0000
00079c0000
0003f00000
0001e00000
0001e00000
0001c00000
0001c00000
0001c00000
0001c00000
000187f800
387ffffc00
3ffffffe00
0ff0000400
0600000000
0000000000
0000000000
0000000000
0000000000
0000000000
ENDCHAR
STARTCHAR 2572
ENCODING 9586
SWIDTH	-8531 0
DWIDTH	34 0
BBX 34	35 0 -1
BITMAP
0000000000
0000000000
0000000000
0000000000
0000000000
000000c000
00003fe000
0307fff000
03fff07800
01fc007000
00c0007000
000000f000
000000e000
000001e000
00003fc000
0307ffc000
03ffe38000
01fc078000
0060070000
00000f0000
00001e0000
00001c0000
0000380000
0000780000
0000f00000
0000e00000
0001c00000
0003800000
0007000000
000e000000
001c000000
0030000000
0060000000
0000000000
0000000000
ENDCHAR
STARTCHAR 2573
ENCODING 9587
SWIDTH	-8531 0
DWIDTH	34 0
BBX 34	35 0 -1
BITMAP
0000000000
0000000000
0000000000
0000000000
0000000000
0000000000
0000000000
0700000000
03e0000000
00f8000000
007e000200
001e000600
000e000c00
0004001c00
0000003800
0000007000
000000e000
000001c000
000003c000
0000078000
00000f0000
00001e0000
00003c0000
0000780000
0000f00000
0003e00000
0307800000
03df000000
01fe000000
00f8000000
0070000000
0000000000
0000000000
0000000000
0000000000
ENDCHAR
STARTCHAR 2574
ENCODING 9588
SWIDTH	-8531 0
DWIDTH	34 0
BBX 34	35 0 -1
BITMAP
0000000000
0000000000
0000000c00
0000000f00
000380c780
0003e0f380
0001e07980
0001c03800
0001c05800
0e03ffe000
07fffff000
03fe007800
0380007000
0380007000
038000f000
038000e000
01c001e000
01c001c000
01c003c000
01c0038000
0180078000
0000070000
00000e0000
00001e0000
00003c0000
0000380000
0000700000
0000e00000
0001c00000
0003800000
0007000000
000c000000
0000000000
0000000000
0000000000
ENDCHAR
STARTCHAR 2575
ENCODING 9589
SWIDTH	-8531 0
DWIDTH	34 0
BBX 34	35 0 -1
BITMAP
0000000000
0000000000
0000000000
0000000000
0000000000
0000000000
0000000000
0000000000
0000000000
0007000000
0003c00000
0001e00000
0000e00000
0001c00000
0001c30000
0101ff8000
01ffffc000
00ff83c000
00c7038000
0007038000
000e038000
000e038000
001c070000
001c070000
0038070000
00700e0000
00600e0000
00c39c0000
0181fc0000
0300780000
0000700000
0000200000
0000000000
0000000000
0000000000
ENDCHAR
STARTCHAR 2576
ENCODING 9590
SWIDTH	-8531 0
DWIDTH	34 0
BBX 34	35 0 -1
BITMAP
0000000000
0000000000
0000000000
0000000000
0000000000
0000000000
0000000000
0000000000
0000000000
0000000000
0018000000
000c000000
000e000000
001e000000
001c00c000
003c1fe000
003bfff000
007ff07000
00f0300000
01c0380000
0380380000
0600700000
0400700000
0000e00000
0000e00000
0001c00000
0003800000
0003800000
0007000000
000e000000
001c000000
0030000000
0000000000
0000000000
0000000000
ENDCHAR
STARTCHAR 2621
ENCODING 9761
SWIDTH	-8531 0
DWIDTH	34 0
BBX 34	35 0 -1
BITMAP
0000000000
0000000000
0000000000
0000400000
0000c00000
0000e00000
0001e00000
0001f00000
0001f00000
0003700000
0003380000
0003380000
0006380000
00061c0000
000c1c0000
000c0e0000
00180e0000
00180e0000
0018070000
0030070000
0030070000
007fff8000
007fff8000
00c001c000
00c001c000
00c001c000
018000e000
018000e000
030000e000
0300007000
1fc003fe00
1fc003fe00
0000000000
0000000000
0000000000
ENDCHAR
STARTCHAR 2622
ENCODING 9762
SWIDTH	-8531 0
DWIDTH	34 0
BBX 34	35 0 -1
BITMAP
0000000000
0000000000
0000000000
0000000000
03fffe0000
03ffff8000
007003c000
007001c000
007000e000
007000e000
007000e000
007000e000
007000e000
007001c000
007003c000
00700f8000
007ffe0000
007fff8000
007003e000
007000f000
0070007000
0070003800
0070003800
0070003800
0070003800
0070003800
0070007000
007000f000
007001e000
00700fc000
03ffff0000
03fff80000
0000000000
0000000000
0000000000
ENDCHAR
STARTCHAR 2623
ENCODING 9763
SWIDTH	-8531 0
DWIDTH	34 0
BBX 34	35 0 -1
BITMAP
0000000000
0000000000
0000000000
0000000000
03ffffc000
03ffffe000
007000e000
0070006000
0070006000
0070006000
0070006000
0070000000
0070000000
0070000000
0070000000
0070000000
0070000000
0070000000
0070000000
0070000000
0070000000
0070000000
0070000000
0070000000
0070000000
0070000000
0070000000
0070000000
0070000000
0070000000
03fe000000
03fe000000
0000000000
0000000000
0000000000
ENDCHAR
STARTCHAR 2624
ENCODING 9764
SWIDTH	-8531 0
DWIDTH	34 0
BBX 34	35 0 -1
BITMAP
0000000000
0000000000
0000000000
0000400000
0000c00000
0000e00000
0001e00000
0001f00000
0001f00000
0003700000
0003380000
0003380000
0006380000
00061c0000
000c1c0000
000c0e0000
00180e0000
00180e0000
0018070000
0030070000
0030070000
0060038000
0060038000
00c001c000
00c001c000
00c001c000
018000e000
018000e000
030000e000
03fffff000
03fffff000
03fffff000
0000000000
0000000000
0000000000
ENDCHAR
STARTCHAR 2625
ENCODING 9765
SWIDTH	-8531 0
DWIDTH	34 0
BBX 34	35 0 -1
BITMAP
0000000000
0000000000
0000000000
0000000000
03ffffc000
03ffffe000
007000e000
0070006000
0070006000
0070006000
0070006000
0070000000
0070000000
0070180000
0070180000
0070380000
007ff80000
007ff80000
0070380000
0070180000
0070180000
0070180000
0070000000
0070000000
0070000000
0070006000
0070006000
0070006000
0070006000
007000e000
03ffffe000
03ffffc000
0000000000
0000000000
0000000000
ENDCHAR
STARTCHAR 2626
ENCODING 9766
SWIDTH	-8531 0
DWIDTH	34 0
BBX 34	35 0 -1
BITMAP
0000000000
0000000000
0000000000
0000000000
01fffff000
03fffff000
038001e000
038001c000
0300038000
0300078000
03000f0000
00000e0000
00001c0000
00003c0000
0000780000
0000700000
0000e00000
0001e00000
0003c00000
0003800000
0007000000
000f000000
001e000000
001c000000
0038000000
0078001800
00f0001800
00e0001800
01c0003800
03c0003800
07fffff800
07fffff000
0000000000
0000000000
0000000000
ENDCHAR
STARTCHAR 2627
ENCODING 9767
SWIDTH	-8531 0
DWIDTH	34 0
BBX 34	35 0 -1
BITMAP
0000000000
0000000000
0000000000
0000000000
0ff80ff800
0ff80ff800
01c001c000
01c001c000
01c001c000
01c001c000
01c001c000
01c001c000
01c001c000
01c001c000
01c001c000
01c001c000
01ffffc000
01ffffc000
01c001c000
01c001c000
01c001c000
01c001c000
01c001c000
01c001c000
01c001c000
01c001c000
01c001c000
01c001c000
01c001c000
01c001c000
0ff80ff800
0ff80ff800
0000000000
0000000000
0000000000
ENDCHAR
STARTCHAR 2628
ENCODING 9768
SWIDTH	-8531 0
DWIDTH	34 0
BBX 34	35 0 -1
BITMAP
0000000000
0000000000
0000000000
0000000000
0007f80000
001ffe0000
007c0f8000
0070038000
00e001c000
01c000e000
01c000e000
0380007000
0380007000
0380007000
070c0c3800
070c0c3800
070ffc3800
070ffc3800
070ffc3800
070c0c3800
070c0c3800
0700003800
0380007000
0380007000
0380007000
01c000e000
01c000e000
00e001c000
00f003c000
007c0f8000
001ffe0000
0007f80000
0000000000
0000000000
0000000000
ENDCHAR
STARTCHAR 2629
ENCODING 9769
SWIDTH	-8531 0
DWIDTH	34 0
BBX 34	35 0 -1
BITMAP
0000000000
0000000000
0000000000
0000000000
001ffc0000
001ffc0000
0001c00000
0001c00000
0001c00000
0001c00000
0001c00000
0001c00000
0001c00000
0001c00000
0001c00000
0001c00000
0001c00000
0001c00000
0001c00000
0001c00000
0001c00000
0001c00000
0001c00000
0001c00000
0001c00000
0001c00000
0001c00000
0001c00000
0001c00000
0001c00000
001ffc0000
001ffc0000
0000000000
0000000000
0000000000
ENDCHAR
STARTCHAR 262a
ENCODING 9770
SWIDTH	-8531 0
DWIDTH	34 0
BBX 34	35 0 -1
BITMAP
0000000000
0000000000
0000000000
0000000000
0ff81ff000
0ff81ff000
01c0038000
01c0070000
01c00e0000
01c01c0000
01c0380000
01c0700000
01c0600000
01c0c00000
01c1c00000
01c3800000
01c7c00000
01cfe00000
01dce00000
01f8700000
01f0380000
01e0380000
01c01c0000
01c01e0000
01c00e0000
01c0070000
01c0070000
01c0038000
01c003c000
01c001c000
0ff80ffc00
0ff80ffc00
0000000000
0000000000
0000000000
ENDCHAR
STARTCHAR 262b
ENCODING 9771
SWIDTH	-8531 0
DWIDTH	34 0
BBX 34	35 0 -1
BITMAP
0000000000
0000000000
0000000000
0000400000
0000c00000
0000e00000
0001e00000
0001f00000
0001f00000
0003700000
0003380000
0003380000
0006380000
00061c0000
000c1c0000
000c0e0000
00180e0000
00180e0000
0018070000
0030070000
0030070000
0060038000
0060038000
00c001c000
00c001c000
00c001c000
018000e000
018000e000
030000e000
0300007000
1fc003fe00
1fc003fe00
0000000000
0000000000
0000000000
ENDCHAR
STARTCHAR 262c
ENCODING 9772
SWIDTH	-8531 0
DWIDTH	34 0
BBX 34	35 0 -1
BITMAP
0000000000
0000000000
0000000000
0000000000
1f00003e00
1f00003e00
0780007800
0780007800
07c000f800
07c000f800
06e001b800
06e001b800
0670033800
0670033800
0638063800
0638063800
061c0c3800
061c0c3800
060e183800
060e183800
0607303800
0607303800
0603e03800
0603e03800
0601c03800
0601c03800
0600803800
0600003800
0600003800
0600003800
3f8001ff00
3f8001ff00
0000000000
0000000000
0000000000
ENDCHAR
STARTCHAR 262d
ENCODING 9773
SWIDTH	-8531 0
DWIDTH	34 0
BBX 34	35 0 -1
BITMAP
0000000000
0000000000
0000000000
0000000000
07e001fc00
07f001fc00
01f0006000
01b8006000
01bc006000
019c006000
018e006000
018f006000
0187006000
0183806000
0183c06000
0181c06000
0180e06000
0180e06000
0180706000
0180786000
0180386000
01801c6000
01801e6000
01800e6000
0180076000
018007e000
018003e000
018001e000
018001e000
018000e000
07f0006000
07f0006000
0000000000
0000000000
0000000000
ENDCHAR
STARTCHAR 262e
ENCODING 9774
SWIDTH	-8531 0
DWIDTH	34 0
BBX 34	35 0 -1
BITMAP
0000000000
0000000000
0000000000
0000000000
00fffff800
00fffff800
00fffff800
01c0007000
0180003000
0100001000
0100001000
0000000000
0000000000
0000000000
0040004000
0040004000
007fffc000
00ffffc000
00ffff8000
0080008000
0080008000
0000000000
0000000000
0000000000
0000000000
0200002000
0200002000
0300006000
030000e000
07ffffc000
07ffffc000
07ffffc000
0000000000
0000000000
0000000000
ENDCHAR
STARTCHAR 262f
ENCODING 9775
SWIDTH	-8531 0
DWIDTH	34 0
BBX 34	35 0 -1
BITMAP
0000000000
0000000000
0000000000
0000000000
0007f80000
001ffe0000
007c0f8000
0070038000
00e001c000
01c000e000
01c000e000
0380007000
0380007000
0380007000
0700003800
0700003800
0700003800
0700003800
0700003800
0700003800
0700003800
0700003800
0380007000
0380007000
0380007000
01c000e000
01c000e000
00e001c000
00f003c000
007c0f8000
001ffe0000
0007f80000
0000000000
0000000000
0000000000
ENDCHAR
STARTCHAR 2630
ENCODING 9776
SWIDTH	-8531 0
DWIDTH	34 0
BBX 34	35 0 -1
BITMAP
0000000000
0000000000
0000000000
0000000000
0ffffffc00
0ffffffc00
01c000e000
01c000e000
01c000e000
01c000e000
01c000e000
01c000e000
01c000e000
01c000e000
01c000e000
01c000e000
01c000e000
01c000e000
01c000e000
01c000e000
01c000e000
01c000e000
01c000e000
01c000e000
01c000e000
01c000e000
01c000e000
01c000e000
01c000e000
01c000e000
0ff807fc00
0ff807fc00
0000000000
0000000000
0000000000
ENDCHAR
STARTCHAR 2631
ENCODING 9777
SWIDTH	-8531 0
DWIDTH	34 0
BBX 34	35 0 -1
BITMAP
0000000000
0000000000
0000000000
0000000000
03fffc0000
03ffff0000
007007c000
007001e000
007000e000
0070007000
0070007000
0070007000
0070007000
0070007000
007000e000
007000e000
007001c000
00700f8000
007fff0000
007ff80000
0070000000
0070000000
0070000000
0070000000
0070000000
0070000000
0070000000
0070000000
0070000000
0070000000
03fe000000
03fe000000
0000000000
0000000000
0000000000
ENDCHAR
STARTCHAR 2632
ENCODING 9778
SWIDTH	-8531 0
DWIDTH	34 0
BBX 34	35 0 -1
BITMAP
0000000000
0000000000
0000000000
0000000000
03ffffc000
03ffffe000
01e000e000
00f0006000
0078006000
0038006000
001c000000
001e000000
000e000000
0007000000
0007800000
0003c00000
0001c00000
0001e00000
0001c00000
0003800000
0007000000
0006000000
000c000000
001c000000
0038006000
0070006000
0060006000
00c0006000
01c000e000
03ffffe000
07ffffe000
07ffffc000
0000000000
0000000000
0000000000
ENDCHAR
STARTCHAR 2633
ENCODING 9779
SWIDTH	-8531 0
DWIDTH	34 0
BBX 34	35 0 -1
BITMAP
0000000000
0000000000
0000000000
0000000000
07fffff000
0ffffff800
0e01c03800
0e01c03800
0c01c01800
0c01c01800
0c01c01800
0001c00000
0001c00000
0001c00000
0001c00000
0001c00000
0001c00000
0001c00000
0001c00000
0001c00000
0001c00000
0001c00000
0001c00000
0001c00000
0001c00000
0001c00000
0001c00000
0001c00000
0001c00000
0001c00000
000ff80000
000ff80000
0000000000
0000000000
0000000000
ENDCHAR
STARTCHAR 2634
ENCODING 9780
SWIDTH	-8531 0
DWIDTH	34 0
BBX 34	35 0 -1
BITMAP
0000000000
0000000000
0000000000
0000000000
00f0078000
03fc1fe000
07fe3ff000
070e387000
0e07f03800
0c03e01800
0801c00800
0001c00000
0001c00000
0001c00000
0001c00000
0001c00000
0001c00000
0001c00000
0001c00000
0001c00000
0001c00000
0001c00000
0001c00000
0001c00000
0001c00000
0001c00000
0001c00000
0001c00000
0001c00000
0001c00000
000ff80000
000ff80000
0000000000
0000000000
0000000000
ENDCHAR
STARTCHAR 2635
ENCODING 9781
SWIDTH	-8531 0
DWIDTH	34 0
BBX 34	35 0 -1
BITMAP
0000000000
0000000000
0000000000
0000000000
000ff80000
000ff80000
0001c00000
0001c00000
0001c00000
001ffc0000
007fff0000
01f1c7c000
03c1c1e000
0781c0f000
0701c07000
0f01c07800
0e01c03800
0e01c03800
0e01c03800
0e01c03800
0f01c07800
0701c07000
0781c0f000
03c1c1e000
01f1c7c000
007fff0000
001ffc0000
0001c00000
0001c00000
0001c00000
000ff80000
000ff80000
0000000000
0000000000
0000000000
ENDCHAR
STARTCHAR 2636
ENCODING 9782
SWIDTH	-8531 0
DWIDTH	34 0
BBX 34	35 0 -1
BITMAP
0000000000
0000000000
0000000000
0000000000
07f801fc00
07f801fc00
01e0007000
00f000e000
007000c000
0038018000
003c038000
001e070000
000e060000
00070c0000
00079c0000
0003f80000
0001f00000
0000e00000
0001f00000
0001f00000
0003380000
00073c0000
00061e0000
000c0e0000
001c0f0000
0038078000
007003c000
006001c000
00c001e000
01c000f000
07f803fc00
07f803fc00
0000000000
0000000000
0000000000
ENDCHAR
STARTCHAR 2637
ENCODING 9783
SWIDTH	-8531 0
DWIDTH	34 0
BBX 34	35 0 -1
BITMAP
0000000000
0000000000
0000000000
0000000000
060ff83000
0f0ff87800
1f81c0fc00
1981c0cc00
11c1c1c400
01c1c1c000
01c1c1c000
01c1c1c000
00e1c38000
00e1c38000
00e1c38000
00e1c38000
00e1c38000
0071c70000
0071c70000
0071c70000
0071c70000
0039ce0000
0039ce0000
001ddc0000
000ff80000
0007f00000
0001c00000
0001c00000
0001c00000
0001c00000
000ff80000
000ff80000
0000000000
0000000000
0000000000
ENDCHAR
STARTCHAR 2638
ENCODING 9784
SWIDTH	-8531 0
DWIDTH	34 0
BBX 34	35 0 -1
BITMAP
0000000000
0000000000
0000000000
0000000000
0003f00000
000ffc0000
003c0f0000
0070038000
00e001c000
01c000e000
01c000e000
0380007000
0380007000
0380007000
0380007000
0380007000
0380007000
0380007000
0380007000
01c000e000
01c000e000
00e001c000
00e001c000
0070038000
0038070000
001c0e0000
0606181800
0606181800
0606181800
07fe1ff800
07fe1ff800
07fe1ff800
0000000000
0000000000
0000000000
ENDCHAR
STARTCHAR 2641
ENCODING 9793
SWIDTH	-8531 0
DWIDTH	34 0
BBX 34	35 0 -1
BITMAP
0000000000
0000000000
0000000000
0000000000
0000000000
0000000000
0000000000
0000000000
0000000000
0000000000
0000000000
0000000000
0000000000
0000000000
0007c38000
001ff3c000
003c3b8000
00701f0000
00e01f0000
01c00e0000
01c00e0000
03800e0000
03800c0000
03800c0000
03800c0000
03801c0000
03801c0000
03803c4000
01c07c4000
01e1eec000
00ffcf8000
003f070000
0000000000
0000000000
0000000000
ENDCHAR
STARTCHAR 2642
ENCODING 9794
SWIDTH	-8531 0
DWIDTH	34 0
BBX 34	35 0 -1
BITMAP
0000000000
0000000000
0000000000
0000000000
00007c0000
0001ff0000
0001c3c000
000380c000
000300e000
000600e000
000600e000
000e00e000
000c01c000
000c01c000
001df38000
0019fe0000
0018fc0000
0038060000
0030070000
0030030000
0070038000
0060038000
0060038000
00f0038000
00f0070000
00d80f0000
01de1e0000
01cffc0000
0183f00000
0380000000
0380000000
0780000000
0700000000
0300000000
0000000000
ENDCHAR
STARTCHAR 2643
ENCODING 9795
SWIDTH	-8531 0
DWIDTH	34 0
BBX 34	35 0 -1
BITMAP
0000000000
0000000000
0000000000
0000000000
0000000000
0000000000
0000000000
0000000000
0000000000
0000000000
0000000000
0000000000
0000000000
0000000000
001e030000
003f038000
007f878000
00e3870000
00c1ce0000
0081ce0000
0000dc0000
0000d80000
0000f80000
0000f00000
0000700000
0000e00000
0000e00000
0001c00000
0003c00000
0003800000
0007800000
0007000000
000f000000
0006000000
0000000000
ENDCHAR
STARTCHAR 2644
ENCODING 9796
SWIDTH	-8531 0
DWIDTH	34 0
BBX 34	35 0 -1
BITMAP
0000000000
0000000000
0000000000
0000000000
0001f80000
0007fe0000
000f070000
000f038000
000703c000
000383c000
0001c18000
0000e00000
0000700000
0000700000
0007f80000
001f9c0000
003c1c0000
00780e0000
00700e0000
00e00e0000
00e00e0000
01e00e0000
01c00e0000
01c01c0000
01c01c0000
01c01c0000
01c0380000
01c0380000
00e0700000
00f1e00000
007fc00000
001f000000
0000000000
0000000000
0000000000
ENDCHAR
STARTCHAR 2645
ENCODING 9797
SWIDTH	-8531 0
DWIDTH	34 0
BBX 34	35 0 -1
BITMAP
0000000000
0000000000
0000000000
0000000000
0000000000
0000000000
0000000000
0000000000
0000000000
0000000000
0000000000
0000000000
0000000000
0000000000
0003f00000
000ffc0000
001e1e0000
001c030000
0038000000
0038000000
001c000000
000e000000
001ff80000
007ff80000
0070000000
00e0000000
00e0000000
00e0010000
0070030000
007c0e0000
003ffc0000
000ff00000
0000000000
0000000000
0000000000
ENDCHAR
STARTCHAR 2646
ENCODING 9798
SWIDTH	-8531 0
DWIDTH	34 0
BBX 34	35 0 -1
BITMAP
0000000000
0000000000
0000000000
0000000000
0001e00000
0007e00000
000e060000
000e0f0000
0007ff0000
0001fc0000
0000700000
0000e00000
0001c00000
0003800000
0007000000
000e000000
001c000000
001c000000
0038000000
0038000000
0038000000
0038000000
003c000000
001e000000
001f800000
000ff00000
0003f80000
0000780000
00001c0000
00001c0000
0000380000
0000f00000
0003e00000
0003800000
0000000000
ENDCHAR
STARTCHAR 2647
ENCODING 9799
SWIDTH	-8531 0
DWIDTH	34 0
BBX 34	35 0 -1
BITMAP
0000000000
0000000000
0000000000
0000000000
0000000000
0000000000
0000000000
0000000000
0000000000
0000000000
0000000000
0000000000
0000000000
0000000000
00387e0000
007dff8000
00cf838000
000701c000
000701c000
000601c000
000e01c000
000e01c000
000c038000
001c038000
001c038000
0038038000
0038070000
0078070000
0030070000
00000f0000
00000e0000
00001e0000
00001e0000
00000c0000
0000000000
ENDCHAR
STARTCHAR 2648
ENCODING 9800
SWIDTH	-8531 0
DWIDTH	34 0
BBX 34	35 0 -1
BITMAP
0000000000
0000000000
0000000000
0000000000
0000fc0000
0003fe0000
0007070000
000e038000
001c038000
003801c000
003801c000
007001c000
007001c000
007001c000
00e001c000
00e001c000
00ffffc000
00ffff8000
01e0038000
01c0038000
01c0038000
01c0038000
01c0070000
01c0070000
01c0070000
01c00e0000
01c00e0000
00e01c0000
00e0380000
0070700000
003fe00000
001f800000
0000000000
0000000000
0000000000
ENDCHAR
STARTCHAR 2649
ENCODING 9801
SWIDTH	-8531 0
DWIDTH	34 0
BBX 34	35 0 -1
BITMAP
0000000000
0000000000
0000000000
0000000000
0000000000
0000000000
0000000000
0000000000
0000000000
0000000000
0000000000
0000000000
0000000000
0000000000
0000600000
0000f00000
0000e00000
0001e00000
0001c00000
0001c00000
0003800000
0003800000
0003000000
0007000000
0007000000
000e000000
000e000000
000e060000
000e1c0000
000ff80000
0007f00000
0003c00000
0000000000
0000000000
0000000000
ENDCHAR
STARTCHAR 264a
ENCODING 9802
SWIDTH	-8531 0
DWIDTH	34 0
BBX 34	35 0 -1
BITMAP
0000000000
0000000000
0000000000
0000000000
0000000000
0000000000
0000000000
0000000000
0000000000
0000000000
0000000000
0000000000
0000000000
0000000000
003c018000
007e03c000
000e07e000
000e0f8000
000e1f0000
000e3c0000
001c700000
001ce00000
001df00000
001b380000
003e380000
003c380000
0038380000
0070380000
0070384000
00f01cc000
01e01f8000
00e00f0000
0000000000
0000000000
0000000000
ENDCHAR
STARTCHAR 264b
ENCODING 9803
SWIDTH	-8531 0
DWIDTH	34 0
BBX 34	35 0 -1
BITMAP
0000000000
0000000000
0000000000
0000000000
0003800000
0007c00000
000dc00000
0000e00000
0000e00000
0000e00000
0000e00000
0000e00000
0000e00000
0000e00000
0000700000
0000700000
0000f00000
0000f00000
0001b80000
0001b80000
0003180000
00071c0000
00061c0000
000e1c0000
001c0e0000
001c0e0000
00380e0000
00780f0000
0070071000
00f007f000
01e003e000
01c001c000
0000000000
0000000000
0000000000
ENDCHAR
STARTCHAR 264c
ENCODING 9804
SWIDTH	-8531 0
DWIDTH	34 0
BBX 34	35 0 -1
BITMAP
0000000000
0000000000
0000000000
0000000000
0000000000
0000000000
0000000000
0000000000
0000000000
0000000000
0000000000
0000000000
0000000000
0000000000
001e01c000
007f01e000
00ce01c000
001c03c000
001c038000
001c038000
0038070000
0038070000
00300f0000
00700e0000
00701e0000
00781e1800
00fc3f3000
00eff3e000
01c7c1c000
01c0000000
0380000000
0380000000
0780000000
0300000000
0000000000
ENDCHAR
STARTCHAR 264d
ENCODING 9805
SWIDTH	-8531 0
DWIDTH	34 0
BBX 34	35 0 -1
BITMAP
0000000000
0000000000
0000000000
0000000000
0000000000
0000000000
0000000000
0000000000
0000000000
0000000000
0000000000
0000000000
0000000000
0000000000
0038018000
007c018000
00fe018000
018e018000
000e038000
000e030000
000e030000
000e070000
000e060000
001c0e0000
001c1c0000
001c380000
001c700000
0039e00000
003bc00000
003f800000
007e000000
0078000000
0000000000
0000000000
0000000000
ENDCHAR
STARTCHAR 264e
ENCODING 9806
SWIDTH	-8531 0
DWIDTH	34 0
BBX 34	35 0 -1
BITMAP
0000000000
0000000000
0000000000
0000000000
00007c0000
0001fc0000
0003800000
0001c00000
0000fc0000
0003ff0000
00078f0000
000e020000
000e000000
000e000000
0007000000
0003c00000
0007fc0000
001ffe0000
003c1c0000
0038000000
0070000000
0070000000
0070000000
0038000000
003e000000
001f800000
0007e00000
0001f00000
0000380000
0000380000
0000380000
0000700000
0000f00000
0003c00000
0000000000
ENDCHAR
STARTCHAR 264f
ENCODING 9807
SWIDTH	-8531 0
DWIDTH	34 0
BBX 34	35 0 -1
BITMAP
0000000000
0000000000
0000000000
0000000000
0000000000
0000000000
0000000000
0000000000
0000000000
0000000000
0000000000
0000000000
0000000000
0000000000
0001f00000
0007fc0000
001f1e0000
003c070000
0038070000
0070038000
0070038000
00e0038000
00e0038000
00e0038000
00e0038000
00e0070000
00e0070000
00700e0000
00701e0000
003c7c0000
001ff00000
0007c00000
0000000000
0000000000
0000000000
ENDCHAR
STARTCHAR 2650
ENCODING 9808
SWIDTH	-8531 0
DWIDTH	34 0
BBX 34	35 0 -1
BITMAP
0000000000
0000000000
0000000000
0000000000
0000000000
0000000000
0000000000
0000000000
0000000000
0000000000
0000000000
0000000000
0000000000
0000000000
001f806000
007fffc000
00ffff8000
00873f0000
00071c0000
000e1c0000
000e380000
000c380000
001c380000
001c380000
0038700000
0038700000
0038700000
0070702000
007078e000
00703fc000
00e03f8000
00600e0000
0000000000
0000000000
0000000000
ENDCHAR
STARTCHAR 2651
ENCODING 9809
SWIDTH	-8531 0
DWIDTH	34 0
BBX 34	35 0 -1
BITMAP
0000000000
0000000000
0000000000
0000000000
0000000000
0000000000
0000000000
0000000000
0000000000
0000000000
0000000000
0000000000
0000000000
0000000000
00007c0000
0001ff0000
0003c78000
0003838000
000701c000
000701c000
000e01c000
000e01c000
000e01c000
001c01c000
001e038000
001e078000
003b8f0000
003bfe0000
0030f80000
0070000000
0070000000
00f0000000
00e0000000
0060000000
0000000000
ENDCHAR
STARTCHAR 2652
ENCODING 9810
SWIDTH	-8531 0
DWIDTH	34 0
BBX 34	35 0 -1
BITMAP
0000000000
0000000000
0000000000
0000000000
0000000000
0000000000
0000000000
0000000000
0000000000
0000000000
0000000000
0000000000
0000000000
0000000000
0001f1c200
0007fffe00
001f0e7c00
003c071800
0038070000
0070038000
0070038000
00e0038000
00e0038000
00e0038000
00e0038000
00e0070000
00e0070000
00700e0000
00701e0000
003c7c0000
001ff00000
0007c00000
0000000000
0000000000
0000000000
ENDCHAR
STARTCHAR 2653
ENCODING 9811
SWIDTH	-8531 0
DWIDTH	34 0
BBX 34	35 0 -1
BITMAP
0000000000
0000000000
0000000000
0000000000
0000000000
0000000000
0000000000
0000000000
0000000000
0000000000
0000000000
0000000000
0000000000
0000000000
001f80c000
007fff8000
00ffff0000
0081fc0000
0001c00000
0003800000
0003800000
0003800000
0007000000
0007000000
0007000000
000e000000
000e020000
000e060000
000e1c0000
000ff80000
0007f00000
0003c00000
0000000000
0000000000
0000000000
ENDCHAR
ENDFONT
